%TF.GenerationSoftware,KiCad,Pcbnew,7.0.11-7.0.11~ubuntu22.04.1*%
%TF.CreationDate,2024-07-12T12:17:06+05:30*%
%TF.ProjectId,goodtorch,676f6f64-746f-4726-9368-2e6b69636164,rev?*%
%TF.SameCoordinates,Original*%
%TF.FileFunction,Copper,L1,Top*%
%TF.FilePolarity,Positive*%
%FSLAX46Y46*%
G04 Gerber Fmt 4.6, Leading zero omitted, Abs format (unit mm)*
G04 Created by KiCad (PCBNEW 7.0.11-7.0.11~ubuntu22.04.1) date 2024-07-12 12:17:06*
%MOMM*%
%LPD*%
G01*
G04 APERTURE LIST*
G04 Aperture macros list*
%AMRoundRect*
0 Rectangle with rounded corners*
0 $1 Rounding radius*
0 $2 $3 $4 $5 $6 $7 $8 $9 X,Y pos of 4 corners*
0 Add a 4 corners polygon primitive as box body*
4,1,4,$2,$3,$4,$5,$6,$7,$8,$9,$2,$3,0*
0 Add four circle primitives for the rounded corners*
1,1,$1+$1,$2,$3*
1,1,$1+$1,$4,$5*
1,1,$1+$1,$6,$7*
1,1,$1+$1,$8,$9*
0 Add four rect primitives between the rounded corners*
20,1,$1+$1,$2,$3,$4,$5,0*
20,1,$1+$1,$4,$5,$6,$7,0*
20,1,$1+$1,$6,$7,$8,$9,0*
20,1,$1+$1,$8,$9,$2,$3,0*%
%AMFreePoly0*
4,1,9,3.862500,-0.866500,0.737500,-0.866500,0.737500,-0.450000,-0.737500,-0.450000,-0.737500,0.450000,0.737500,0.450000,0.737500,0.866500,3.862500,0.866500,3.862500,-0.866500,3.862500,-0.866500,$1*%
G04 Aperture macros list end*
%TA.AperFunction,SMDPad,CuDef*%
%ADD10R,1.700000X1.000000*%
%TD*%
%TA.AperFunction,ComponentPad*%
%ADD11R,1.600000X1.600000*%
%TD*%
%TA.AperFunction,ComponentPad*%
%ADD12C,1.600000*%
%TD*%
%TA.AperFunction,SMDPad,CuDef*%
%ADD13RoundRect,0.250000X0.312500X0.625000X-0.312500X0.625000X-0.312500X-0.625000X0.312500X-0.625000X0*%
%TD*%
%TA.AperFunction,SMDPad,CuDef*%
%ADD14C,1.000000*%
%TD*%
%TA.AperFunction,SMDPad,CuDef*%
%ADD15RoundRect,0.250000X-0.475000X0.250000X-0.475000X-0.250000X0.475000X-0.250000X0.475000X0.250000X0*%
%TD*%
%TA.AperFunction,SMDPad,CuDef*%
%ADD16RoundRect,0.250000X-0.312500X-0.625000X0.312500X-0.625000X0.312500X0.625000X-0.312500X0.625000X0*%
%TD*%
%TA.AperFunction,SMDPad,CuDef*%
%ADD17RoundRect,0.250000X0.512652X0.159099X0.159099X0.512652X-0.512652X-0.159099X-0.159099X-0.512652X0*%
%TD*%
%TA.AperFunction,SMDPad,CuDef*%
%ADD18RoundRect,0.100000X-0.637500X-0.100000X0.637500X-0.100000X0.637500X0.100000X-0.637500X0.100000X0*%
%TD*%
%TA.AperFunction,ComponentPad*%
%ADD19C,3.800000*%
%TD*%
%TA.AperFunction,SMDPad,CuDef*%
%ADD20RoundRect,0.250000X0.450000X-0.262500X0.450000X0.262500X-0.450000X0.262500X-0.450000X-0.262500X0*%
%TD*%
%TA.AperFunction,SMDPad,CuDef*%
%ADD21RoundRect,0.250000X0.650000X-0.325000X0.650000X0.325000X-0.650000X0.325000X-0.650000X-0.325000X0*%
%TD*%
%TA.AperFunction,ComponentPad*%
%ADD22R,2.200000X2.200000*%
%TD*%
%TA.AperFunction,ComponentPad*%
%ADD23C,2.200000*%
%TD*%
%TA.AperFunction,SMDPad,CuDef*%
%ADD24RoundRect,0.250000X-0.450000X0.262500X-0.450000X-0.262500X0.450000X-0.262500X0.450000X0.262500X0*%
%TD*%
%TA.AperFunction,SMDPad,CuDef*%
%ADD25RoundRect,0.250000X-0.650000X1.000000X-0.650000X-1.000000X0.650000X-1.000000X0.650000X1.000000X0*%
%TD*%
%TA.AperFunction,SMDPad,CuDef*%
%ADD26RoundRect,0.125000X0.300000X0.125000X-0.300000X0.125000X-0.300000X-0.125000X0.300000X-0.125000X0*%
%TD*%
%TA.AperFunction,SMDPad,CuDef*%
%ADD27R,4.550000X4.410000*%
%TD*%
%TA.AperFunction,SMDPad,CuDef*%
%ADD28RoundRect,0.225000X0.425000X0.225000X-0.425000X0.225000X-0.425000X-0.225000X0.425000X-0.225000X0*%
%TD*%
%TA.AperFunction,SMDPad,CuDef*%
%ADD29FreePoly0,180.000000*%
%TD*%
%TA.AperFunction,SMDPad,CuDef*%
%ADD30RoundRect,0.250000X0.250000X0.475000X-0.250000X0.475000X-0.250000X-0.475000X0.250000X-0.475000X0*%
%TD*%
%TA.AperFunction,SMDPad,CuDef*%
%ADD31RoundRect,0.100000X0.637500X0.100000X-0.637500X0.100000X-0.637500X-0.100000X0.637500X-0.100000X0*%
%TD*%
%TA.AperFunction,SMDPad,CuDef*%
%ADD32RoundRect,0.250000X0.262500X0.450000X-0.262500X0.450000X-0.262500X-0.450000X0.262500X-0.450000X0*%
%TD*%
%TA.AperFunction,ComponentPad*%
%ADD33R,1.700000X1.700000*%
%TD*%
%TA.AperFunction,ComponentPad*%
%ADD34O,1.700000X1.700000*%
%TD*%
%TA.AperFunction,SMDPad,CuDef*%
%ADD35RoundRect,0.250001X0.624999X-0.462499X0.624999X0.462499X-0.624999X0.462499X-0.624999X-0.462499X0*%
%TD*%
%TA.AperFunction,SMDPad,CuDef*%
%ADD36R,4.000000X7.000000*%
%TD*%
%TA.AperFunction,SMDPad,CuDef*%
%ADD37RoundRect,0.250000X0.625000X-0.312500X0.625000X0.312500X-0.625000X0.312500X-0.625000X-0.312500X0*%
%TD*%
%TA.AperFunction,SMDPad,CuDef*%
%ADD38RoundRect,0.250000X-0.625000X0.312500X-0.625000X-0.312500X0.625000X-0.312500X0.625000X0.312500X0*%
%TD*%
%TA.AperFunction,SMDPad,CuDef*%
%ADD39RoundRect,0.250000X0.375000X0.625000X-0.375000X0.625000X-0.375000X-0.625000X0.375000X-0.625000X0*%
%TD*%
%TA.AperFunction,SMDPad,CuDef*%
%ADD40RoundRect,0.150000X0.150000X-0.825000X0.150000X0.825000X-0.150000X0.825000X-0.150000X-0.825000X0*%
%TD*%
%TA.AperFunction,SMDPad,CuDef*%
%ADD41RoundRect,0.150000X-0.512500X-0.150000X0.512500X-0.150000X0.512500X0.150000X-0.512500X0.150000X0*%
%TD*%
%TA.AperFunction,SMDPad,CuDef*%
%ADD42RoundRect,0.125000X-0.300000X-0.125000X0.300000X-0.125000X0.300000X0.125000X-0.300000X0.125000X0*%
%TD*%
%TA.AperFunction,SMDPad,CuDef*%
%ADD43RoundRect,0.250000X0.475000X-0.250000X0.475000X0.250000X-0.475000X0.250000X-0.475000X-0.250000X0*%
%TD*%
%TA.AperFunction,SMDPad,CuDef*%
%ADD44RoundRect,0.250000X-0.262500X-0.450000X0.262500X-0.450000X0.262500X0.450000X-0.262500X0.450000X0*%
%TD*%
%TA.AperFunction,SMDPad,CuDef*%
%ADD45RoundRect,0.250000X1.000000X0.650000X-1.000000X0.650000X-1.000000X-0.650000X1.000000X-0.650000X0*%
%TD*%
%TA.AperFunction,ComponentPad*%
%ADD46O,1.600000X1.000000*%
%TD*%
%TA.AperFunction,ComponentPad*%
%ADD47O,2.100000X1.000000*%
%TD*%
%TA.AperFunction,ViaPad*%
%ADD48C,0.800000*%
%TD*%
%TA.AperFunction,Conductor*%
%ADD49C,0.250000*%
%TD*%
%TA.AperFunction,Conductor*%
%ADD50C,0.300000*%
%TD*%
%TA.AperFunction,Conductor*%
%ADD51C,0.400000*%
%TD*%
G04 APERTURE END LIST*
D10*
%TO.P,SW1,1,1*%
%TO.N,BAT_N*%
X136190000Y-76675000D03*
X142490000Y-76675000D03*
%TO.P,SW1,2,2*%
%TO.N,Net-(U1-NRST)*%
X136190000Y-80475000D03*
X142490000Y-80475000D03*
%TD*%
D11*
%TO.P,C22,1*%
%TO.N,OUTPUT_VOLTAGE*%
X140955113Y-55400000D03*
D12*
%TO.P,C22,2*%
%TO.N,BAT_N*%
X142955113Y-55400000D03*
%TD*%
D13*
%TO.P,R5,1*%
%TO.N,Net-(U1-NRST)*%
X133962500Y-83746666D03*
%TO.P,R5,2*%
%TO.N,+3V3*%
X131037500Y-83746666D03*
%TD*%
D14*
%TO.P,TP30,1,1*%
%TO.N,Net-(U5-OD)*%
X110400000Y-62100000D03*
%TD*%
D15*
%TO.P,C24,1*%
%TO.N,OUTPUT_VOLTAGE*%
X138510000Y-67050000D03*
%TO.P,C24,2*%
%TO.N,BAT_N*%
X138510000Y-68950000D03*
%TD*%
D16*
%TO.P,R3,1*%
%TO.N,LOW_SIDE_FET*%
X130537500Y-76000000D03*
%TO.P,R3,2*%
%TO.N,Net-(U1-PB0{slash}PB1{slash}PB2{slash}PA8)*%
X133462500Y-76000000D03*
%TD*%
D14*
%TO.P,TP26,1,1*%
%TO.N,Net-(U2-~{CHRG})*%
X101300000Y-62100000D03*
%TD*%
%TO.P,TP15,1,1*%
%TO.N,OUTPUT_VOLTAGE*%
X149700000Y-71400000D03*
%TD*%
D17*
%TO.P,C16,1*%
%TO.N,BAT_P*%
X109771751Y-75971751D03*
%TO.P,C16,2*%
%TO.N,Net-(J6-Pin_1)*%
X108428249Y-74628249D03*
%TD*%
D18*
%TO.P,U1,1,PB7/PB8*%
%TO.N,ENABLE*%
X112937500Y-80675000D03*
%TO.P,U1,2,PC14/PB9*%
%TO.N,unconnected-(U1-PC14{slash}PB9-Pad2)*%
X112937500Y-81325000D03*
%TO.P,U1,3,PC15*%
%TO.N,unconnected-(U1-PC15-Pad3)*%
X112937500Y-81975000D03*
%TO.P,U1,4,VDD*%
%TO.N,+3V3*%
X112937500Y-82625000D03*
%TO.P,U1,5,VSS*%
%TO.N,BAT_N*%
X112937500Y-83275000D03*
%TO.P,U1,6,NRST*%
%TO.N,Net-(U1-NRST)*%
X112937500Y-83925000D03*
%TO.P,U1,7,PA0*%
%TO.N,FEEDBACK*%
X112937500Y-84575000D03*
%TO.P,U1,8,PA1*%
%TO.N,unconnected-(U1-PA1-Pad8)*%
X112937500Y-85225000D03*
%TO.P,U1,9,PA2*%
%TO.N,unconnected-(U1-PA2-Pad9)*%
X112937500Y-85875000D03*
%TO.P,U1,10,PA3*%
%TO.N,MODE_SELECT*%
X112937500Y-86525000D03*
%TO.P,U1,11,PA4*%
%TO.N,unconnected-(U1-PA4-Pad11)*%
X118662500Y-86525000D03*
%TO.P,U1,12,PA5*%
%TO.N,unconnected-(U1-PA5-Pad12)*%
X118662500Y-85875000D03*
%TO.P,U1,13,PA6*%
%TO.N,unconnected-(U1-PA6-Pad13)*%
X118662500Y-85225000D03*
%TO.P,U1,14,PA7*%
%TO.N,Net-(U1-PA7)*%
X118662500Y-84575000D03*
%TO.P,U1,15,PB0/PB1/PB2/PA8*%
%TO.N,Net-(U1-PB0{slash}PB1{slash}PB2{slash}PA8)*%
X118662500Y-83925000D03*
%TO.P,U1,16,PA11/PA9*%
%TO.N,unconnected-(U1-PA11{slash}PA9-Pad16)*%
X118662500Y-83275000D03*
%TO.P,U1,17,PA12/PA10*%
%TO.N,unconnected-(U1-PA12{slash}PA10-Pad17)*%
X118662500Y-82625000D03*
%TO.P,U1,18,PA13*%
%TO.N,SWDIO*%
X118662500Y-81975000D03*
%TO.P,U1,19,PA14/PA15*%
%TO.N,SWDCLK*%
X118662500Y-81325000D03*
%TO.P,U1,20,PB3/PB4/PB5/PB6*%
%TO.N,LED*%
X118662500Y-80675000D03*
%TD*%
D14*
%TO.P,TP16,1,1*%
%TO.N,BAT_N*%
X93500000Y-54400000D03*
%TD*%
D11*
%TO.P,C12,1*%
%TO.N,BAT_P*%
X97000000Y-54000000D03*
D12*
%TO.P,C12,2*%
%TO.N,BAT_N*%
X99000000Y-54000000D03*
%TD*%
D14*
%TO.P,TP9,1,1*%
%TO.N,Net-(U1-PA7)*%
X128600000Y-68600000D03*
%TD*%
D19*
%TO.P,H5,1,1*%
%TO.N,BAT_P*%
X88000000Y-78000000D03*
%TD*%
D13*
%TO.P,R10,1*%
%TO.N,HIGH_SIDE_FET*%
X133462500Y-68537500D03*
%TO.P,R10,2*%
%TO.N,Net-(U1-PA7)*%
X130537500Y-68537500D03*
%TD*%
D20*
%TO.P,R21,1*%
%TO.N,Net-(U5-VM)*%
X108400000Y-61912500D03*
%TO.P,R21,2*%
%TO.N,BAT_N*%
X108400000Y-60087500D03*
%TD*%
D21*
%TO.P,C14,1*%
%TO.N,Net-(D4-K)*%
X119200000Y-68075000D03*
%TO.P,C14,2*%
%TO.N,BOOST_SWITCH_NODE*%
X119200000Y-65125000D03*
%TD*%
D14*
%TO.P,TP24,1,1*%
%TO.N,CC1*%
X92700000Y-64000000D03*
%TD*%
D22*
%TO.P,J4,1,Pin_1*%
%TO.N,OUTPUT_VOLTAGE*%
X149720000Y-67270000D03*
D23*
%TO.P,J4,2,Pin_2*%
%TO.N,BAT_N*%
X149720000Y-64730000D03*
%TD*%
D14*
%TO.P,TP18,1,1*%
%TO.N,+3V3*%
X115600000Y-78900000D03*
%TD*%
D24*
%TO.P,R18,1*%
%TO.N,Net-(D7-K)*%
X105800000Y-60087500D03*
%TO.P,R18,2*%
%TO.N,Net-(U2-~{STDBY})*%
X105800000Y-61912500D03*
%TD*%
D22*
%TO.P,J3,1,Pin_1*%
%TO.N,BAT_N*%
X89000000Y-70460000D03*
D23*
%TO.P,J3,2,Pin_2*%
%TO.N,BAT_P*%
X89000000Y-73000000D03*
%TD*%
D25*
%TO.P,D4,1,K*%
%TO.N,Net-(D4-K)*%
X119600000Y-70800000D03*
%TO.P,D4,2,A*%
%TO.N,+3V3*%
X119600000Y-74800000D03*
%TD*%
D13*
%TO.P,R4,1*%
%TO.N,BAT_N*%
X133962500Y-79000000D03*
%TO.P,R4,2*%
%TO.N,Net-(D1-K)*%
X131037500Y-79000000D03*
%TD*%
D16*
%TO.P,R13,1*%
%TO.N,LOW_SIDE_FET*%
X130437500Y-47650000D03*
%TO.P,R13,2*%
%TO.N,Net-(Q3-G)*%
X133362500Y-47650000D03*
%TD*%
D26*
%TO.P,Q3,1,S*%
%TO.N,BAT_N*%
X134700000Y-53755000D03*
%TO.P,Q3,2,S*%
X134700000Y-52485000D03*
%TO.P,Q3,3,S*%
X134700000Y-51215000D03*
%TO.P,Q3,4,G*%
%TO.N,Net-(Q3-G)*%
X134700000Y-49945000D03*
D27*
%TO.P,Q3,5,D*%
%TO.N,BOOST_SWITCH_NODE*%
X130750000Y-51850000D03*
%TD*%
D11*
%TO.P,C4,1*%
%TO.N,BAT_P*%
X97000000Y-60000000D03*
D12*
%TO.P,C4,2*%
%TO.N,BAT_N*%
X99000000Y-60000000D03*
%TD*%
D28*
%TO.P,U4,1,GND*%
%TO.N,BAT_N*%
X99000000Y-86000000D03*
D29*
%TO.P,U4,2,VIN*%
%TO.N,BAT_P*%
X98912500Y-84500000D03*
D28*
%TO.P,U4,3,VOUT*%
%TO.N,+3V3*%
X99000000Y-83000000D03*
%TD*%
D30*
%TO.P,C9,1*%
%TO.N,BAT_P*%
X112550000Y-67400000D03*
%TO.P,C9,2*%
%TO.N,BAT_N*%
X110650000Y-67400000D03*
%TD*%
D16*
%TO.P,R2,1*%
%TO.N,GATE_DRIVER_IN*%
X130537500Y-73512500D03*
%TO.P,R2,2*%
%TO.N,Net-(U1-PB0{slash}PB1{slash}PB2{slash}PA8)*%
X133462500Y-73512500D03*
%TD*%
D13*
%TO.P,R1,1*%
%TO.N,BAT_N*%
X133962500Y-81373333D03*
%TO.P,R1,2*%
%TO.N,ENABLE*%
X131037500Y-81373333D03*
%TD*%
D24*
%TO.P,R12,1*%
%TO.N,Net-(D6-K)*%
X103312500Y-60087500D03*
%TO.P,R12,2*%
%TO.N,Net-(U2-~{CHRG})*%
X103312500Y-61912500D03*
%TD*%
D31*
%TO.P,U6,1,D*%
%TO.N,Net-(TP31-Pad1)*%
X107862500Y-69975000D03*
%TO.P,U6,2,S1*%
%TO.N,Net-(J6-Pin_1)*%
X107862500Y-69325000D03*
%TO.P,U6,3,S1*%
X107862500Y-68675000D03*
%TO.P,U6,4,G1*%
%TO.N,Net-(U5-OD)*%
X107862500Y-68025000D03*
%TO.P,U6,5,G2*%
%TO.N,Net-(U5-OC)*%
X102137500Y-68025000D03*
%TO.P,U6,6,S2*%
%TO.N,BAT_N*%
X102137500Y-68675000D03*
%TO.P,U6,7,S2*%
X102137500Y-69325000D03*
%TO.P,U6,8,D*%
%TO.N,Net-(TP31-Pad1)*%
X102137500Y-69975000D03*
%TD*%
D13*
%TO.P,R7,1*%
%TO.N,MODE_SELECT*%
X133962500Y-86120000D03*
%TO.P,R7,2*%
%TO.N,+3V3*%
X131037500Y-86120000D03*
%TD*%
D14*
%TO.P,TP31,1,1*%
%TO.N,Net-(TP31-Pad1)*%
X107000000Y-71900000D03*
%TD*%
%TO.P,TP17,1,1*%
%TO.N,GATE_DRIVER_SHUTDOWN*%
X128500000Y-76500000D03*
%TD*%
D19*
%TO.P,H8,1,1*%
%TO.N,OUTPUT_VOLTAGE*%
X149700000Y-78000000D03*
%TD*%
D14*
%TO.P,TP12,1,1*%
%TO.N,BAT_P*%
X92300000Y-80400000D03*
%TD*%
D15*
%TO.P,C25,1*%
%TO.N,OUTPUT_VOLTAGE*%
X142520000Y-67050000D03*
%TO.P,C25,2*%
%TO.N,BAT_N*%
X142520000Y-68950000D03*
%TD*%
D32*
%TO.P,R8,1*%
%TO.N,CC1*%
X89485007Y-64593449D03*
%TO.P,R8,2*%
%TO.N,BAT_N*%
X87660007Y-64593449D03*
%TD*%
D11*
%TO.P,C6,1*%
%TO.N,+3V3*%
X103050000Y-83500000D03*
D12*
%TO.P,C6,2*%
%TO.N,BAT_N*%
X103050000Y-85500000D03*
%TD*%
D15*
%TO.P,C7,1*%
%TO.N,+3V3*%
X108400000Y-83250000D03*
%TO.P,C7,2*%
%TO.N,BAT_N*%
X108400000Y-85150000D03*
%TD*%
D11*
%TO.P,C8,1*%
%TO.N,BAT_P*%
X97000000Y-72000000D03*
D12*
%TO.P,C8,2*%
%TO.N,BAT_N*%
X99000000Y-72000000D03*
%TD*%
D13*
%TO.P,R14,1*%
%TO.N,HIGH_SIDE_FET*%
X133462500Y-66050000D03*
%TO.P,R14,2*%
%TO.N,Net-(Q4-G)*%
X130537500Y-66050000D03*
%TD*%
D32*
%TO.P,R6,1*%
%TO.N,CC2*%
X89485007Y-61643449D03*
%TO.P,R6,2*%
%TO.N,BAT_N*%
X87660007Y-61643449D03*
%TD*%
D15*
%TO.P,C20,1*%
%TO.N,FEEDBACK*%
X138270000Y-71222500D03*
%TO.P,C20,2*%
%TO.N,BAT_N*%
X138270000Y-73122500D03*
%TD*%
D14*
%TO.P,TP8,1,1*%
%TO.N,+3V3*%
X117000000Y-75200000D03*
%TD*%
%TO.P,TP7,1,1*%
%TO.N,MODE_SELECT*%
X144900000Y-86400000D03*
%TD*%
%TO.P,TP11,1,1*%
%TO.N,BAT_N*%
X117000000Y-45800000D03*
%TD*%
D33*
%TO.P,J2,1,Pin_1*%
%TO.N,ENABLE*%
X127700000Y-82500000D03*
D34*
%TO.P,J2,2,Pin_2*%
%TO.N,+3V3*%
X127700000Y-85040000D03*
%TD*%
D14*
%TO.P,TP29,1,1*%
%TO.N,Net-(J6-Pin_1)*%
X109000000Y-72100000D03*
%TD*%
%TO.P,TP32,1,1*%
%TO.N,Net-(U5-OC)*%
X101900000Y-66300000D03*
%TD*%
%TO.P,TP20,1,1*%
%TO.N,Net-(D4-K)*%
X117270756Y-68108229D03*
%TD*%
D33*
%TO.P,J1,1,Pin_1*%
%TO.N,SWDCLK*%
X122800000Y-79060000D03*
D34*
%TO.P,J1,2,Pin_2*%
%TO.N,SWDIO*%
X122800000Y-81600000D03*
%TO.P,J1,3,Pin_3*%
%TO.N,+3V3*%
X122800000Y-84140000D03*
%TO.P,J1,4,Pin_4*%
%TO.N,BAT_N*%
X122800000Y-86680000D03*
%TD*%
D15*
%TO.P,C26,1*%
%TO.N,OUTPUT_VOLTAGE*%
X140520000Y-67050000D03*
%TO.P,C26,2*%
%TO.N,BAT_N*%
X140520000Y-68950000D03*
%TD*%
D30*
%TO.P,C11,1*%
%TO.N,BAT_P*%
X112550000Y-65400000D03*
%TO.P,C11,2*%
%TO.N,BAT_N*%
X110650000Y-65400000D03*
%TD*%
D11*
%TO.P,C23,1*%
%TO.N,OUTPUT_VOLTAGE*%
X140955113Y-61000000D03*
D12*
%TO.P,C23,2*%
%TO.N,BAT_N*%
X142955113Y-61000000D03*
%TD*%
D35*
%TO.P,D6,1,K*%
%TO.N,Net-(D6-K)*%
X103312500Y-57487500D03*
%TO.P,D6,2,A*%
%TO.N,VUSB*%
X103312500Y-54512500D03*
%TD*%
D36*
%TO.P,L1,1,1*%
%TO.N,BOOST_SWITCH_NODE*%
X125600000Y-57000000D03*
%TO.P,L1,2,2*%
%TO.N,BAT_P*%
X115600000Y-57000000D03*
%TD*%
D37*
%TO.P,R17,1*%
%TO.N,BAT_N*%
X136170000Y-74135000D03*
%TO.P,R17,2*%
%TO.N,FEEDBACK*%
X136170000Y-71210000D03*
%TD*%
D10*
%TO.P,SW2,1,1*%
%TO.N,BAT_N*%
X136190000Y-82715000D03*
X142490000Y-82715000D03*
%TO.P,SW2,2,2*%
%TO.N,MODE_SELECT*%
X136190000Y-86515000D03*
X142490000Y-86515000D03*
%TD*%
D15*
%TO.P,C2,1*%
%TO.N,+3V3*%
X110400000Y-83250000D03*
%TO.P,C2,2*%
%TO.N,BAT_N*%
X110400000Y-85150000D03*
%TD*%
D37*
%TO.P,R16,1*%
%TO.N,FEEDBACK*%
X136180000Y-68932500D03*
%TO.P,R16,2*%
%TO.N,OUTPUT_VOLTAGE*%
X136180000Y-66007500D03*
%TD*%
D14*
%TO.P,TP10,1,1*%
%TO.N,BAT_P*%
X114600000Y-65400000D03*
%TD*%
D11*
%TO.P,C3,1*%
%TO.N,BAT_P*%
X97000000Y-66000000D03*
D12*
%TO.P,C3,2*%
%TO.N,BAT_N*%
X99000000Y-66000000D03*
%TD*%
D14*
%TO.P,TP28,1,1*%
%TO.N,BAT_P*%
X92300000Y-78200000D03*
%TD*%
%TO.P,TP33,1,1*%
%TO.N,Net-(U5-VM)*%
X101400000Y-64200000D03*
%TD*%
D11*
%TO.P,C10,1*%
%TO.N,BAT_P*%
X97000000Y-78000000D03*
D12*
%TO.P,C10,2*%
%TO.N,BAT_N*%
X99000000Y-78000000D03*
%TD*%
D38*
%TO.P,R15,1*%
%TO.N,FEEDBACK*%
X140520000Y-71272500D03*
%TO.P,R15,2*%
%TO.N,BAT_N*%
X140520000Y-74197500D03*
%TD*%
D39*
%TO.P,D1,1,K*%
%TO.N,Net-(D1-K)*%
X129150000Y-79000000D03*
%TO.P,D1,2,A*%
%TO.N,LED*%
X126350000Y-79000000D03*
%TD*%
D40*
%TO.P,U3,1,VCC*%
%TO.N,+3V3*%
X122495000Y-75075000D03*
%TO.P,U3,2,IN*%
%TO.N,GATE_DRIVER_IN*%
X123765000Y-75075000D03*
%TO.P,U3,3,~{SD}*%
%TO.N,GATE_DRIVER_SHUTDOWN*%
X125035000Y-75075000D03*
%TO.P,U3,4,COM*%
%TO.N,BAT_N*%
X126305000Y-75075000D03*
%TO.P,U3,5,LO*%
%TO.N,LOW_SIDE_FET*%
X126305000Y-70125000D03*
%TO.P,U3,6,VS*%
%TO.N,BOOST_SWITCH_NODE*%
X125035000Y-70125000D03*
%TO.P,U3,7,HO*%
%TO.N,HIGH_SIDE_FET*%
X123765000Y-70125000D03*
%TO.P,U3,8,VB*%
%TO.N,Net-(D4-K)*%
X122495000Y-70125000D03*
%TD*%
D19*
%TO.P,H6,1,1*%
%TO.N,BAT_N*%
X88000000Y-54000000D03*
%TD*%
D41*
%TO.P,U5,1,OD*%
%TO.N,Net-(U5-OD)*%
X104175000Y-64425000D03*
%TO.P,U5,2,VM*%
%TO.N,Net-(U5-VM)*%
X104175000Y-65375000D03*
%TO.P,U5,3,OC*%
%TO.N,Net-(U5-OC)*%
X104175000Y-66325000D03*
%TO.P,U5,4,TD*%
%TO.N,unconnected-(U5-TD-Pad4)*%
X106450000Y-66325000D03*
%TO.P,U5,5,VCC*%
%TO.N,BAT_P*%
X106450000Y-65375000D03*
%TO.P,U5,6,GND*%
%TO.N,Net-(J6-Pin_1)*%
X106450000Y-64425000D03*
%TD*%
D19*
%TO.P,H7,1,1*%
%TO.N,BAT_N*%
X150000000Y-54000000D03*
%TD*%
D14*
%TO.P,TP13,1,1*%
%TO.N,BOOST_SWITCH_NODE*%
X123900000Y-65300000D03*
%TD*%
D42*
%TO.P,Q4,1,S*%
%TO.N,BOOST_SWITCH_NODE*%
X128900000Y-59945000D03*
%TO.P,Q4,2,S*%
X128900000Y-61215000D03*
%TO.P,Q4,3,S*%
X128900000Y-62485000D03*
%TO.P,Q4,4,G*%
%TO.N,Net-(Q4-G)*%
X128900000Y-63755000D03*
D27*
%TO.P,Q4,5,D*%
%TO.N,OUTPUT_VOLTAGE*%
X132850000Y-61850000D03*
%TD*%
D30*
%TO.P,C13,1*%
%TO.N,BAT_P*%
X112500000Y-69400000D03*
%TO.P,C13,2*%
%TO.N,BAT_N*%
X110600000Y-69400000D03*
%TD*%
D43*
%TO.P,C27,1*%
%TO.N,Net-(D4-K)*%
X121500000Y-67550000D03*
%TO.P,C27,2*%
%TO.N,BOOST_SWITCH_NODE*%
X121500000Y-65650000D03*
%TD*%
D11*
%TO.P,C21,1*%
%TO.N,OUTPUT_VOLTAGE*%
X140955113Y-49800000D03*
D12*
%TO.P,C21,2*%
%TO.N,BAT_N*%
X142955113Y-49800000D03*
%TD*%
D14*
%TO.P,TP19,1,1*%
%TO.N,GATE_DRIVER_IN*%
X128600000Y-73700000D03*
%TD*%
%TO.P,TP23,1,1*%
%TO.N,CC2*%
X92700000Y-61600000D03*
%TD*%
D44*
%TO.P,R20,1*%
%TO.N,BAT_N*%
X103087500Y-73500000D03*
%TO.P,R20,2*%
%TO.N,Net-(J6-Pin_1)*%
X104912500Y-73500000D03*
%TD*%
D11*
%TO.P,C5,1*%
%TO.N,BAT_P*%
X97000000Y-48000000D03*
D12*
%TO.P,C5,2*%
%TO.N,BAT_N*%
X99000000Y-48000000D03*
%TD*%
D14*
%TO.P,TP34,1,1*%
%TO.N,BAT_N*%
X93500000Y-51900000D03*
%TD*%
D30*
%TO.P,C1,1*%
%TO.N,+3V3*%
X119550000Y-77600000D03*
%TO.P,C1,2*%
%TO.N,BAT_N*%
X117650000Y-77600000D03*
%TD*%
D45*
%TO.P,D3,1,K*%
%TO.N,OUTPUT_VOLTAGE*%
X133800000Y-57050000D03*
%TO.P,D3,2,A*%
%TO.N,BOOST_SWITCH_NODE*%
X129800000Y-57050000D03*
%TD*%
D13*
%TO.P,R9,1*%
%TO.N,GATE_DRIVER_SHUTDOWN*%
X133500000Y-71025000D03*
%TO.P,R9,2*%
%TO.N,Net-(U1-PA7)*%
X130575000Y-71025000D03*
%TD*%
D35*
%TO.P,D7,1,K*%
%TO.N,Net-(D7-K)*%
X105800000Y-57487500D03*
%TO.P,D7,2,A*%
%TO.N,VUSB*%
X105800000Y-54512500D03*
%TD*%
D33*
%TO.P,J6,1,Pin_1*%
%TO.N,Net-(J6-Pin_1)*%
X104000000Y-77000000D03*
D34*
%TO.P,J6,2,Pin_2*%
%TO.N,BAT_P*%
X104000000Y-79540000D03*
%TD*%
D46*
%TO.P,J5,S1,SHIELD*%
%TO.N,BAT_N*%
X87925000Y-67320000D03*
D47*
X92105000Y-67320000D03*
D46*
X87925000Y-58680000D03*
D47*
X92105000Y-58680000D03*
%TD*%
D48*
%TO.N,BAT_N*%
X108500000Y-59050000D03*
%TO.N,Net-(U2-~{STDBY})*%
X107200000Y-60950000D03*
%TO.N,Net-(U2-~{CHRG})*%
X102100000Y-61000000D03*
%TO.N,LED*%
X124500000Y-78350000D03*
%TO.N,VUSB*%
X107500000Y-54450000D03*
%TO.N,BAT_N*%
X142900000Y-64000000D03*
%TO.N,Net-(U1-PB0{slash}PB1{slash}PB2{slash}PA8)*%
X134350000Y-74750000D03*
%TO.N,Net-(U1-NRST)*%
X117100000Y-84200000D03*
%TO.N,Net-(U1-PA7)*%
X115750000Y-85500000D03*
%TO.N,FEEDBACK*%
X114750000Y-84900000D03*
%TO.N,BAT_N*%
X108000000Y-66700000D03*
X106100000Y-68200000D03*
X100300000Y-69800000D03*
X100300000Y-68600000D03*
%TO.N,CC1*%
X91100000Y-64300000D03*
%TO.N,CC2*%
X91100000Y-61500000D03*
%TO.N,BAT_N*%
X109600000Y-70800000D03*
X109500000Y-64300000D03*
X109600000Y-69500000D03*
X122900000Y-67300000D03*
X121100000Y-69000000D03*
%TO.N,HIGH_SIDE_FET*%
X123600000Y-68200000D03*
%TO.N,BAT_N*%
X125600000Y-66300000D03*
X127900000Y-66900000D03*
%TO.N,HIGH_SIDE_FET*%
X132200000Y-68300000D03*
%TO.N,Net-(U1-PA7)*%
X129400000Y-71200000D03*
%TO.N,FEEDBACK*%
X136300000Y-70100000D03*
%TO.N,Net-(U1-NRST)*%
X135700000Y-84500000D03*
%TO.N,BAT_N*%
X115000000Y-83000000D03*
X110700000Y-86200000D03*
X108600000Y-86200000D03*
X99000000Y-86900000D03*
X138300000Y-74200000D03*
X129600000Y-83400000D03*
X121000000Y-48700000D03*
X141100000Y-82800000D03*
X93200000Y-87500000D03*
X143300000Y-44400000D03*
X132900000Y-81400000D03*
X121000000Y-58700000D03*
X134100000Y-45800000D03*
X128100000Y-46200000D03*
X136100000Y-54200000D03*
X121000000Y-50700000D03*
X140998074Y-76792689D03*
X115000000Y-48700000D03*
X110700000Y-64100000D03*
X132900000Y-79000000D03*
X128100000Y-44200000D03*
X113000000Y-48700000D03*
X102000000Y-73500000D03*
X145100000Y-79500000D03*
X134100000Y-44200000D03*
X126300000Y-73400000D03*
X106200000Y-76200000D03*
X130100000Y-44200000D03*
X109000000Y-48700000D03*
X145500000Y-74800000D03*
X93800000Y-44400000D03*
X123000000Y-48700000D03*
X121000000Y-54700000D03*
X126500000Y-86200000D03*
X119800000Y-61000000D03*
X121000000Y-52700000D03*
X132100000Y-45800000D03*
X121434484Y-73313837D03*
X117000000Y-48700000D03*
X124600000Y-80700000D03*
X109000000Y-54700000D03*
X132100000Y-44200000D03*
X136100000Y-52200000D03*
X136100000Y-50200000D03*
X121100000Y-86500000D03*
X148700000Y-61200000D03*
X136100000Y-75400000D03*
X137600000Y-76800000D03*
X142600000Y-69900000D03*
X105100000Y-45300000D03*
X106100000Y-73000000D03*
X136100000Y-44200000D03*
X138500000Y-69900000D03*
X118100000Y-62700000D03*
X121108108Y-76116800D03*
X140500000Y-69900000D03*
X136100000Y-46200000D03*
X109000000Y-52700000D03*
X136100000Y-48200000D03*
X109000000Y-50700000D03*
X128100000Y-48200000D03*
X119000000Y-48700000D03*
X130100000Y-45800000D03*
X93700000Y-83600000D03*
X110900000Y-70800000D03*
X121000000Y-56700000D03*
X127100000Y-75100000D03*
X137600000Y-82800000D03*
X140500000Y-75400000D03*
X109000000Y-56700000D03*
X143700000Y-69000000D03*
X106700000Y-87700000D03*
X111000000Y-48700000D03*
X125100000Y-83800000D03*
%TO.N,ENABLE*%
X114300000Y-81500000D03*
%TO.N,BAT_P*%
X107687851Y-65285421D03*
X112000000Y-63200000D03*
%TD*%
D49*
%TO.N,HIGH_SIDE_FET*%
X123765000Y-70125000D02*
X123765000Y-68365000D01*
X123765000Y-68365000D02*
X123600000Y-68200000D01*
D50*
%TO.N,Net-(U2-~{CHRG})*%
X103312500Y-61262500D02*
X103312500Y-61912500D01*
X102100000Y-61000000D02*
X103050000Y-61000000D01*
X103050000Y-61000000D02*
X103312500Y-61262500D01*
%TO.N,Net-(U2-~{STDBY})*%
X107000000Y-61200000D02*
X106287500Y-61912500D01*
X106287500Y-61912500D02*
X105800000Y-61912500D01*
D51*
%TO.N,LED*%
X124500000Y-78400000D02*
X125000000Y-78900000D01*
X124500000Y-78350000D02*
X124500000Y-78400000D01*
X124450000Y-78350000D02*
X124500000Y-78350000D01*
%TO.N,VUSB*%
X105862500Y-54450000D02*
X105800000Y-54512500D01*
X107500000Y-54450000D02*
X105862500Y-54450000D01*
%TO.N,Net-(U1-PB0{slash}PB1{slash}PB2{slash}PA8)*%
X133462500Y-73512500D02*
X133462500Y-74800000D01*
X133462500Y-74800000D02*
X133462500Y-76000000D01*
D50*
X134350000Y-74750000D02*
X133512500Y-74750000D01*
X133512500Y-74750000D02*
X133462500Y-74800000D01*
D51*
%TO.N,Net-(U1-NRST)*%
X117100000Y-84150000D02*
X116875000Y-83925000D01*
X117100000Y-84200000D02*
X117100000Y-84150000D01*
X117150000Y-84200000D02*
X117100000Y-84200000D01*
D49*
%TO.N,Net-(U1-PA7)*%
X115750000Y-85500000D02*
X117000001Y-85500000D01*
X117000001Y-85500000D02*
X117925001Y-84575000D01*
X117925001Y-84575000D02*
X118662500Y-84575000D01*
D51*
%TO.N,Net-(U1-NRST)*%
X117150000Y-84200000D02*
X117150000Y-84200000D01*
X116875000Y-83925000D02*
X112937500Y-83925000D01*
D49*
%TO.N,FEEDBACK*%
X114750000Y-84900000D02*
X114425000Y-84575000D01*
X114425000Y-84575000D02*
X112937500Y-84575000D01*
D51*
%TO.N,Net-(U5-OD)*%
X104175000Y-64425000D02*
X104837499Y-64425000D01*
X104837499Y-64425000D02*
X105300000Y-64887501D01*
X105705526Y-67025000D02*
X106862500Y-67025000D01*
X105300000Y-64887501D02*
X105300000Y-66619474D01*
X105300000Y-66619474D02*
X105705526Y-67025000D01*
X106862500Y-67025000D02*
X107862500Y-68025000D01*
D50*
%TO.N,CC1*%
X91130000Y-64300000D02*
X91140000Y-64290000D01*
X91100000Y-64300000D02*
X91130000Y-64300000D01*
X91100000Y-64330000D02*
X91100000Y-64300000D01*
D49*
%TO.N,LOW_SIDE_FET*%
X126305000Y-70125000D02*
X126500000Y-69930000D01*
X133350000Y-49395100D02*
X131604900Y-47650000D01*
X126500000Y-69930000D02*
X126500000Y-64700000D01*
X132225000Y-57345000D02*
X132225000Y-55505000D01*
X126500000Y-64700000D02*
X128020000Y-63180000D01*
X128020000Y-63180000D02*
X129270000Y-63180000D01*
X130250000Y-62200000D02*
X130250000Y-59320000D01*
X129270000Y-63180000D02*
X130250000Y-62200000D01*
X130250000Y-59320000D02*
X132225000Y-57345000D01*
X132225000Y-55505000D02*
X133350000Y-54380000D01*
X131604900Y-47650000D02*
X130437500Y-47650000D01*
X133350000Y-54380000D02*
X133350000Y-49395100D01*
%TO.N,BOOST_SWITCH_NODE*%
X125035000Y-70125000D02*
X125035000Y-67035000D01*
X125035000Y-67035000D02*
X123650000Y-65650000D01*
X123650000Y-65650000D02*
X121500000Y-65650000D01*
D51*
%TO.N,Net-(U1-NRST)*%
X135700000Y-84600000D02*
X134846666Y-83746666D01*
X135700000Y-84500000D02*
X135700000Y-84600000D01*
X135600000Y-84500000D02*
X135700000Y-84500000D01*
X135600000Y-84500000D02*
X135600000Y-84500000D01*
X134846666Y-83746666D02*
X133962500Y-83746666D01*
D50*
%TO.N,+3V3*%
X116325000Y-79625000D02*
X115420000Y-80530000D01*
X115420000Y-80530000D02*
X115420000Y-81480000D01*
X115420000Y-81480000D02*
X114650000Y-82250000D01*
X114650000Y-82250000D02*
X114039168Y-82250000D01*
X114039168Y-82250000D02*
X113664168Y-82625000D01*
X113664168Y-82625000D02*
X112937500Y-82625000D01*
X110400000Y-83250000D02*
X103300000Y-83250000D01*
X103300000Y-83250000D02*
X103050000Y-83500000D01*
X112937500Y-82625000D02*
X111025000Y-82625000D01*
X111025000Y-82625000D02*
X110400000Y-83250000D01*
X119600000Y-74800000D02*
X117400000Y-74800000D01*
X117400000Y-74800000D02*
X117000000Y-75200000D01*
D51*
%TO.N,Net-(D1-K)*%
X129150000Y-79000000D02*
X131037500Y-79000000D01*
D49*
%TO.N,Net-(D4-K)*%
X122495000Y-70125000D02*
X121820000Y-70800000D01*
D50*
X119166771Y-68108229D02*
X119200000Y-68075000D01*
D49*
X121500000Y-67550000D02*
X122495000Y-68545000D01*
X121500000Y-67550000D02*
X119725000Y-67550000D01*
X122495000Y-68545000D02*
X122495000Y-70125000D01*
D50*
X117270756Y-68108229D02*
X119166771Y-68108229D01*
D49*
X119200000Y-70400000D02*
X119600000Y-70800000D01*
X119725000Y-67550000D02*
X119200000Y-68075000D01*
X119200000Y-68075000D02*
X119200000Y-70400000D01*
X121820000Y-70800000D02*
X119600000Y-70800000D01*
%TO.N,FEEDBACK*%
X136180000Y-69880000D02*
X136400000Y-70100000D01*
X136400000Y-70100000D02*
X136400000Y-70980000D01*
X136180000Y-68932500D02*
X136180000Y-69880000D01*
X136232500Y-71272500D02*
X136170000Y-71210000D01*
X136400000Y-70980000D02*
X136170000Y-71210000D01*
X140520000Y-71272500D02*
X136232500Y-71272500D01*
D51*
%TO.N,+3V3*%
X128780000Y-86120000D02*
X127700000Y-85040000D01*
X99000000Y-83000000D02*
X102550000Y-83000000D01*
D50*
X119600000Y-74800000D02*
X122220000Y-74800000D01*
D51*
X102550000Y-83000000D02*
X103050000Y-83500000D01*
X131037500Y-83746666D02*
X131037500Y-86120000D01*
D50*
X122495000Y-76362986D02*
X122495000Y-75075000D01*
X115600000Y-78900000D02*
X116325000Y-79625000D01*
X117050000Y-78900000D02*
X116325000Y-79625000D01*
X122800000Y-84140000D02*
X123065456Y-84140000D01*
X127325000Y-78025000D02*
X126375000Y-77075000D01*
X127325000Y-79880456D02*
X127325000Y-78025000D01*
X119400000Y-77600000D02*
X118100000Y-78900000D01*
X123065456Y-84140000D02*
X127325000Y-79880456D01*
X125066370Y-85040000D02*
X124166370Y-84140000D01*
X127700000Y-85040000D02*
X125066370Y-85040000D01*
X119600000Y-74800000D02*
X119600000Y-77550000D01*
X118100000Y-78900000D02*
X117050000Y-78900000D01*
X119600000Y-77550000D02*
X119550000Y-77600000D01*
X119550000Y-77600000D02*
X119400000Y-77600000D01*
X126375000Y-77075000D02*
X123207014Y-77075000D01*
X124166370Y-84140000D02*
X122800000Y-84140000D01*
D51*
X131037500Y-86120000D02*
X128780000Y-86120000D01*
D50*
X123207014Y-77075000D02*
X122495000Y-76362986D01*
X122220000Y-74800000D02*
X122495000Y-75075000D01*
D51*
%TO.N,LED*%
X123910000Y-77810000D02*
X124450000Y-78350000D01*
X118662500Y-80675000D02*
X121527500Y-77810000D01*
X121527500Y-77810000D02*
X123910000Y-77810000D01*
X125100000Y-79000000D02*
X126350000Y-79000000D01*
X125000000Y-78900000D02*
X125100000Y-79000000D01*
%TO.N,SWDCLK*%
X120535000Y-81325000D02*
X118662500Y-81325000D01*
X122800000Y-79060000D02*
X120535000Y-81325000D01*
%TO.N,SWDIO*%
X122425000Y-81975000D02*
X118662500Y-81975000D01*
X122800000Y-81600000D02*
X122425000Y-81975000D01*
%TO.N,ENABLE*%
X113734878Y-80675000D02*
X112937500Y-80675000D01*
X131037500Y-81373333D02*
X128826667Y-81373333D01*
X114300000Y-81240122D02*
X113734878Y-80675000D01*
X114300000Y-81500000D02*
X114300000Y-81240122D01*
X128826667Y-81373333D02*
X127700000Y-82500000D01*
%TO.N,Net-(Q3-G)*%
X133756250Y-47650000D02*
X133362500Y-47650000D01*
X134700000Y-48593750D02*
X133756250Y-47650000D01*
X134700000Y-49945000D02*
X134700000Y-48593750D01*
D49*
%TO.N,Net-(Q4-G)*%
X128900000Y-63755000D02*
X130537500Y-65392500D01*
X130537500Y-65392500D02*
X130537500Y-66050000D01*
%TO.N,LOW_SIDE_FET*%
X131007600Y-72225000D02*
X128405000Y-72225000D01*
X130537500Y-76000000D02*
X131425000Y-75112500D01*
X131425000Y-72642400D02*
X131007600Y-72225000D01*
X128405000Y-72225000D02*
X126305000Y-70125000D01*
X131425000Y-75112500D02*
X131425000Y-72642400D01*
%TO.N,HIGH_SIDE_FET*%
X133462500Y-66050000D02*
X133462500Y-68537500D01*
X132200000Y-68300000D02*
X133225000Y-68300000D01*
X133225000Y-68300000D02*
X133462500Y-68537500D01*
D50*
%TO.N,GATE_DRIVER_IN*%
X130350000Y-73700000D02*
X130537500Y-73512500D01*
D49*
X127843604Y-72300000D02*
X125100000Y-72300000D01*
X125100000Y-72300000D02*
X123765000Y-73635000D01*
X128218604Y-72675000D02*
X127843604Y-72300000D01*
X129700000Y-72675000D02*
X128218604Y-72675000D01*
X130537500Y-73512500D02*
X129700000Y-72675000D01*
X123765000Y-73635000D02*
X123765000Y-75075000D01*
D50*
X128600000Y-73700000D02*
X130350000Y-73700000D01*
D49*
%TO.N,GATE_DRIVER_SHUTDOWN*%
X133500000Y-71025000D02*
X131875000Y-72650000D01*
X129379900Y-76600000D02*
X125400000Y-76600000D01*
X131875000Y-76420100D02*
X131095100Y-77200000D01*
X129979900Y-77200000D02*
X129379900Y-76600000D01*
X125400000Y-76600000D02*
X125035000Y-76235000D01*
X131875000Y-72650000D02*
X131875000Y-76420100D01*
X131095100Y-77200000D02*
X129979900Y-77200000D01*
X125035000Y-76235000D02*
X125035000Y-75075000D01*
D50*
%TO.N,Net-(U1-PB0{slash}PB1{slash}PB2{slash}PA8)*%
X120747943Y-83925000D02*
X122302943Y-85480000D01*
X124280000Y-85480000D02*
X126145000Y-87345000D01*
X131655000Y-87345000D02*
X132150000Y-86850000D01*
X118662500Y-83925000D02*
X120747943Y-83925000D01*
X132150000Y-77312500D02*
X133462500Y-76000000D01*
X122302943Y-85480000D02*
X124280000Y-85480000D01*
X126145000Y-87345000D02*
X131655000Y-87345000D01*
X132150000Y-86850000D02*
X132150000Y-77312500D01*
D51*
%TO.N,Net-(U1-NRST)*%
X134925000Y-82784166D02*
X134925000Y-81740000D01*
X134925000Y-81740000D02*
X136190000Y-80475000D01*
X136190000Y-80475000D02*
X142490000Y-80475000D01*
X133962500Y-83746666D02*
X134925000Y-82784166D01*
D50*
%TO.N,MODE_SELECT*%
X132202500Y-87880000D02*
X133962500Y-86120000D01*
X144785000Y-86515000D02*
X144900000Y-86400000D01*
D51*
X133962500Y-86120000D02*
X135795000Y-86120000D01*
D50*
X112937500Y-86525000D02*
X115625000Y-86525000D01*
X142490000Y-86515000D02*
X144785000Y-86515000D01*
D51*
X135795000Y-86120000D02*
X136190000Y-86515000D01*
D50*
X115625000Y-86525000D02*
X116980000Y-87880000D01*
X142490000Y-86515000D02*
X136190000Y-86515000D01*
X116980000Y-87880000D02*
X132202500Y-87880000D01*
D49*
%TO.N,Net-(U1-PA7)*%
X130537500Y-68537500D02*
X130537500Y-70987500D01*
X130537500Y-70987500D02*
X130575000Y-71025000D01*
D50*
X130475000Y-68600000D02*
X130537500Y-68537500D01*
X128600000Y-68600000D02*
X130475000Y-68600000D01*
D49*
X130575000Y-71025000D02*
X129575000Y-71025000D01*
X129575000Y-71025000D02*
X129400000Y-71200000D01*
D51*
%TO.N,VUSB*%
X105800000Y-54512500D02*
X103312500Y-54512500D01*
%TO.N,BAT_P*%
X98912500Y-84500000D02*
X96100000Y-84500000D01*
X96100000Y-84500000D02*
X95900000Y-84300000D01*
X95900000Y-84300000D02*
X95900000Y-81500000D01*
X106450000Y-65375000D02*
X107598272Y-65375000D01*
X107598272Y-65375000D02*
X107687851Y-65285421D01*
%TO.N,Net-(J6-Pin_1)*%
X104700000Y-73712500D02*
X104912500Y-73500000D01*
X108428249Y-74628249D02*
X106040749Y-74628249D01*
X104000000Y-77000000D02*
X104700000Y-76300000D01*
X104912500Y-70487500D02*
X104912500Y-73500000D01*
X107862500Y-69325000D02*
X106075000Y-69325000D01*
X104700000Y-76300000D02*
X104700000Y-73712500D01*
X106040749Y-74628249D02*
X104912500Y-73500000D01*
D50*
X109000000Y-74056498D02*
X108428249Y-74628249D01*
X109000000Y-72100000D02*
X109000000Y-74056498D01*
D51*
X109000000Y-65200000D02*
X109000000Y-68334878D01*
X106450000Y-64425000D02*
X108225000Y-64425000D01*
X108225000Y-64425000D02*
X109000000Y-65200000D01*
X107862500Y-68675000D02*
X107862500Y-69325000D01*
X108659878Y-68675000D02*
X107862500Y-68675000D01*
X109000000Y-68334878D02*
X108659878Y-68675000D01*
X106075000Y-69325000D02*
X104912500Y-70487500D01*
D50*
%TO.N,Net-(D6-K)*%
X103312500Y-60087500D02*
X103312500Y-57487500D01*
%TO.N,Net-(D7-K)*%
X105800000Y-57487500D02*
X105800000Y-60087500D01*
%TO.N,CC1*%
X90836551Y-64593449D02*
X91100000Y-64330000D01*
X89485007Y-64593449D02*
X90836551Y-64593449D01*
X92410000Y-64290000D02*
X92700000Y-64000000D01*
X91140000Y-64290000D02*
X92410000Y-64290000D01*
%TO.N,CC2*%
X90896551Y-61643449D02*
X91020000Y-61520000D01*
X89485007Y-61643449D02*
X90896551Y-61643449D01*
X91100000Y-61600000D02*
X91020000Y-61520000D01*
X92700000Y-61600000D02*
X91100000Y-61600000D01*
%TO.N,Net-(U2-~{CHRG})*%
X101300000Y-62100000D02*
X103125000Y-62100000D01*
X103125000Y-62100000D02*
X103312500Y-61912500D01*
D51*
%TO.N,Net-(U5-VM)*%
X102700000Y-63600000D02*
X102700000Y-64100000D01*
X107112500Y-63200000D02*
X103100000Y-63200000D01*
X102700000Y-65000000D02*
X103075000Y-65375000D01*
D50*
X102600000Y-64200000D02*
X102700000Y-64100000D01*
D51*
X108400000Y-61912500D02*
X107112500Y-63200000D01*
X103100000Y-63200000D02*
X102700000Y-63600000D01*
D50*
X101400000Y-64200000D02*
X102600000Y-64200000D01*
D51*
X102700000Y-64100000D02*
X102700000Y-65000000D01*
X103075000Y-65375000D02*
X104175000Y-65375000D01*
D50*
%TO.N,Net-(U5-OD)*%
X104825000Y-63775000D02*
X104175000Y-64425000D01*
X108725000Y-63775000D02*
X104825000Y-63775000D01*
X110400000Y-62100000D02*
X108725000Y-63775000D01*
%TO.N,Net-(TP31-Pad1)*%
X107862500Y-71037500D02*
X107862500Y-69975000D01*
X107000000Y-71900000D02*
X107862500Y-71037500D01*
D51*
%TO.N,Net-(U5-OC)*%
X104175000Y-66325000D02*
X104175000Y-67425000D01*
D50*
X104150000Y-66300000D02*
X104175000Y-66325000D01*
D51*
X104175000Y-67425000D02*
X103575000Y-68025000D01*
D50*
X101900000Y-66300000D02*
X104150000Y-66300000D01*
D51*
X103575000Y-68025000D02*
X102137500Y-68025000D01*
%TD*%
%TA.AperFunction,Conductor*%
%TO.N,OUTPUT_VOLTAGE*%
G36*
X140815677Y-48319685D02*
G01*
X140836319Y-48336319D01*
X141463681Y-48963681D01*
X141497166Y-49025004D01*
X141500000Y-49051362D01*
X141500000Y-64600000D01*
X141900000Y-65000000D01*
X147148638Y-65000000D01*
X147215677Y-65019685D01*
X147236319Y-65036319D01*
X148600000Y-66400000D01*
X151709575Y-66400000D01*
X151776614Y-66419685D01*
X151822369Y-66472489D01*
X151832313Y-66541647D01*
X151803288Y-66605203D01*
X151775547Y-66628993D01*
X151757743Y-66640179D01*
X151757737Y-66640184D01*
X151630184Y-66767737D01*
X151534211Y-66920476D01*
X151474631Y-67090745D01*
X151474630Y-67090750D01*
X151454435Y-67269996D01*
X151454435Y-67270003D01*
X151474630Y-67449249D01*
X151474631Y-67449254D01*
X151534211Y-67619523D01*
X151550534Y-67645500D01*
X151630184Y-67772262D01*
X151757738Y-67899816D01*
X151910478Y-67995789D01*
X152080745Y-68055368D01*
X152080750Y-68055369D01*
X152171246Y-68065565D01*
X152215040Y-68070499D01*
X152215043Y-68070500D01*
X152215046Y-68070500D01*
X152304957Y-68070500D01*
X152304958Y-68070499D01*
X152372104Y-68062934D01*
X152439249Y-68055369D01*
X152439252Y-68055368D01*
X152439255Y-68055368D01*
X152609522Y-67995789D01*
X152762262Y-67899816D01*
X152887819Y-67774259D01*
X152949142Y-67740774D01*
X153018834Y-67745758D01*
X153074767Y-67787630D01*
X153099184Y-67853094D01*
X153099500Y-67861940D01*
X153099500Y-80076000D01*
X153079815Y-80143039D01*
X153027011Y-80188794D01*
X152975500Y-80200000D01*
X148251362Y-80200000D01*
X148184323Y-80180315D01*
X148163681Y-80163681D01*
X147336319Y-79336319D01*
X147302834Y-79274996D01*
X147300000Y-79248638D01*
X147300000Y-70000000D01*
X145200000Y-67900000D01*
X135251362Y-67900000D01*
X135184323Y-67880315D01*
X135163681Y-67863681D01*
X134636319Y-67336319D01*
X134602834Y-67274996D01*
X134600000Y-67248638D01*
X134600000Y-64700000D01*
X134400000Y-64500000D01*
X131051362Y-64500000D01*
X130984323Y-64480315D01*
X130963681Y-64463681D01*
X130736319Y-64236319D01*
X130702834Y-64174996D01*
X130700000Y-64148638D01*
X130700000Y-59851362D01*
X130719685Y-59784323D01*
X130736319Y-59763681D01*
X132700000Y-57800000D01*
X132700000Y-56051362D01*
X132719685Y-55984323D01*
X132736319Y-55963681D01*
X132963681Y-55736319D01*
X133025004Y-55702834D01*
X133051362Y-55700000D01*
X137000000Y-55700000D01*
X137700000Y-55000000D01*
X137700000Y-49051362D01*
X137719685Y-48984323D01*
X137736319Y-48963681D01*
X138363681Y-48336319D01*
X138425004Y-48302834D01*
X138451362Y-48300000D01*
X140748638Y-48300000D01*
X140815677Y-48319685D01*
G37*
%TD.AperFunction*%
%TD*%
%TA.AperFunction,Conductor*%
%TO.N,BAT_P*%
G36*
X97515677Y-47019685D02*
G01*
X97536319Y-47036319D01*
X97713681Y-47213681D01*
X97747166Y-47275004D01*
X97750000Y-47301362D01*
X97750000Y-78250000D01*
X97907142Y-78549999D01*
X97907143Y-78550000D01*
X98028579Y-78550000D01*
X98095618Y-78569685D01*
X98124432Y-78595335D01*
X98250748Y-78749252D01*
X98411317Y-78881027D01*
X98411320Y-78881028D01*
X98411322Y-78881030D01*
X98594503Y-78978943D01*
X98594505Y-78978943D01*
X98594508Y-78978945D01*
X98793282Y-79039242D01*
X99000000Y-79059602D01*
X99206718Y-79039242D01*
X99405492Y-78978945D01*
X99588683Y-78881027D01*
X99749252Y-78749252D01*
X99875567Y-78595335D01*
X99933313Y-78556001D01*
X99971421Y-78550000D01*
X106615671Y-78550000D01*
X109057835Y-75575000D01*
X111500000Y-72600002D01*
X111500000Y-71086369D01*
X111508058Y-71042397D01*
X111524138Y-71000000D01*
X111540149Y-70957782D01*
X111559307Y-70800000D01*
X111540149Y-70642218D01*
X111539025Y-70639255D01*
X111508058Y-70557601D01*
X111500000Y-70513630D01*
X111500000Y-54051362D01*
X111519685Y-53984323D01*
X111536319Y-53963681D01*
X114963681Y-50536319D01*
X115025004Y-50502834D01*
X115051362Y-50500000D01*
X118448638Y-50500000D01*
X118515677Y-50519685D01*
X118536319Y-50536319D01*
X119963681Y-51963681D01*
X119997166Y-52025004D01*
X120000000Y-52051362D01*
X120000000Y-59448638D01*
X119980315Y-59515677D01*
X119963681Y-59536319D01*
X116000000Y-63499999D01*
X116000000Y-72956503D01*
X115980315Y-73023542D01*
X115972828Y-73033965D01*
X108837230Y-81953462D01*
X108779979Y-81993514D01*
X108740402Y-82000000D01*
X90628402Y-82000000D01*
X90576336Y-81988539D01*
X90258480Y-81841482D01*
X90258475Y-81841481D01*
X90258472Y-81841480D01*
X90258470Y-81841479D01*
X90053599Y-81772450D01*
X89909598Y-81723930D01*
X89550057Y-81644789D01*
X89184073Y-81604986D01*
X89184072Y-81604986D01*
X88815928Y-81604986D01*
X88815926Y-81604986D01*
X88449942Y-81644789D01*
X88090401Y-81723930D01*
X87741524Y-81841481D01*
X87741519Y-81841482D01*
X87423664Y-81988539D01*
X87371598Y-82000000D01*
X85624500Y-82000000D01*
X85557461Y-81980315D01*
X85511706Y-81927511D01*
X85500500Y-81876000D01*
X85500500Y-73407496D01*
X85520185Y-73340457D01*
X85572989Y-73294702D01*
X85642147Y-73284758D01*
X85705703Y-73313783D01*
X85729164Y-73344469D01*
X85730506Y-73343626D01*
X85789303Y-73437201D01*
X85830184Y-73502262D01*
X85957738Y-73629816D01*
X86002246Y-73657782D01*
X86108808Y-73724740D01*
X86110478Y-73725789D01*
X86184656Y-73751745D01*
X86280745Y-73785368D01*
X86280750Y-73785369D01*
X86371246Y-73795565D01*
X86415040Y-73800499D01*
X86415043Y-73800500D01*
X86415046Y-73800500D01*
X86504957Y-73800500D01*
X86504958Y-73800499D01*
X86572104Y-73792934D01*
X86639249Y-73785369D01*
X86639252Y-73785368D01*
X86639255Y-73785368D01*
X86809522Y-73725789D01*
X86962262Y-73629816D01*
X87089816Y-73502262D01*
X87185789Y-73349522D01*
X87245368Y-73179255D01*
X87245369Y-73179249D01*
X87265565Y-73000003D01*
X87265565Y-72999996D01*
X87245369Y-72820750D01*
X87245367Y-72820742D01*
X87190855Y-72664954D01*
X87187294Y-72595176D01*
X87222023Y-72534548D01*
X87284016Y-72502321D01*
X87307897Y-72500000D01*
X94500000Y-72500000D01*
X96000000Y-71000000D01*
X96000000Y-47551362D01*
X96019685Y-47484323D01*
X96036319Y-47463681D01*
X96463681Y-47036319D01*
X96525004Y-47002834D01*
X96551362Y-47000000D01*
X97448638Y-47000000D01*
X97515677Y-47019685D01*
G37*
%TD.AperFunction*%
%TD*%
%TA.AperFunction,Conductor*%
%TO.N,BOOST_SWITCH_NODE*%
G36*
X132433883Y-49019685D02*
G01*
X132454525Y-49036319D01*
X132934181Y-49515975D01*
X132967666Y-49577298D01*
X132970500Y-49603656D01*
X132970500Y-54171443D01*
X132950815Y-54238482D01*
X132934181Y-54259124D01*
X131993577Y-55199727D01*
X131973727Y-55215848D01*
X131964419Y-55221929D01*
X131944715Y-55247245D01*
X131934569Y-55258737D01*
X131934425Y-55258880D01*
X131934417Y-55258890D01*
X131922186Y-55276018D01*
X131919131Y-55280114D01*
X131886625Y-55321880D01*
X131882849Y-55328857D01*
X131879345Y-55336023D01*
X131864247Y-55386739D01*
X131862683Y-55391620D01*
X131845499Y-55441672D01*
X131844195Y-55449487D01*
X131843207Y-55457413D01*
X131845394Y-55510261D01*
X131845500Y-55515386D01*
X131845500Y-57136443D01*
X131825815Y-57203482D01*
X131809181Y-57224124D01*
X130018577Y-59014727D01*
X129998727Y-59030848D01*
X129989419Y-59036929D01*
X129969715Y-59062245D01*
X129959569Y-59073737D01*
X129959425Y-59073880D01*
X129959417Y-59073890D01*
X129947186Y-59091018D01*
X129944131Y-59095114D01*
X129911625Y-59136880D01*
X129907849Y-59143857D01*
X129904345Y-59151023D01*
X129889247Y-59201739D01*
X129887683Y-59206620D01*
X129870499Y-59256672D01*
X129869195Y-59264487D01*
X129868207Y-59272413D01*
X129870394Y-59325261D01*
X129870500Y-59330386D01*
X129870500Y-61991444D01*
X129850815Y-62058483D01*
X129834181Y-62079125D01*
X129149125Y-62764181D01*
X129087802Y-62797666D01*
X129061444Y-62800500D01*
X128072220Y-62800500D01*
X128046775Y-62797861D01*
X128035901Y-62795581D01*
X128035898Y-62795581D01*
X128004076Y-62799548D01*
X127988738Y-62800500D01*
X127988557Y-62800500D01*
X127979006Y-62802093D01*
X127967784Y-62803965D01*
X127962725Y-62804701D01*
X127910222Y-62811246D01*
X127902608Y-62813513D01*
X127895070Y-62816101D01*
X127848548Y-62841277D01*
X127843995Y-62843621D01*
X127796432Y-62866873D01*
X127789969Y-62871487D01*
X127783684Y-62876379D01*
X127747845Y-62915310D01*
X127744299Y-62919005D01*
X126268577Y-64394727D01*
X126248727Y-64410848D01*
X126239419Y-64416929D01*
X126219715Y-64442245D01*
X126209569Y-64453737D01*
X126209425Y-64453880D01*
X126209417Y-64453890D01*
X126197186Y-64471018D01*
X126194131Y-64475114D01*
X126161625Y-64516880D01*
X126157849Y-64523857D01*
X126154345Y-64531023D01*
X126139247Y-64581739D01*
X126137683Y-64586620D01*
X126120499Y-64636672D01*
X126119195Y-64644487D01*
X126118207Y-64652413D01*
X126120394Y-64705261D01*
X126120500Y-64710386D01*
X126120500Y-64828137D01*
X126100815Y-64895176D01*
X126084181Y-64915818D01*
X125274862Y-65725136D01*
X125244812Y-65747249D01*
X125225472Y-65757400D01*
X125225466Y-65757404D01*
X125106506Y-65862794D01*
X125106501Y-65862799D01*
X125044488Y-65952639D01*
X125030120Y-65969878D01*
X124536319Y-66463681D01*
X124474996Y-66497166D01*
X124448638Y-66500000D01*
X118551362Y-66500000D01*
X118484323Y-66480315D01*
X118463681Y-66463681D01*
X117536319Y-65536319D01*
X117502834Y-65474996D01*
X117500000Y-65448638D01*
X117500000Y-64551362D01*
X117519685Y-64484323D01*
X117536319Y-64463681D01*
X119500000Y-62500000D01*
X122000000Y-60000000D01*
X122000000Y-52051362D01*
X122019685Y-51984323D01*
X122036319Y-51963681D01*
X124963681Y-49036319D01*
X125025004Y-49002834D01*
X125051362Y-49000000D01*
X132366844Y-49000000D01*
X132433883Y-49019685D01*
G37*
%TD.AperFunction*%
%TD*%
%TA.AperFunction,Conductor*%
%TO.N,BAT_N*%
G36*
X119126006Y-78548552D02*
G01*
X119191658Y-78573040D01*
X119251745Y-78579500D01*
X119815877Y-78579499D01*
X119882916Y-78599183D01*
X119928671Y-78651987D01*
X119938615Y-78721146D01*
X119909590Y-78784702D01*
X119903558Y-78791180D01*
X118510558Y-80184181D01*
X118449235Y-80217666D01*
X118422877Y-80220500D01*
X117991354Y-80220500D01*
X117922450Y-80230539D01*
X117922448Y-80230539D01*
X117922446Y-80230540D01*
X117816160Y-80282499D01*
X117732499Y-80366160D01*
X117680540Y-80472446D01*
X117680539Y-80472448D01*
X117680539Y-80472450D01*
X117670500Y-80541354D01*
X117670500Y-80808646D01*
X117676644Y-80850815D01*
X117680539Y-80877551D01*
X117713777Y-80945540D01*
X117725535Y-81014413D01*
X117713777Y-81054460D01*
X117680539Y-81122448D01*
X117680539Y-81122450D01*
X117670500Y-81191354D01*
X117670500Y-81458646D01*
X117676644Y-81500815D01*
X117680539Y-81527551D01*
X117713777Y-81595540D01*
X117725535Y-81664413D01*
X117713777Y-81704460D01*
X117680539Y-81772448D01*
X117680539Y-81772450D01*
X117670500Y-81841354D01*
X117670500Y-82108646D01*
X117671510Y-82115575D01*
X117680539Y-82177551D01*
X117713777Y-82245540D01*
X117725535Y-82314413D01*
X117713777Y-82354460D01*
X117680539Y-82422448D01*
X117680539Y-82422450D01*
X117670500Y-82491354D01*
X117670500Y-82758646D01*
X117675119Y-82790348D01*
X117680539Y-82827551D01*
X117713777Y-82895540D01*
X117725535Y-82964413D01*
X117713777Y-83004460D01*
X117680539Y-83072448D01*
X117680442Y-83073113D01*
X117670500Y-83141354D01*
X117670500Y-83408646D01*
X117677181Y-83454500D01*
X117680539Y-83477551D01*
X117713777Y-83545540D01*
X117725535Y-83614413D01*
X117713778Y-83654456D01*
X117712072Y-83657946D01*
X117664946Y-83709530D01*
X117597413Y-83727447D01*
X117530914Y-83706009D01*
X117518443Y-83696305D01*
X117474530Y-83657401D01*
X117333791Y-83583536D01*
X117179472Y-83545500D01*
X117179471Y-83545500D01*
X117166983Y-83545500D01*
X117099944Y-83525815D01*
X117093352Y-83521272D01*
X117089774Y-83518631D01*
X117082164Y-83514609D01*
X117074430Y-83510885D01*
X117074429Y-83510884D01*
X117074428Y-83510884D01*
X117019294Y-83493877D01*
X117014890Y-83492428D01*
X116960449Y-83473378D01*
X116952031Y-83471784D01*
X116943506Y-83470500D01*
X116943505Y-83470500D01*
X116885821Y-83470500D01*
X116881184Y-83470413D01*
X116879405Y-83470346D01*
X116823538Y-83468255D01*
X116814305Y-83469296D01*
X116814212Y-83468475D01*
X116798838Y-83470500D01*
X113608646Y-83470500D01*
X112266354Y-83470500D01*
X112197450Y-83480539D01*
X112197448Y-83480539D01*
X112197446Y-83480540D01*
X112091160Y-83532499D01*
X112007499Y-83616160D01*
X111955540Y-83722446D01*
X111955539Y-83722448D01*
X111955539Y-83722450D01*
X111945500Y-83791354D01*
X111945500Y-84058646D01*
X111950911Y-84095784D01*
X111955539Y-84127551D01*
X111988777Y-84195540D01*
X112000535Y-84264413D01*
X111988777Y-84304460D01*
X111955539Y-84372448D01*
X111955539Y-84372450D01*
X111945500Y-84441354D01*
X111945500Y-84708646D01*
X111950447Y-84742598D01*
X111955539Y-84777551D01*
X111988777Y-84845540D01*
X112000535Y-84914413D01*
X111988777Y-84954460D01*
X111955539Y-85022448D01*
X111955539Y-85022450D01*
X111945500Y-85091354D01*
X111945500Y-85358646D01*
X111949582Y-85386662D01*
X111955539Y-85427551D01*
X111988777Y-85495540D01*
X112000535Y-85564413D01*
X111988777Y-85604460D01*
X111955539Y-85672448D01*
X111952670Y-85692136D01*
X111945500Y-85741354D01*
X111945500Y-86008646D01*
X111951885Y-86052472D01*
X111955539Y-86077551D01*
X111988777Y-86145540D01*
X112000535Y-86214413D01*
X111988777Y-86254460D01*
X111955539Y-86322448D01*
X111955539Y-86322450D01*
X111945500Y-86391354D01*
X111945500Y-86658646D01*
X111955539Y-86727550D01*
X111955539Y-86727551D01*
X111955540Y-86727553D01*
X112007499Y-86833839D01*
X112091160Y-86917500D01*
X112190000Y-86965819D01*
X112197450Y-86969461D01*
X112266354Y-86979500D01*
X112266360Y-86979500D01*
X113608640Y-86979500D01*
X113608646Y-86979500D01*
X113677550Y-86969461D01*
X113733520Y-86942098D01*
X113787980Y-86929500D01*
X115406088Y-86929500D01*
X115473127Y-86949185D01*
X115493769Y-86965819D01*
X116648674Y-88120723D01*
X116739277Y-88211326D01*
X116759304Y-88221530D01*
X116775880Y-88231687D01*
X116794071Y-88244904D01*
X116794072Y-88244904D01*
X116794073Y-88244905D01*
X116815437Y-88251846D01*
X116833413Y-88259291D01*
X116844647Y-88265015D01*
X116895443Y-88312990D01*
X116912238Y-88380811D01*
X116889700Y-88446946D01*
X116834985Y-88490397D01*
X116788352Y-88499500D01*
X90002847Y-88499500D01*
X89935808Y-88479815D01*
X89890053Y-88427011D01*
X89880109Y-88357853D01*
X89909134Y-88294297D01*
X89963253Y-88257991D01*
X89979739Y-88252436D01*
X90258470Y-88158521D01*
X90592589Y-88003941D01*
X90711934Y-87932133D01*
X90908021Y-87814153D01*
X90908026Y-87814149D01*
X90908025Y-87814149D01*
X90908036Y-87814143D01*
X91201113Y-87591351D01*
X91468385Y-87338178D01*
X91706716Y-87057592D01*
X91913314Y-86752883D01*
X92085756Y-86427623D01*
X92222021Y-86085625D01*
X92320510Y-85730899D01*
X92350167Y-85550000D01*
X92380067Y-85367619D01*
X92380067Y-85367616D01*
X92380069Y-85367605D01*
X92398299Y-85031361D01*
X92400000Y-85000002D01*
X92400000Y-84999997D01*
X92395454Y-84916160D01*
X92380069Y-84632395D01*
X92377370Y-84615933D01*
X92320512Y-84269113D01*
X92320511Y-84269112D01*
X92320510Y-84269101D01*
X92247044Y-84004499D01*
X92222024Y-83914385D01*
X92222022Y-83914378D01*
X92209733Y-83883536D01*
X92155658Y-83747816D01*
X92085760Y-83572386D01*
X92085751Y-83572368D01*
X91913314Y-83247117D01*
X91706716Y-82942408D01*
X91706712Y-82942403D01*
X91706709Y-82942399D01*
X91468392Y-82661830D01*
X91468387Y-82661824D01*
X91453324Y-82647556D01*
X91322150Y-82523301D01*
X91269600Y-82473523D01*
X91234467Y-82413129D01*
X91237562Y-82343328D01*
X91277904Y-82286281D01*
X91342683Y-82260101D01*
X91354875Y-82259500D01*
X95321500Y-82259500D01*
X95388539Y-82279185D01*
X95434294Y-82331989D01*
X95445500Y-82383500D01*
X95445500Y-83250014D01*
X95425815Y-83317053D01*
X95373011Y-83362808D01*
X95321500Y-83374014D01*
X95049995Y-83374014D01*
X94950701Y-83393764D01*
X94950700Y-83393765D01*
X94866515Y-83450015D01*
X94810265Y-83534200D01*
X94810264Y-83534201D01*
X94790514Y-83633495D01*
X94790514Y-85366504D01*
X94810264Y-85465798D01*
X94810265Y-85465799D01*
X94810265Y-85465800D01*
X94810266Y-85465801D01*
X94823173Y-85485117D01*
X94866515Y-85549984D01*
X94892411Y-85567287D01*
X94950699Y-85606234D01*
X94950700Y-85606234D01*
X94950701Y-85606235D01*
X95049995Y-85625985D01*
X95049999Y-85625986D01*
X95050000Y-85625986D01*
X98175001Y-85625986D01*
X98175002Y-85625985D01*
X98208398Y-85619342D01*
X98274298Y-85606235D01*
X98274298Y-85606234D01*
X98274301Y-85606234D01*
X98358484Y-85549984D01*
X98414734Y-85465801D01*
X98415056Y-85464185D01*
X98427842Y-85399898D01*
X98434486Y-85366500D01*
X98434486Y-85333486D01*
X98454171Y-85266447D01*
X98506975Y-85220692D01*
X98558486Y-85209486D01*
X99650001Y-85209486D01*
X99650002Y-85209485D01*
X99693462Y-85200841D01*
X99749298Y-85189735D01*
X99749298Y-85189734D01*
X99749301Y-85189734D01*
X99833484Y-85133484D01*
X99889734Y-85049301D01*
X99890061Y-85047660D01*
X99908591Y-84954500D01*
X99909486Y-84950000D01*
X99909486Y-84050000D01*
X99906866Y-84036826D01*
X99889735Y-83950701D01*
X99889734Y-83950700D01*
X99889734Y-83950699D01*
X99861609Y-83908607D01*
X99833484Y-83866515D01*
X99739146Y-83803481D01*
X99740465Y-83801506D01*
X99699081Y-83768155D01*
X99677019Y-83701860D01*
X99694301Y-83634161D01*
X99726626Y-83598174D01*
X99767544Y-83567544D01*
X99814971Y-83504188D01*
X99870905Y-83462318D01*
X99914238Y-83454500D01*
X101871500Y-83454500D01*
X101938539Y-83474185D01*
X101984294Y-83526989D01*
X101995500Y-83578500D01*
X101995500Y-84325063D01*
X102010266Y-84399301D01*
X102066515Y-84483484D01*
X102100234Y-84506014D01*
X102150699Y-84539734D01*
X102150702Y-84539734D01*
X102150703Y-84539735D01*
X102174659Y-84544500D01*
X102224933Y-84554500D01*
X103875066Y-84554499D01*
X103949301Y-84539734D01*
X104033484Y-84483484D01*
X104089734Y-84399301D01*
X104104500Y-84325067D01*
X104104500Y-83778500D01*
X104124185Y-83711461D01*
X104176989Y-83665706D01*
X104228500Y-83654500D01*
X107358082Y-83654500D01*
X107425121Y-83674185D01*
X107470876Y-83726989D01*
X107474259Y-83735156D01*
X107477658Y-83744267D01*
X107489962Y-83760703D01*
X107564595Y-83860404D01*
X107595497Y-83883536D01*
X107680733Y-83947342D01*
X107816658Y-83998040D01*
X107876745Y-84004500D01*
X108923254Y-84004499D01*
X108983342Y-83998040D01*
X109119267Y-83947342D01*
X109235404Y-83860404D01*
X109275157Y-83807300D01*
X109300732Y-83773135D01*
X109356665Y-83731263D01*
X109426357Y-83726278D01*
X109487680Y-83759762D01*
X109499268Y-83773135D01*
X109564595Y-83860404D01*
X109595497Y-83883536D01*
X109680733Y-83947342D01*
X109816658Y-83998040D01*
X109876745Y-84004500D01*
X110923254Y-84004499D01*
X110983342Y-83998040D01*
X111119267Y-83947342D01*
X111235404Y-83860404D01*
X111322342Y-83744267D01*
X111373040Y-83608342D01*
X111376908Y-83572368D01*
X111379499Y-83548271D01*
X111379499Y-83548264D01*
X111379500Y-83548255D01*
X111379499Y-83153499D01*
X111399183Y-83086461D01*
X111451987Y-83040706D01*
X111503499Y-83029500D01*
X112087020Y-83029500D01*
X112141479Y-83042098D01*
X112197450Y-83069461D01*
X112266354Y-83079500D01*
X112266360Y-83079500D01*
X113608640Y-83079500D01*
X113608646Y-83079500D01*
X113677550Y-83069461D01*
X113780660Y-83019053D01*
X113786102Y-83016852D01*
X113790720Y-83014498D01*
X113790723Y-83014498D01*
X113810746Y-83004294D01*
X113828716Y-82996851D01*
X113850097Y-82989905D01*
X113868284Y-82976689D01*
X113884862Y-82966530D01*
X113904891Y-82956326D01*
X113920608Y-82940608D01*
X113920615Y-82940603D01*
X114170399Y-82690819D01*
X114231722Y-82657334D01*
X114258080Y-82654500D01*
X114714063Y-82654500D01*
X114714066Y-82654500D01*
X114735439Y-82647555D01*
X114754356Y-82643013D01*
X114776555Y-82639498D01*
X114796578Y-82629294D01*
X114814548Y-82621851D01*
X114835929Y-82614905D01*
X114854116Y-82601689D01*
X114870694Y-82591530D01*
X114890723Y-82581326D01*
X114906440Y-82565608D01*
X114906447Y-82565603D01*
X115728534Y-81743515D01*
X115751326Y-81720723D01*
X115761535Y-81700686D01*
X115771690Y-81684115D01*
X115784904Y-81665929D01*
X115791848Y-81644553D01*
X115799294Y-81626579D01*
X115809498Y-81606555D01*
X115813014Y-81584350D01*
X115817557Y-81565429D01*
X115822342Y-81550703D01*
X115824499Y-81544066D01*
X115824499Y-81516969D01*
X115824500Y-81516944D01*
X115824500Y-80748911D01*
X115844185Y-80681872D01*
X115860815Y-80661234D01*
X116581618Y-79940430D01*
X116596405Y-79927801D01*
X116614590Y-79914590D01*
X116627801Y-79896405D01*
X116640430Y-79881618D01*
X117181231Y-79340819D01*
X117242554Y-79307334D01*
X117268912Y-79304500D01*
X118164063Y-79304500D01*
X118164066Y-79304500D01*
X118185439Y-79297555D01*
X118204356Y-79293013D01*
X118226555Y-79289498D01*
X118246578Y-79279294D01*
X118264548Y-79271851D01*
X118285929Y-79264905D01*
X118304116Y-79251689D01*
X118320694Y-79241530D01*
X118340723Y-79231326D01*
X118356440Y-79215608D01*
X118356447Y-79215603D01*
X118503099Y-79068951D01*
X118994996Y-78577052D01*
X119056317Y-78543569D01*
X119126006Y-78548552D01*
G37*
%TD.AperFunction*%
%TA.AperFunction,Conductor*%
G36*
X134275928Y-67020760D02*
G01*
X134325333Y-67070166D01*
X134340500Y-67129592D01*
X134340500Y-67248639D01*
X134341986Y-67276361D01*
X134341990Y-67276415D01*
X134344820Y-67302737D01*
X134344821Y-67302739D01*
X134364368Y-67365163D01*
X134375076Y-67399361D01*
X134375078Y-67399365D01*
X134375079Y-67399367D01*
X134408562Y-67460687D01*
X134452816Y-67519802D01*
X134452834Y-67519823D01*
X134732092Y-67799080D01*
X134980187Y-68047175D01*
X135000855Y-68065740D01*
X135021497Y-68082374D01*
X135021503Y-68082377D01*
X135021506Y-68082379D01*
X135112108Y-68129773D01*
X135162387Y-68178289D01*
X135178455Y-68246286D01*
X135155210Y-68312175D01*
X135153902Y-68313956D01*
X135107659Y-68375730D01*
X135107659Y-68375731D01*
X135107658Y-68375733D01*
X135056960Y-68511658D01*
X135056959Y-68511662D01*
X135050500Y-68571728D01*
X135050500Y-69293251D01*
X135050501Y-69293257D01*
X135056960Y-69353344D01*
X135107655Y-69489261D01*
X135107656Y-69489264D01*
X135107658Y-69489267D01*
X135132838Y-69522904D01*
X135194595Y-69605404D01*
X135248656Y-69645872D01*
X135310733Y-69692342D01*
X135446658Y-69743040D01*
X135506745Y-69749500D01*
X135553294Y-69749499D01*
X135620331Y-69769182D01*
X135666087Y-69821985D01*
X135676032Y-69891144D01*
X135669236Y-69917469D01*
X135659851Y-69942213D01*
X135659851Y-69942216D01*
X135640693Y-70099999D01*
X135640693Y-70100000D01*
X135659398Y-70254054D01*
X135647937Y-70322977D01*
X135601033Y-70374763D01*
X135536305Y-70393000D01*
X135496749Y-70393000D01*
X135496741Y-70393001D01*
X135436655Y-70399460D01*
X135300738Y-70450155D01*
X135300730Y-70450160D01*
X135184595Y-70537095D01*
X135100362Y-70649621D01*
X135097658Y-70653233D01*
X135046960Y-70789158D01*
X135046959Y-70789162D01*
X135040500Y-70849228D01*
X135040500Y-71570751D01*
X135040501Y-71570757D01*
X135046960Y-71630844D01*
X135097655Y-71766761D01*
X135097656Y-71766764D01*
X135097658Y-71766767D01*
X135100500Y-71770563D01*
X135184595Y-71882904D01*
X135233547Y-71919548D01*
X135300733Y-71969842D01*
X135436658Y-72020540D01*
X135496745Y-72027000D01*
X136843254Y-72026999D01*
X136903342Y-72020540D01*
X137039267Y-71969842D01*
X137155404Y-71882904D01*
X137214447Y-71804029D01*
X137270378Y-71762159D01*
X137340070Y-71757173D01*
X137401394Y-71790657D01*
X137412982Y-71804031D01*
X137434595Y-71832904D01*
X137492443Y-71876207D01*
X137550733Y-71919842D01*
X137686658Y-71970540D01*
X137746745Y-71977000D01*
X138793254Y-71976999D01*
X138853342Y-71970540D01*
X138989267Y-71919842D01*
X139105404Y-71832904D01*
X139192342Y-71716767D01*
X139192342Y-71716766D01*
X139197656Y-71709668D01*
X139200277Y-71711630D01*
X139238360Y-71673530D01*
X139306630Y-71658662D01*
X139372100Y-71683063D01*
X139413984Y-71738987D01*
X139413994Y-71739013D01*
X139447656Y-71829263D01*
X139447657Y-71829264D01*
X139447658Y-71829267D01*
X139461872Y-71848255D01*
X139534595Y-71945404D01*
X139568174Y-71970540D01*
X139650733Y-72032342D01*
X139786658Y-72083040D01*
X139846745Y-72089500D01*
X141193254Y-72089499D01*
X141253342Y-72083040D01*
X141389267Y-72032342D01*
X141505404Y-71945404D01*
X141592342Y-71829267D01*
X141643040Y-71693342D01*
X141645800Y-71667664D01*
X141649499Y-71633271D01*
X141649499Y-71633264D01*
X141649500Y-71633255D01*
X141649499Y-70911746D01*
X141643040Y-70851658D01*
X141619730Y-70789162D01*
X141592344Y-70715738D01*
X141592342Y-70715734D01*
X141592342Y-70715733D01*
X141539767Y-70645500D01*
X141505404Y-70599595D01*
X141405968Y-70525160D01*
X141389267Y-70512658D01*
X141253342Y-70461960D01*
X141253338Y-70461959D01*
X141193262Y-70455500D01*
X139846748Y-70455500D01*
X139846742Y-70455501D01*
X139786655Y-70461960D01*
X139650738Y-70512655D01*
X139650730Y-70512660D01*
X139534595Y-70599595D01*
X139447660Y-70715730D01*
X139447657Y-70715734D01*
X139433849Y-70752755D01*
X139391976Y-70808688D01*
X139326511Y-70833103D01*
X139258239Y-70818250D01*
X139208834Y-70768843D01*
X139201488Y-70752755D01*
X139192342Y-70728233D01*
X139141326Y-70660083D01*
X139105404Y-70612095D01*
X139007710Y-70538964D01*
X138989267Y-70525158D01*
X138853342Y-70474460D01*
X138853338Y-70474459D01*
X138793262Y-70468000D01*
X137746748Y-70468000D01*
X137746742Y-70468001D01*
X137686655Y-70474460D01*
X137550738Y-70525155D01*
X137550730Y-70525160D01*
X137434594Y-70612096D01*
X137434593Y-70612097D01*
X137422337Y-70628470D01*
X137366404Y-70670341D01*
X137296712Y-70675325D01*
X137235389Y-70641839D01*
X137223803Y-70628468D01*
X137211547Y-70612096D01*
X137175293Y-70563665D01*
X137155404Y-70537095D01*
X137071730Y-70474459D01*
X137039267Y-70450158D01*
X137005333Y-70437501D01*
X136949402Y-70395632D01*
X136924985Y-70330167D01*
X136932729Y-70277346D01*
X136940147Y-70257786D01*
X136940149Y-70257782D01*
X136959307Y-70100000D01*
X136940149Y-69942218D01*
X136914861Y-69875541D01*
X136909495Y-69805881D01*
X136942642Y-69744375D01*
X136987467Y-69715392D01*
X137049267Y-69692342D01*
X137165404Y-69605404D01*
X137252342Y-69489267D01*
X137303040Y-69353342D01*
X137307716Y-69309851D01*
X137309499Y-69293271D01*
X137309499Y-69293264D01*
X137309500Y-69293255D01*
X137309499Y-68571746D01*
X137303040Y-68511658D01*
X137292841Y-68484313D01*
X137252344Y-68375738D01*
X137252343Y-68375737D01*
X137252342Y-68375733D01*
X137238924Y-68357809D01*
X137214508Y-68292346D01*
X137229360Y-68224073D01*
X137278765Y-68174668D01*
X137338192Y-68159500D01*
X145041150Y-68159500D01*
X145108189Y-68179185D01*
X145128831Y-68195819D01*
X147004181Y-70071169D01*
X147037666Y-70132492D01*
X147040500Y-70158850D01*
X147040500Y-79248639D01*
X147041986Y-79276361D01*
X147041990Y-79276415D01*
X147044820Y-79302737D01*
X147044821Y-79302739D01*
X147046260Y-79307334D01*
X147075076Y-79399361D01*
X147075078Y-79399365D01*
X147075079Y-79399367D01*
X147108562Y-79460687D01*
X147152816Y-79519802D01*
X147152834Y-79519823D01*
X147566546Y-79933534D01*
X147980187Y-80347175D01*
X148000855Y-80365740D01*
X148021497Y-80382374D01*
X148021503Y-80382377D01*
X148021506Y-80382379D01*
X148111207Y-80429301D01*
X148111212Y-80429304D01*
X148155688Y-80442363D01*
X148178250Y-80448988D01*
X148178254Y-80448988D01*
X148178256Y-80448989D01*
X148190069Y-80450687D01*
X148251362Y-80459500D01*
X148251363Y-80459500D01*
X152975500Y-80459500D01*
X153042539Y-80479185D01*
X153088294Y-80531989D01*
X153099500Y-80583500D01*
X153099500Y-83713587D01*
X153079815Y-83780626D01*
X153027011Y-83826381D01*
X152957853Y-83836325D01*
X152894297Y-83807300D01*
X152860307Y-83759484D01*
X152785760Y-83572387D01*
X152785759Y-83572386D01*
X152785756Y-83572377D01*
X152613314Y-83247117D01*
X152406716Y-82942408D01*
X152406712Y-82942403D01*
X152406709Y-82942399D01*
X152168392Y-82661830D01*
X152168387Y-82661824D01*
X152160653Y-82654498D01*
X151901113Y-82408649D01*
X151608036Y-82185857D01*
X151608032Y-82185854D01*
X151608026Y-82185850D01*
X151608021Y-82185846D01*
X151292593Y-81996061D01*
X151292580Y-81996054D01*
X150958480Y-81841482D01*
X150958475Y-81841481D01*
X150958472Y-81841480D01*
X150958470Y-81841479D01*
X150834881Y-81799837D01*
X150609598Y-81723930D01*
X150250057Y-81644789D01*
X149884073Y-81604986D01*
X149884072Y-81604986D01*
X149515928Y-81604986D01*
X149515926Y-81604986D01*
X149149942Y-81644789D01*
X148790401Y-81723930D01*
X148441524Y-81841481D01*
X148441519Y-81841482D01*
X148107419Y-81996054D01*
X148107406Y-81996061D01*
X147791978Y-82185846D01*
X147791973Y-82185850D01*
X147791964Y-82185857D01*
X147576269Y-82349825D01*
X147498882Y-82408653D01*
X147231612Y-82661824D01*
X147231607Y-82661830D01*
X146993290Y-82942399D01*
X146993283Y-82942409D01*
X146786686Y-83247116D01*
X146614248Y-83572368D01*
X146614239Y-83572386D01*
X146477977Y-83914378D01*
X146477975Y-83914385D01*
X146379493Y-84269087D01*
X146379487Y-84269113D01*
X146319932Y-84632380D01*
X146319931Y-84632393D01*
X146319931Y-84632395D01*
X146319670Y-84637205D01*
X146300000Y-84999997D01*
X146300000Y-85000002D01*
X146303026Y-85055815D01*
X146319708Y-85363501D01*
X146319931Y-85367602D01*
X146319932Y-85367619D01*
X146379487Y-85730886D01*
X146379493Y-85730912D01*
X146477975Y-86085614D01*
X146477977Y-86085621D01*
X146614239Y-86427613D01*
X146614248Y-86427631D01*
X146736725Y-86658646D01*
X146786686Y-86752883D01*
X146981404Y-87040071D01*
X146993283Y-87057590D01*
X146993290Y-87057600D01*
X147220542Y-87325142D01*
X147231615Y-87338178D01*
X147498887Y-87591351D01*
X147791964Y-87814143D01*
X147791969Y-87814146D01*
X147791973Y-87814149D01*
X147791978Y-87814153D01*
X148107406Y-88003938D01*
X148107411Y-88003941D01*
X148107415Y-88003942D01*
X148107419Y-88003945D01*
X148359831Y-88120723D01*
X148441530Y-88158521D01*
X148716264Y-88251089D01*
X148736747Y-88257991D01*
X148793991Y-88298051D01*
X148820491Y-88362701D01*
X148807831Y-88431414D01*
X148760032Y-88482375D01*
X148697153Y-88499500D01*
X132394147Y-88499500D01*
X132327108Y-88479815D01*
X132281353Y-88427011D01*
X132271409Y-88357853D01*
X132300434Y-88294297D01*
X132337844Y-88265020D01*
X132349068Y-88259300D01*
X132367048Y-88251851D01*
X132388429Y-88244905D01*
X132406616Y-88231689D01*
X132423194Y-88221530D01*
X132443223Y-88211326D01*
X132458940Y-88195608D01*
X132458947Y-88195603D01*
X132650612Y-88003938D01*
X133390517Y-87264031D01*
X133451838Y-87230548D01*
X133521529Y-87235532D01*
X133521530Y-87235533D01*
X133541655Y-87243039D01*
X133541658Y-87243040D01*
X133601745Y-87249500D01*
X134323254Y-87249499D01*
X134383342Y-87243040D01*
X134519267Y-87192342D01*
X134635404Y-87105404D01*
X134722342Y-86989267D01*
X134773040Y-86853342D01*
X134778426Y-86803248D01*
X134779499Y-86793271D01*
X134779500Y-86793254D01*
X134779500Y-86698500D01*
X134799185Y-86631461D01*
X134851989Y-86585706D01*
X134903500Y-86574500D01*
X134961501Y-86574500D01*
X135028540Y-86594185D01*
X135074295Y-86646989D01*
X135085501Y-86698500D01*
X135085501Y-87040066D01*
X135094255Y-87084080D01*
X135100266Y-87114301D01*
X135156515Y-87198484D01*
X135170283Y-87207683D01*
X135240699Y-87254734D01*
X135240702Y-87254734D01*
X135240703Y-87254735D01*
X135265666Y-87259700D01*
X135314933Y-87269500D01*
X137065066Y-87269499D01*
X137139301Y-87254734D01*
X137223484Y-87198484D01*
X137279734Y-87114301D01*
X137294500Y-87040067D01*
X137294500Y-87040060D01*
X137295097Y-87034006D01*
X137297226Y-87034215D01*
X137314185Y-86976461D01*
X137366989Y-86930706D01*
X137418500Y-86919500D01*
X141261501Y-86919500D01*
X141328540Y-86939185D01*
X141374295Y-86991989D01*
X141383465Y-87034145D01*
X141384904Y-87034004D01*
X141385500Y-87040061D01*
X141400266Y-87114301D01*
X141456515Y-87198484D01*
X141470283Y-87207683D01*
X141540699Y-87254734D01*
X141540702Y-87254734D01*
X141540703Y-87254735D01*
X141565666Y-87259700D01*
X141614933Y-87269500D01*
X143365066Y-87269499D01*
X143439301Y-87254734D01*
X143523484Y-87198484D01*
X143579734Y-87114301D01*
X143594500Y-87040067D01*
X143594500Y-87040060D01*
X143595097Y-87034006D01*
X143597226Y-87034215D01*
X143614185Y-86976461D01*
X143666989Y-86930706D01*
X143718500Y-86919500D01*
X144301114Y-86919500D01*
X144368153Y-86939185D01*
X144388795Y-86955819D01*
X144426600Y-86993624D01*
X144570563Y-87084082D01*
X144656925Y-87114301D01*
X144731048Y-87140238D01*
X144899997Y-87159274D01*
X144900000Y-87159274D01*
X144900003Y-87159274D01*
X145068951Y-87140238D01*
X145068954Y-87140237D01*
X145229437Y-87084082D01*
X145373400Y-86993624D01*
X145493624Y-86873400D01*
X145584082Y-86729437D01*
X145640237Y-86568954D01*
X145640237Y-86568953D01*
X145640238Y-86568951D01*
X145659274Y-86400002D01*
X145659274Y-86399997D01*
X145640238Y-86231048D01*
X145623719Y-86183840D01*
X145584082Y-86070563D01*
X145493624Y-85926600D01*
X145373400Y-85806376D01*
X145351913Y-85792875D01*
X145229439Y-85715919D01*
X145229438Y-85715918D01*
X145229437Y-85715918D01*
X145152161Y-85688878D01*
X145068951Y-85659761D01*
X144900003Y-85640726D01*
X144899997Y-85640726D01*
X144731048Y-85659761D01*
X144570560Y-85715919D01*
X144426599Y-85806376D01*
X144306376Y-85926599D01*
X144267945Y-85987761D01*
X144227284Y-86052473D01*
X144174951Y-86098763D01*
X144122292Y-86110500D01*
X143718499Y-86110500D01*
X143651460Y-86090815D01*
X143605705Y-86038011D01*
X143596534Y-85995854D01*
X143595096Y-85995996D01*
X143594499Y-85989938D01*
X143594499Y-85989934D01*
X143579734Y-85915699D01*
X143554247Y-85877556D01*
X143523484Y-85831515D01*
X143457288Y-85787285D01*
X143439301Y-85775266D01*
X143439299Y-85775265D01*
X143439296Y-85775264D01*
X143365069Y-85760500D01*
X141614936Y-85760500D01*
X141540698Y-85775266D01*
X141456515Y-85831515D01*
X141400266Y-85915699D01*
X141400264Y-85915703D01*
X141385500Y-85989928D01*
X141384903Y-85995994D01*
X141382773Y-85995784D01*
X141365815Y-86053539D01*
X141313011Y-86099294D01*
X141261500Y-86110500D01*
X137418499Y-86110500D01*
X137351460Y-86090815D01*
X137305705Y-86038011D01*
X137296534Y-85995854D01*
X137295096Y-85995996D01*
X137294499Y-85989938D01*
X137294499Y-85989934D01*
X137279734Y-85915699D01*
X137254247Y-85877556D01*
X137223484Y-85831515D01*
X137157288Y-85787285D01*
X137139301Y-85775266D01*
X137139299Y-85775265D01*
X137139296Y-85775264D01*
X137065071Y-85760500D01*
X137065067Y-85760500D01*
X136114082Y-85760500D01*
X136047043Y-85740815D01*
X136040464Y-85736281D01*
X136009773Y-85713631D01*
X136009769Y-85713628D01*
X136002165Y-85709610D01*
X135994430Y-85705885D01*
X135994429Y-85705884D01*
X135994428Y-85705884D01*
X135939294Y-85688877D01*
X135934890Y-85687428D01*
X135880449Y-85668378D01*
X135872031Y-85666784D01*
X135863506Y-85665500D01*
X135863505Y-85665500D01*
X135805821Y-85665500D01*
X135801184Y-85665413D01*
X135799405Y-85665346D01*
X135743538Y-85663255D01*
X135734305Y-85664296D01*
X135734212Y-85663475D01*
X135718838Y-85665500D01*
X134903499Y-85665500D01*
X134836460Y-85645815D01*
X134790705Y-85593011D01*
X134779499Y-85541500D01*
X134779499Y-85446748D01*
X134779499Y-85446745D01*
X134773040Y-85386658D01*
X134772779Y-85385958D01*
X134722344Y-85250738D01*
X134722343Y-85250737D01*
X134722342Y-85250733D01*
X134670500Y-85181479D01*
X134635404Y-85134595D01*
X134539493Y-85062799D01*
X134519267Y-85047658D01*
X134519261Y-85047656D01*
X134511484Y-85043409D01*
X134512820Y-85040961D01*
X134468313Y-85007647D01*
X134443893Y-84942184D01*
X134458743Y-84873910D01*
X134508146Y-84824503D01*
X134514597Y-84821556D01*
X134519255Y-84819012D01*
X134519267Y-84819008D01*
X134635404Y-84732070D01*
X134722342Y-84615933D01*
X134750221Y-84541187D01*
X134792090Y-84485256D01*
X134857555Y-84460839D01*
X134925828Y-84475691D01*
X134954082Y-84496842D01*
X135021968Y-84564728D01*
X135055453Y-84626051D01*
X135057383Y-84637460D01*
X135059850Y-84657780D01*
X135059851Y-84657781D01*
X135059851Y-84657782D01*
X135105273Y-84777550D01*
X135116214Y-84806397D01*
X135170876Y-84885588D01*
X135206502Y-84937201D01*
X135206504Y-84937203D01*
X135206506Y-84937205D01*
X135325469Y-85042598D01*
X135325471Y-85042599D01*
X135466207Y-85116463D01*
X135535264Y-85133484D01*
X135620528Y-85154500D01*
X135620529Y-85154500D01*
X135779472Y-85154500D01*
X135855644Y-85135725D01*
X135933793Y-85116463D01*
X136074529Y-85042599D01*
X136193498Y-84937201D01*
X136283787Y-84806395D01*
X136340149Y-84657782D01*
X136359307Y-84500000D01*
X136353477Y-84451989D01*
X136340149Y-84342218D01*
X136321375Y-84292715D01*
X136283787Y-84193605D01*
X136193498Y-84062799D01*
X136193495Y-84062796D01*
X136193493Y-84062794D01*
X136074530Y-83957401D01*
X135933791Y-83883536D01*
X135779472Y-83845500D01*
X135779471Y-83845500D01*
X135639623Y-83845500D01*
X135572584Y-83825815D01*
X135551942Y-83809181D01*
X135191022Y-83448261D01*
X135181756Y-83437893D01*
X135159295Y-83409728D01*
X135153861Y-83406023D01*
X135109560Y-83351993D01*
X135101503Y-83282590D01*
X135132247Y-83219848D01*
X135136011Y-83215913D01*
X135223405Y-83128519D01*
X135233756Y-83119268D01*
X135261936Y-83096797D01*
X135294460Y-83049090D01*
X135297100Y-83045369D01*
X135331370Y-82998939D01*
X135331371Y-82998933D01*
X135335380Y-82991349D01*
X135339115Y-82983595D01*
X135339114Y-82983595D01*
X135339116Y-82983594D01*
X135356127Y-82928441D01*
X135357556Y-82924098D01*
X135376621Y-82869617D01*
X135376621Y-82869609D01*
X135378217Y-82861180D01*
X135379500Y-82852670D01*
X135379500Y-82794986D01*
X135379587Y-82790348D01*
X135381744Y-82732703D01*
X135380704Y-82723471D01*
X135381523Y-82723378D01*
X135379500Y-82708003D01*
X135379500Y-81979621D01*
X135399185Y-81912582D01*
X135415815Y-81891944D01*
X136041941Y-81265817D01*
X136103264Y-81232333D01*
X136129622Y-81229499D01*
X137065064Y-81229499D01*
X137065066Y-81229499D01*
X137139301Y-81214734D01*
X137223484Y-81158484D01*
X137279734Y-81074301D01*
X137285058Y-81047536D01*
X137288684Y-81029309D01*
X137321068Y-80967398D01*
X137381784Y-80932824D01*
X137410301Y-80929500D01*
X141269700Y-80929500D01*
X141336739Y-80949185D01*
X141382494Y-81001989D01*
X141391317Y-81029308D01*
X141398972Y-81067794D01*
X141400266Y-81074300D01*
X141400266Y-81074301D01*
X141456515Y-81158484D01*
X141490234Y-81181014D01*
X141540699Y-81214734D01*
X141540702Y-81214734D01*
X141540703Y-81214735D01*
X141565666Y-81219700D01*
X141614933Y-81229500D01*
X143365066Y-81229499D01*
X143439301Y-81214734D01*
X143523484Y-81158484D01*
X143579734Y-81074301D01*
X143594500Y-81000067D01*
X143594499Y-79949934D01*
X143579734Y-79875699D01*
X143561068Y-79847765D01*
X143523484Y-79791515D01*
X143469399Y-79755377D01*
X143439301Y-79735266D01*
X143439299Y-79735265D01*
X143439296Y-79735264D01*
X143365069Y-79720500D01*
X141614936Y-79720500D01*
X141540698Y-79735266D01*
X141456515Y-79791515D01*
X141400266Y-79875699D01*
X141400264Y-79875703D01*
X141391316Y-79920691D01*
X141358932Y-79982602D01*
X141298216Y-80017176D01*
X141269699Y-80020500D01*
X137410300Y-80020500D01*
X137343261Y-80000815D01*
X137297506Y-79948011D01*
X137288682Y-79920689D01*
X137287469Y-79914590D01*
X137279734Y-79875699D01*
X137261068Y-79847765D01*
X137223484Y-79791515D01*
X137169399Y-79755377D01*
X137139301Y-79735266D01*
X137139299Y-79735265D01*
X137139296Y-79735264D01*
X137065069Y-79720500D01*
X135314936Y-79720500D01*
X135240698Y-79735266D01*
X135156515Y-79791515D01*
X135100266Y-79875699D01*
X135100264Y-79875703D01*
X135085500Y-79949928D01*
X135085500Y-80885376D01*
X135065815Y-80952415D01*
X135049181Y-80973057D01*
X134626593Y-81395644D01*
X134616228Y-81404908D01*
X134588063Y-81427370D01*
X134555558Y-81475043D01*
X134552880Y-81478818D01*
X134518631Y-81525226D01*
X134514598Y-81532856D01*
X134510885Y-81540567D01*
X134493880Y-81595696D01*
X134492431Y-81600098D01*
X134473378Y-81654548D01*
X134471783Y-81662976D01*
X134470500Y-81671495D01*
X134470500Y-81729178D01*
X134470413Y-81733815D01*
X134468255Y-81791464D01*
X134469296Y-81800700D01*
X134468475Y-81800792D01*
X134470500Y-81816165D01*
X134470500Y-82494950D01*
X134450815Y-82561989D01*
X134398011Y-82607744D01*
X134333245Y-82618240D01*
X134323255Y-82617166D01*
X133601748Y-82617166D01*
X133601742Y-82617167D01*
X133541655Y-82623626D01*
X133405738Y-82674321D01*
X133405730Y-82674326D01*
X133289595Y-82761261D01*
X133214969Y-82860953D01*
X133202658Y-82877399D01*
X133155266Y-83004461D01*
X133151959Y-83013328D01*
X133145500Y-83073394D01*
X133145500Y-84419917D01*
X133145501Y-84419923D01*
X133151960Y-84480010D01*
X133202655Y-84615927D01*
X133202656Y-84615930D01*
X133202658Y-84615933D01*
X133231747Y-84654792D01*
X133289595Y-84732070D01*
X133303661Y-84742599D01*
X133405733Y-84819008D01*
X133405740Y-84819010D01*
X133413516Y-84823257D01*
X133412178Y-84825706D01*
X133456674Y-84859001D01*
X133481104Y-84924461D01*
X133466266Y-84992737D01*
X133416871Y-85042152D01*
X133410411Y-85045104D01*
X133405735Y-85047657D01*
X133405733Y-85047658D01*
X133405731Y-85047659D01*
X133405730Y-85047660D01*
X133289595Y-85134595D01*
X133207832Y-85243821D01*
X133202658Y-85250733D01*
X133151960Y-85386658D01*
X133151959Y-85386662D01*
X133145500Y-85446728D01*
X133145500Y-86313587D01*
X133125815Y-86380626D01*
X133109181Y-86401268D01*
X132766181Y-86744268D01*
X132704858Y-86777753D01*
X132635166Y-86772769D01*
X132579233Y-86730897D01*
X132554816Y-86665433D01*
X132554500Y-86656587D01*
X132554500Y-77531411D01*
X132574185Y-77464372D01*
X132590815Y-77443734D01*
X132890516Y-77144032D01*
X132951839Y-77110548D01*
X133021528Y-77115531D01*
X133041658Y-77123040D01*
X133101745Y-77129500D01*
X133823254Y-77129499D01*
X133883342Y-77123040D01*
X134019267Y-77072342D01*
X134135404Y-76985404D01*
X134222342Y-76869267D01*
X134273040Y-76733342D01*
X134276284Y-76703168D01*
X134279499Y-76673271D01*
X134279499Y-76673264D01*
X134279500Y-76673255D01*
X134279499Y-75528499D01*
X134299184Y-75461461D01*
X134351987Y-75415706D01*
X134403499Y-75404500D01*
X134429472Y-75404500D01*
X134480911Y-75391821D01*
X134583793Y-75366463D01*
X134724529Y-75292599D01*
X134843498Y-75187201D01*
X134933787Y-75056395D01*
X134990149Y-74907782D01*
X135009307Y-74750000D01*
X135008664Y-74744708D01*
X134990149Y-74592218D01*
X134954380Y-74497904D01*
X134933787Y-74443605D01*
X134843498Y-74312799D01*
X134843495Y-74312796D01*
X134843493Y-74312794D01*
X134724530Y-74207401D01*
X134583791Y-74133536D01*
X134429472Y-74095500D01*
X134429471Y-74095500D01*
X134403500Y-74095500D01*
X134336461Y-74075815D01*
X134290706Y-74023011D01*
X134279500Y-73971500D01*
X134279499Y-72839248D01*
X134279499Y-72839245D01*
X134273040Y-72779158D01*
X134249661Y-72716477D01*
X134222344Y-72643238D01*
X134222343Y-72643237D01*
X134222342Y-72643233D01*
X134159706Y-72559560D01*
X134135404Y-72527095D01*
X134049453Y-72462755D01*
X134019267Y-72440158D01*
X133883342Y-72389460D01*
X133883338Y-72389459D01*
X133880945Y-72388567D01*
X133825012Y-72346695D01*
X133800595Y-72281231D01*
X133815447Y-72212958D01*
X133864852Y-72163553D01*
X133911028Y-72149095D01*
X133911833Y-72149008D01*
X133920842Y-72148040D01*
X134056767Y-72097342D01*
X134172904Y-72010404D01*
X134259842Y-71894267D01*
X134310540Y-71758342D01*
X134315773Y-71709668D01*
X134316999Y-71698271D01*
X134316999Y-71698264D01*
X134317000Y-71698255D01*
X134316999Y-70351746D01*
X134310540Y-70291658D01*
X134310539Y-70291655D01*
X134259844Y-70155738D01*
X134259843Y-70155737D01*
X134259842Y-70155733D01*
X134216207Y-70097443D01*
X134172904Y-70039595D01*
X134063553Y-69957738D01*
X134056767Y-69952658D01*
X133920842Y-69901960D01*
X133920838Y-69901959D01*
X133911023Y-69900904D01*
X133846472Y-69874165D01*
X133806625Y-69816772D01*
X133804132Y-69746947D01*
X133839786Y-69686859D01*
X133880946Y-69661433D01*
X133883339Y-69660540D01*
X133883342Y-69660540D01*
X134019267Y-69609842D01*
X134135404Y-69522904D01*
X134222342Y-69406767D01*
X134273040Y-69270842D01*
X134275800Y-69245164D01*
X134279499Y-69210771D01*
X134279499Y-69210764D01*
X134279500Y-69210755D01*
X134279499Y-67864246D01*
X134273040Y-67804158D01*
X134258223Y-67764433D01*
X134222344Y-67668238D01*
X134222343Y-67668237D01*
X134222342Y-67668233D01*
X134158940Y-67583537D01*
X134135404Y-67552095D01*
X134057133Y-67493504D01*
X134019267Y-67465158D01*
X133922664Y-67429126D01*
X133866733Y-67387256D01*
X133842316Y-67321791D01*
X133842000Y-67312946D01*
X133842000Y-67274554D01*
X133861685Y-67207515D01*
X133914489Y-67161760D01*
X133922648Y-67158379D01*
X134019267Y-67122342D01*
X134114706Y-67050898D01*
X134142191Y-67030324D01*
X134207655Y-67005908D01*
X134275928Y-67020760D01*
G37*
%TD.AperFunction*%
%TA.AperFunction,Conductor*%
G36*
X120596070Y-84349185D02*
G01*
X120616712Y-84365819D01*
X122043747Y-85792855D01*
X122043769Y-85792875D01*
X122062220Y-85811326D01*
X122082238Y-85821525D01*
X122098831Y-85831693D01*
X122117014Y-85844905D01*
X122138385Y-85851848D01*
X122156366Y-85859296D01*
X122165186Y-85863790D01*
X122176388Y-85869498D01*
X122198587Y-85873014D01*
X122217500Y-85877554D01*
X122238877Y-85884500D01*
X122271109Y-85884500D01*
X124061088Y-85884500D01*
X124128127Y-85904185D01*
X124148769Y-85920819D01*
X125491769Y-87263819D01*
X125525254Y-87325142D01*
X125520270Y-87394834D01*
X125478398Y-87450767D01*
X125412934Y-87475184D01*
X125404088Y-87475500D01*
X117198911Y-87475500D01*
X117131872Y-87455815D01*
X117111230Y-87439181D01*
X115974889Y-86302838D01*
X115941404Y-86241515D01*
X115946388Y-86171823D01*
X115988260Y-86115890D01*
X116004930Y-86105369D01*
X116124529Y-86042599D01*
X116243498Y-85937201D01*
X116246355Y-85933062D01*
X116300637Y-85889070D01*
X116348406Y-85879500D01*
X116947781Y-85879500D01*
X116973226Y-85882139D01*
X116977121Y-85882955D01*
X116984101Y-85884419D01*
X117015925Y-85880452D01*
X117031263Y-85879500D01*
X117031441Y-85879500D01*
X117031444Y-85879500D01*
X117052206Y-85876034D01*
X117057223Y-85875303D01*
X117109784Y-85868752D01*
X117117392Y-85866486D01*
X117124924Y-85863900D01*
X117124928Y-85863900D01*
X117171482Y-85838705D01*
X117175967Y-85836396D01*
X117223569Y-85813126D01*
X117223571Y-85813123D01*
X117223573Y-85813123D01*
X117230002Y-85808533D01*
X117236311Y-85803622D01*
X117236317Y-85803619D01*
X117272189Y-85764649D01*
X117275668Y-85761025D01*
X117470215Y-85566478D01*
X117531536Y-85532995D01*
X117601228Y-85537979D01*
X117657161Y-85579851D01*
X117681578Y-85645315D01*
X117680599Y-85672037D01*
X117680539Y-85672450D01*
X117670500Y-85741354D01*
X117670500Y-86008646D01*
X117676885Y-86052472D01*
X117680539Y-86077551D01*
X117713777Y-86145540D01*
X117725535Y-86214413D01*
X117713777Y-86254460D01*
X117680539Y-86322448D01*
X117680539Y-86322450D01*
X117670500Y-86391354D01*
X117670500Y-86658646D01*
X117680539Y-86727550D01*
X117680539Y-86727551D01*
X117680540Y-86727553D01*
X117732499Y-86833839D01*
X117816160Y-86917500D01*
X117915000Y-86965819D01*
X117922450Y-86969461D01*
X117991354Y-86979500D01*
X117991360Y-86979500D01*
X119333640Y-86979500D01*
X119333646Y-86979500D01*
X119402550Y-86969461D01*
X119484292Y-86929500D01*
X119508839Y-86917500D01*
X119592500Y-86833839D01*
X119636288Y-86744268D01*
X119644461Y-86727550D01*
X119654500Y-86658646D01*
X119654500Y-86391354D01*
X119644461Y-86322450D01*
X119640128Y-86313587D01*
X119611223Y-86254461D01*
X119599463Y-86185588D01*
X119611223Y-86145539D01*
X119625438Y-86116463D01*
X119644461Y-86077550D01*
X119654500Y-86008646D01*
X119654500Y-85741354D01*
X119644461Y-85672450D01*
X119644259Y-85672037D01*
X119611223Y-85604461D01*
X119599463Y-85535588D01*
X119611223Y-85495539D01*
X119644460Y-85427552D01*
X119644459Y-85427552D01*
X119644461Y-85427550D01*
X119654500Y-85358646D01*
X119654500Y-85091354D01*
X119644461Y-85022450D01*
X119638136Y-85009513D01*
X119611223Y-84954461D01*
X119599463Y-84885588D01*
X119611223Y-84845539D01*
X119624032Y-84819339D01*
X119644461Y-84777550D01*
X119654500Y-84708646D01*
X119654500Y-84453500D01*
X119674185Y-84386461D01*
X119726989Y-84340706D01*
X119778500Y-84329500D01*
X120529031Y-84329500D01*
X120596070Y-84349185D01*
G37*
%TD.AperFunction*%
%TA.AperFunction,Conductor*%
G36*
X126657825Y-85464185D02*
G01*
X126701786Y-85513228D01*
X126756912Y-85623935D01*
X126880269Y-85787287D01*
X127031537Y-85925185D01*
X127031539Y-85925187D01*
X127205569Y-86032942D01*
X127205575Y-86032945D01*
X127218652Y-86038011D01*
X127396444Y-86106888D01*
X127597653Y-86144500D01*
X127597656Y-86144500D01*
X127802344Y-86144500D01*
X127802347Y-86144500D01*
X128003556Y-86106888D01*
X128015115Y-86102409D01*
X128084734Y-86096544D01*
X128146476Y-86129250D01*
X128147593Y-86130353D01*
X128435639Y-86418399D01*
X128444905Y-86428767D01*
X128467370Y-86456937D01*
X128467371Y-86456938D01*
X128515033Y-86489432D01*
X128518804Y-86492107D01*
X128565227Y-86526370D01*
X128565228Y-86526370D01*
X128565229Y-86526371D01*
X128572798Y-86530372D01*
X128580569Y-86534114D01*
X128580572Y-86534116D01*
X128635742Y-86551133D01*
X128640063Y-86552555D01*
X128694549Y-86571621D01*
X128694551Y-86571621D01*
X128702997Y-86573219D01*
X128711494Y-86574499D01*
X128711495Y-86574500D01*
X128769179Y-86574500D01*
X128773815Y-86574586D01*
X128791463Y-86575247D01*
X128831461Y-86576744D01*
X128831461Y-86576743D01*
X128831463Y-86576744D01*
X128831464Y-86576743D01*
X128840695Y-86575704D01*
X128840787Y-86576524D01*
X128856162Y-86574500D01*
X130096501Y-86574500D01*
X130163540Y-86594185D01*
X130209295Y-86646989D01*
X130220501Y-86698500D01*
X130220501Y-86793260D01*
X130221575Y-86803248D01*
X130209167Y-86872008D01*
X130161556Y-86923143D01*
X130098285Y-86940500D01*
X126363912Y-86940500D01*
X126296873Y-86920815D01*
X126276231Y-86904181D01*
X125028232Y-85656181D01*
X124994747Y-85594858D01*
X124999731Y-85525166D01*
X125041603Y-85469233D01*
X125107067Y-85444816D01*
X125115913Y-85444500D01*
X126590786Y-85444500D01*
X126657825Y-85464185D01*
G37*
%TD.AperFunction*%
%TA.AperFunction,Conductor*%
G36*
X127928153Y-76999185D02*
G01*
X127948795Y-77015819D01*
X128026600Y-77093624D01*
X128170563Y-77184082D01*
X128292521Y-77226756D01*
X128331048Y-77240238D01*
X128499997Y-77259274D01*
X128500000Y-77259274D01*
X128500003Y-77259274D01*
X128668951Y-77240238D01*
X128668954Y-77240237D01*
X128829437Y-77184082D01*
X128973400Y-77093624D01*
X129051205Y-77015819D01*
X129112528Y-76982334D01*
X129138886Y-76979500D01*
X129171344Y-76979500D01*
X129238383Y-76999185D01*
X129259025Y-77015819D01*
X129674628Y-77431422D01*
X129690752Y-77451277D01*
X129696832Y-77460582D01*
X129721292Y-77479620D01*
X129722138Y-77480278D01*
X129733657Y-77490451D01*
X129733786Y-77490580D01*
X129750916Y-77502811D01*
X129755024Y-77505874D01*
X129794207Y-77536372D01*
X129796781Y-77538375D01*
X129796782Y-77538375D01*
X129803774Y-77542159D01*
X129810917Y-77545651D01*
X129810920Y-77545653D01*
X129861684Y-77560766D01*
X129866507Y-77562312D01*
X129874666Y-77565113D01*
X129916570Y-77579500D01*
X129924386Y-77580804D01*
X129932306Y-77581791D01*
X129932309Y-77581792D01*
X129932311Y-77581791D01*
X129932312Y-77581792D01*
X129985161Y-77579606D01*
X129990286Y-77579500D01*
X131042880Y-77579500D01*
X131068325Y-77582139D01*
X131072220Y-77582955D01*
X131079200Y-77584419D01*
X131111024Y-77580452D01*
X131126362Y-77579500D01*
X131126540Y-77579500D01*
X131126543Y-77579500D01*
X131147305Y-77576034D01*
X131152322Y-77575303D01*
X131204883Y-77568752D01*
X131212491Y-77566486D01*
X131220023Y-77563900D01*
X131220027Y-77563900D01*
X131266581Y-77538705D01*
X131271066Y-77536396D01*
X131318668Y-77513126D01*
X131318670Y-77513123D01*
X131318672Y-77513123D01*
X131325101Y-77508533D01*
X131331410Y-77503622D01*
X131331416Y-77503619D01*
X131367289Y-77464649D01*
X131370743Y-77461049D01*
X131533821Y-77297971D01*
X131595142Y-77264489D01*
X131664834Y-77269473D01*
X131720767Y-77311345D01*
X131745184Y-77376809D01*
X131745500Y-77385655D01*
X131745500Y-77805471D01*
X131725815Y-77872510D01*
X131673011Y-77918265D01*
X131603853Y-77928209D01*
X131578169Y-77921653D01*
X131458342Y-77876960D01*
X131458338Y-77876959D01*
X131398263Y-77870500D01*
X130676748Y-77870500D01*
X130676742Y-77870501D01*
X130616655Y-77876960D01*
X130480738Y-77927655D01*
X130480730Y-77927660D01*
X130364595Y-78014595D01*
X130277660Y-78130730D01*
X130277655Y-78130738D01*
X130241181Y-78228529D01*
X130199310Y-78284463D01*
X130133845Y-78308879D01*
X130065572Y-78294027D01*
X130016167Y-78244621D01*
X130008819Y-78228529D01*
X129972344Y-78130738D01*
X129972343Y-78130737D01*
X129972342Y-78130733D01*
X129907120Y-78043605D01*
X129885404Y-78014595D01*
X129772768Y-77930279D01*
X129769267Y-77927658D01*
X129633342Y-77876960D01*
X129633338Y-77876959D01*
X129573262Y-77870500D01*
X128726748Y-77870500D01*
X128726742Y-77870501D01*
X128666655Y-77876960D01*
X128530738Y-77927655D01*
X128530730Y-77927660D01*
X128414595Y-78014595D01*
X128333256Y-78123255D01*
X128327658Y-78130733D01*
X128276960Y-78266658D01*
X128276959Y-78266662D01*
X128270500Y-78326728D01*
X128270500Y-79673251D01*
X128270501Y-79673257D01*
X128276960Y-79733344D01*
X128327655Y-79869261D01*
X128327656Y-79869264D01*
X128327658Y-79869267D01*
X128342067Y-79888515D01*
X128414595Y-79985404D01*
X128446519Y-80009301D01*
X128530733Y-80072342D01*
X128666658Y-80123040D01*
X128726745Y-80129500D01*
X129573254Y-80129499D01*
X129633342Y-80123040D01*
X129769267Y-80072342D01*
X129885404Y-79985404D01*
X129972342Y-79869267D01*
X130008819Y-79771467D01*
X130050688Y-79715537D01*
X130116152Y-79691120D01*
X130184425Y-79705972D01*
X130233831Y-79755377D01*
X130241180Y-79771469D01*
X130277656Y-79869263D01*
X130277657Y-79869264D01*
X130277658Y-79869267D01*
X130292067Y-79888515D01*
X130364595Y-79985404D01*
X130396519Y-80009301D01*
X130480733Y-80072342D01*
X130480740Y-80072344D01*
X130488516Y-80076591D01*
X130487178Y-80079039D01*
X130531680Y-80112345D01*
X130556104Y-80177807D01*
X130541259Y-80246081D01*
X130491859Y-80295492D01*
X130485406Y-80298439D01*
X130480735Y-80300990D01*
X130480733Y-80300991D01*
X130480731Y-80300992D01*
X130480730Y-80300993D01*
X130364595Y-80387928D01*
X130277660Y-80504063D01*
X130277658Y-80504066D01*
X130239244Y-80607057D01*
X130226959Y-80639995D01*
X130220500Y-80700061D01*
X130220500Y-80794833D01*
X130200815Y-80861872D01*
X130148011Y-80907627D01*
X130096500Y-80918833D01*
X128859159Y-80918833D01*
X128845276Y-80918053D01*
X128840416Y-80917505D01*
X128809480Y-80914019D01*
X128752808Y-80924742D01*
X128748240Y-80925519D01*
X128702892Y-80932354D01*
X128691188Y-80934119D01*
X128691187Y-80934119D01*
X128691182Y-80934120D01*
X128682989Y-80936646D01*
X128674863Y-80939490D01*
X128623836Y-80966457D01*
X128619704Y-80968543D01*
X128567744Y-80993567D01*
X128560622Y-80998422D01*
X128553725Y-81003512D01*
X128512915Y-81044322D01*
X128509579Y-81047536D01*
X128467309Y-81086757D01*
X128461517Y-81094020D01*
X128460872Y-81093505D01*
X128451436Y-81105802D01*
X128198056Y-81359181D01*
X128136733Y-81392666D01*
X128110375Y-81395500D01*
X126824936Y-81395500D01*
X126750698Y-81410266D01*
X126666515Y-81466515D01*
X126610266Y-81550699D01*
X126610264Y-81550703D01*
X126595500Y-81624928D01*
X126595500Y-83375063D01*
X126610266Y-83449301D01*
X126666515Y-83533484D01*
X126688622Y-83548255D01*
X126750699Y-83589734D01*
X126750702Y-83589734D01*
X126750703Y-83589735D01*
X126770497Y-83593672D01*
X126824933Y-83604500D01*
X128575066Y-83604499D01*
X128649301Y-83589734D01*
X128733484Y-83533484D01*
X128789734Y-83449301D01*
X128804500Y-83375067D01*
X128804499Y-82089621D01*
X128824184Y-82022583D01*
X128840813Y-82001946D01*
X128978609Y-81864150D01*
X129039931Y-81830667D01*
X129066289Y-81827833D01*
X130096501Y-81827833D01*
X130163540Y-81847518D01*
X130209295Y-81900322D01*
X130220501Y-81951833D01*
X130220501Y-82046590D01*
X130226960Y-82106677D01*
X130277655Y-82242594D01*
X130277656Y-82242597D01*
X130277658Y-82242600D01*
X130285555Y-82253149D01*
X130364595Y-82358737D01*
X130409494Y-82392347D01*
X130480733Y-82445675D01*
X130480740Y-82445677D01*
X130488516Y-82449924D01*
X130487178Y-82452372D01*
X130531680Y-82485678D01*
X130556104Y-82551140D01*
X130541259Y-82619414D01*
X130491859Y-82668825D01*
X130485406Y-82671772D01*
X130480735Y-82674323D01*
X130480733Y-82674324D01*
X130480731Y-82674325D01*
X130480730Y-82674326D01*
X130364595Y-82761261D01*
X130289969Y-82860953D01*
X130277658Y-82877399D01*
X130230266Y-83004461D01*
X130226959Y-83013328D01*
X130220500Y-83073394D01*
X130220500Y-84419917D01*
X130220501Y-84419923D01*
X130226960Y-84480010D01*
X130277655Y-84615927D01*
X130277656Y-84615930D01*
X130277658Y-84615933D01*
X130306747Y-84654792D01*
X130364595Y-84732070D01*
X130378661Y-84742599D01*
X130480733Y-84819008D01*
X130480740Y-84819010D01*
X130488516Y-84823257D01*
X130487178Y-84825706D01*
X130531674Y-84859001D01*
X130556104Y-84924461D01*
X130541266Y-84992737D01*
X130491871Y-85042152D01*
X130485410Y-85045104D01*
X130480732Y-85047658D01*
X130364594Y-85134597D01*
X130282832Y-85243821D01*
X130277658Y-85250733D01*
X130226960Y-85386658D01*
X130226959Y-85386662D01*
X130220500Y-85446728D01*
X130220500Y-85541500D01*
X130200815Y-85608539D01*
X130148011Y-85654294D01*
X130096500Y-85665500D01*
X129019622Y-85665500D01*
X128952583Y-85645815D01*
X128931941Y-85629181D01*
X128852744Y-85549984D01*
X128787876Y-85485115D01*
X128754392Y-85423794D01*
X128756291Y-85363505D01*
X128790345Y-85243821D01*
X128809232Y-85040000D01*
X128807605Y-85022447D01*
X128801309Y-84954500D01*
X128790345Y-84836179D01*
X128734328Y-84639299D01*
X128643088Y-84456065D01*
X128579943Y-84372448D01*
X128519730Y-84292712D01*
X128368462Y-84154814D01*
X128368460Y-84154812D01*
X128194430Y-84047057D01*
X128194424Y-84047054D01*
X128043993Y-83988777D01*
X128003556Y-83973112D01*
X127802347Y-83935500D01*
X127597653Y-83935500D01*
X127396444Y-83973112D01*
X127396441Y-83973112D01*
X127396441Y-83973113D01*
X127205575Y-84047054D01*
X127205569Y-84047057D01*
X127031539Y-84154812D01*
X127031537Y-84154814D01*
X126880269Y-84292712D01*
X126756912Y-84456064D01*
X126701786Y-84566772D01*
X126654283Y-84618009D01*
X126590786Y-84635500D01*
X125285282Y-84635500D01*
X125218243Y-84615815D01*
X125197601Y-84599181D01*
X124426800Y-83828379D01*
X124426771Y-83828352D01*
X124407093Y-83808674D01*
X124407090Y-83808672D01*
X124387070Y-83798471D01*
X124370482Y-83788306D01*
X124352298Y-83775094D01*
X124352295Y-83775093D01*
X124330923Y-83768149D01*
X124312946Y-83760703D01*
X124292922Y-83750500D01*
X124284661Y-83747816D01*
X124226986Y-83708378D01*
X124199789Y-83644019D01*
X124211704Y-83575173D01*
X124235297Y-83542208D01*
X127633535Y-80143971D01*
X127633535Y-80143970D01*
X127640603Y-80136903D01*
X127640608Y-80136896D01*
X127656326Y-80121179D01*
X127666530Y-80101150D01*
X127676689Y-80084572D01*
X127689905Y-80066385D01*
X127696851Y-80045004D01*
X127704294Y-80027034D01*
X127714498Y-80007011D01*
X127718013Y-79984812D01*
X127722556Y-79965893D01*
X127729500Y-79944522D01*
X127729500Y-79816390D01*
X127729500Y-77993166D01*
X127729500Y-77960934D01*
X127722554Y-77939557D01*
X127718014Y-77920644D01*
X127714498Y-77898445D01*
X127704296Y-77878423D01*
X127696848Y-77860442D01*
X127692080Y-77845767D01*
X127689905Y-77839071D01*
X127676693Y-77820888D01*
X127666524Y-77804293D01*
X127656327Y-77784279D01*
X127656326Y-77784277D01*
X127637875Y-77765826D01*
X127637855Y-77765804D01*
X127063231Y-77191181D01*
X127029746Y-77129858D01*
X127034730Y-77060167D01*
X127076601Y-77004233D01*
X127142066Y-76979816D01*
X127150912Y-76979500D01*
X127861114Y-76979500D01*
X127928153Y-76999185D01*
G37*
%TD.AperFunction*%
%TA.AperFunction,Conductor*%
G36*
X124109702Y-78878638D02*
G01*
X124110727Y-78879537D01*
X124125469Y-78892598D01*
X124125471Y-78892599D01*
X124266207Y-78966463D01*
X124420529Y-79004500D01*
X124420533Y-79004500D01*
X124424948Y-79005036D01*
X124489128Y-79032653D01*
X124497692Y-79040452D01*
X124755639Y-79298399D01*
X124764905Y-79308767D01*
X124787368Y-79336935D01*
X124787369Y-79336936D01*
X124835040Y-79369437D01*
X124838823Y-79372121D01*
X124885225Y-79406368D01*
X124892839Y-79410391D01*
X124900567Y-79414112D01*
X124900572Y-79414116D01*
X124955718Y-79431126D01*
X124960102Y-79432568D01*
X125014549Y-79451620D01*
X125014552Y-79451621D01*
X125022986Y-79453216D01*
X125031492Y-79454499D01*
X125031495Y-79454500D01*
X125089205Y-79454500D01*
X125093841Y-79454586D01*
X125151462Y-79456743D01*
X125160696Y-79455703D01*
X125160788Y-79456522D01*
X125176159Y-79454500D01*
X125346501Y-79454500D01*
X125413540Y-79474185D01*
X125459295Y-79526989D01*
X125470501Y-79578500D01*
X125470501Y-79673257D01*
X125476960Y-79733344D01*
X125527655Y-79869261D01*
X125527656Y-79869264D01*
X125527658Y-79869267D01*
X125542067Y-79888515D01*
X125614595Y-79985404D01*
X125646519Y-80009301D01*
X125730733Y-80072342D01*
X125866658Y-80123040D01*
X125926745Y-80129500D01*
X126204544Y-80129499D01*
X126271582Y-80149183D01*
X126317337Y-80201987D01*
X126327281Y-80271146D01*
X126298256Y-80334701D01*
X126292224Y-80341180D01*
X123482409Y-83150995D01*
X123421086Y-83184480D01*
X123351394Y-83179496D01*
X123329452Y-83168742D01*
X123294427Y-83147056D01*
X123294424Y-83147054D01*
X123120045Y-83079500D01*
X123103556Y-83073112D01*
X122902347Y-83035500D01*
X122697653Y-83035500D01*
X122496444Y-83073112D01*
X122496441Y-83073112D01*
X122496441Y-83073113D01*
X122305575Y-83147054D01*
X122305569Y-83147057D01*
X122131539Y-83254812D01*
X122131537Y-83254814D01*
X121980269Y-83392712D01*
X121856912Y-83556064D01*
X121765673Y-83739295D01*
X121709654Y-83936182D01*
X121701929Y-84019546D01*
X121676142Y-84084483D01*
X121619341Y-84125170D01*
X121549560Y-84128689D01*
X121490777Y-84095784D01*
X121008373Y-83613379D01*
X121008344Y-83613352D01*
X120988666Y-83593674D01*
X120988663Y-83593672D01*
X120968643Y-83583471D01*
X120952055Y-83573306D01*
X120933871Y-83560094D01*
X120933868Y-83560093D01*
X120912496Y-83553149D01*
X120894519Y-83545703D01*
X120874496Y-83535501D01*
X120874498Y-83535501D01*
X120852291Y-83531983D01*
X120833384Y-83527444D01*
X120812009Y-83520500D01*
X120779777Y-83520500D01*
X119778500Y-83520500D01*
X119711461Y-83500815D01*
X119665706Y-83448011D01*
X119654500Y-83396500D01*
X119654500Y-83141359D01*
X119654500Y-83141354D01*
X119644461Y-83072450D01*
X119642999Y-83069460D01*
X119611223Y-83004461D01*
X119599463Y-82935588D01*
X119611223Y-82895539D01*
X119632181Y-82852670D01*
X119644461Y-82827550D01*
X119654500Y-82758646D01*
X119654500Y-82553500D01*
X119674185Y-82486461D01*
X119726989Y-82440706D01*
X119778500Y-82429500D01*
X122022416Y-82429500D01*
X122089455Y-82449185D01*
X122105945Y-82461855D01*
X122131538Y-82485186D01*
X122131543Y-82485189D01*
X122131546Y-82485191D01*
X122305569Y-82592942D01*
X122305575Y-82592945D01*
X122325588Y-82600698D01*
X122496444Y-82666888D01*
X122697653Y-82704500D01*
X122697656Y-82704500D01*
X122902344Y-82704500D01*
X122902347Y-82704500D01*
X123103556Y-82666888D01*
X123294427Y-82592944D01*
X123468462Y-82485186D01*
X123607170Y-82358737D01*
X123619730Y-82347287D01*
X123622720Y-82343328D01*
X123743088Y-82183935D01*
X123834328Y-82000701D01*
X123890345Y-81803821D01*
X123909232Y-81600000D01*
X123906028Y-81565429D01*
X123903010Y-81532856D01*
X123890345Y-81396179D01*
X123834328Y-81199299D01*
X123743088Y-81016065D01*
X123661200Y-80907627D01*
X123619730Y-80852712D01*
X123468462Y-80714814D01*
X123468460Y-80714812D01*
X123294430Y-80607057D01*
X123294424Y-80607054D01*
X123124831Y-80541354D01*
X123103556Y-80533112D01*
X122902347Y-80495500D01*
X122697653Y-80495500D01*
X122496444Y-80533112D01*
X122496441Y-80533112D01*
X122496441Y-80533113D01*
X122305575Y-80607054D01*
X122305569Y-80607057D01*
X122138033Y-80710791D01*
X122070672Y-80729346D01*
X122003973Y-80708538D01*
X121959112Y-80654973D01*
X121950332Y-80585657D01*
X121980421Y-80522598D01*
X121985052Y-80517706D01*
X122301941Y-80200817D01*
X122363264Y-80167333D01*
X122389622Y-80164499D01*
X123675064Y-80164499D01*
X123675066Y-80164499D01*
X123749301Y-80149734D01*
X123833484Y-80093484D01*
X123889734Y-80009301D01*
X123904500Y-79935067D01*
X123904499Y-78972350D01*
X123924183Y-78905312D01*
X123976987Y-78859557D01*
X124046146Y-78849613D01*
X124109702Y-78878638D01*
G37*
%TD.AperFunction*%
%TA.AperFunction,Conductor*%
G36*
X148764192Y-43520185D02*
G01*
X148809947Y-43572989D01*
X148819891Y-43642147D01*
X148790866Y-43705703D01*
X148736746Y-43742009D01*
X148441530Y-43841479D01*
X148441527Y-43841480D01*
X148441519Y-43841483D01*
X148107419Y-43996054D01*
X148107406Y-43996061D01*
X147791978Y-44185846D01*
X147791973Y-44185850D01*
X147498882Y-44408653D01*
X147231612Y-44661824D01*
X147231607Y-44661830D01*
X146993290Y-44942399D01*
X146993283Y-44942409D01*
X146786686Y-45247116D01*
X146614248Y-45572368D01*
X146614239Y-45572386D01*
X146477977Y-45914378D01*
X146477975Y-45914385D01*
X146379493Y-46269087D01*
X146379487Y-46269113D01*
X146319932Y-46632380D01*
X146319931Y-46632393D01*
X146319931Y-46632395D01*
X146300000Y-47000000D01*
X146319789Y-47364994D01*
X146319931Y-47367602D01*
X146319932Y-47367619D01*
X146379487Y-47730886D01*
X146379493Y-47730912D01*
X146477975Y-48085614D01*
X146477977Y-48085621D01*
X146614239Y-48427613D01*
X146614248Y-48427631D01*
X146763517Y-48709181D01*
X146786686Y-48752883D01*
X146937240Y-48974934D01*
X146993283Y-49057590D01*
X146993290Y-49057600D01*
X147231339Y-49337853D01*
X147231615Y-49338178D01*
X147498887Y-49591351D01*
X147791964Y-49814143D01*
X147791969Y-49814146D01*
X147791973Y-49814149D01*
X147791978Y-49814153D01*
X148107406Y-50003938D01*
X148107411Y-50003941D01*
X148107415Y-50003942D01*
X148107419Y-50003945D01*
X148441519Y-50158517D01*
X148441523Y-50158517D01*
X148441530Y-50158521D01*
X148790404Y-50276070D01*
X149149941Y-50355210D01*
X149515928Y-50395014D01*
X149515933Y-50395014D01*
X149884067Y-50395014D01*
X149884072Y-50395014D01*
X150250059Y-50355210D01*
X150609596Y-50276070D01*
X150958470Y-50158521D01*
X150958477Y-50158517D01*
X150958480Y-50158517D01*
X151292580Y-50003945D01*
X151292589Y-50003941D01*
X151411934Y-49932133D01*
X151608021Y-49814153D01*
X151608026Y-49814149D01*
X151608025Y-49814149D01*
X151608036Y-49814143D01*
X151901113Y-49591351D01*
X152168385Y-49338178D01*
X152406716Y-49057592D01*
X152613314Y-48752883D01*
X152785756Y-48427623D01*
X152842020Y-48286412D01*
X152860307Y-48240515D01*
X152903407Y-48185523D01*
X152969396Y-48162562D01*
X153037324Y-48178923D01*
X153085622Y-48229411D01*
X153099500Y-48286412D01*
X153099500Y-64138060D01*
X153079815Y-64205099D01*
X153027011Y-64250854D01*
X152957853Y-64260798D01*
X152894297Y-64231773D01*
X152887819Y-64225741D01*
X152762262Y-64100184D01*
X152609523Y-64004211D01*
X152439254Y-63944631D01*
X152439249Y-63944630D01*
X152304960Y-63929500D01*
X152304954Y-63929500D01*
X152215046Y-63929500D01*
X152215039Y-63929500D01*
X152080750Y-63944630D01*
X152080745Y-63944631D01*
X151910476Y-64004211D01*
X151757737Y-64100184D01*
X151630184Y-64227737D01*
X151534211Y-64380476D01*
X151474631Y-64550745D01*
X151474630Y-64550750D01*
X151454435Y-64729996D01*
X151454435Y-64730003D01*
X151474630Y-64909249D01*
X151474631Y-64909254D01*
X151534211Y-65079523D01*
X151597806Y-65180733D01*
X151630184Y-65232262D01*
X151757738Y-65359816D01*
X151848080Y-65416582D01*
X151895971Y-65446674D01*
X151910478Y-65455789D01*
X152080745Y-65515368D01*
X152080750Y-65515369D01*
X152171246Y-65525565D01*
X152215040Y-65530499D01*
X152215043Y-65530500D01*
X152215046Y-65530500D01*
X152304957Y-65530500D01*
X152304958Y-65530499D01*
X152372104Y-65522934D01*
X152439249Y-65515369D01*
X152439252Y-65515368D01*
X152439255Y-65515368D01*
X152609522Y-65455789D01*
X152762262Y-65359816D01*
X152887819Y-65234259D01*
X152949142Y-65200774D01*
X153018834Y-65205758D01*
X153074767Y-65247630D01*
X153099184Y-65313094D01*
X153099500Y-65321940D01*
X153099500Y-66016500D01*
X153079815Y-66083539D01*
X153027011Y-66129294D01*
X152975500Y-66140500D01*
X152810418Y-66140500D01*
X152772198Y-66143331D01*
X152736032Y-66148718D01*
X152725603Y-66150490D01*
X152631766Y-66188520D01*
X152631760Y-66188523D01*
X152573377Y-66226891D01*
X152537134Y-66255642D01*
X152478753Y-66338368D01*
X152478746Y-66338379D01*
X152451868Y-66398860D01*
X152406654Y-66452128D01*
X152339819Y-66472495D01*
X152324672Y-66471721D01*
X152304960Y-66469500D01*
X152304954Y-66469500D01*
X152215046Y-66469500D01*
X152215042Y-66469500D01*
X152199015Y-66471305D01*
X152130194Y-66459247D01*
X152078817Y-66411895D01*
X152069749Y-66393485D01*
X152068591Y-66390542D01*
X152032672Y-66327465D01*
X152018486Y-66302552D01*
X151972731Y-66249748D01*
X151939444Y-66217629D01*
X151849726Y-66170697D01*
X151849725Y-66170696D01*
X151849722Y-66170695D01*
X151782692Y-66151013D01*
X151782680Y-66151010D01*
X151709576Y-66140500D01*
X151709575Y-66140500D01*
X151171500Y-66140500D01*
X151104461Y-66120815D01*
X151068618Y-66079450D01*
X151066519Y-66080854D01*
X151003484Y-65986515D01*
X150953019Y-65952796D01*
X150919301Y-65930266D01*
X150919299Y-65930265D01*
X150919296Y-65930264D01*
X150845069Y-65915500D01*
X148594934Y-65915500D01*
X148594930Y-65915501D01*
X148566145Y-65921226D01*
X148496553Y-65914996D01*
X148454277Y-65887289D01*
X147419818Y-64852830D01*
X147419813Y-64852825D01*
X147399145Y-64834260D01*
X147399080Y-64834208D01*
X147378505Y-64817628D01*
X147378503Y-64817626D01*
X147378498Y-64817623D01*
X147378493Y-64817620D01*
X147288792Y-64770698D01*
X147288787Y-64770695D01*
X147221755Y-64751013D01*
X147221743Y-64751010D01*
X147148639Y-64740500D01*
X147148638Y-64740500D01*
X142058850Y-64740500D01*
X141991811Y-64720815D01*
X141971169Y-64704181D01*
X141795819Y-64528831D01*
X141762334Y-64467508D01*
X141759500Y-64441150D01*
X141759500Y-62160377D01*
X141779185Y-62093338D01*
X141831989Y-62047583D01*
X141847756Y-62042491D01*
X141854409Y-62039734D01*
X141854414Y-62039734D01*
X141938597Y-61983484D01*
X141994847Y-61899301D01*
X142009613Y-61825067D01*
X142009612Y-60174934D01*
X141994847Y-60100699D01*
X141976181Y-60072765D01*
X141938597Y-60016515D01*
X141888132Y-59982796D01*
X141854414Y-59960266D01*
X141854412Y-59960265D01*
X141843128Y-59955591D01*
X141844086Y-59953277D01*
X141797387Y-59928843D01*
X141762820Y-59868123D01*
X141759500Y-59839621D01*
X141759500Y-56560377D01*
X141779185Y-56493338D01*
X141831989Y-56447583D01*
X141847756Y-56442491D01*
X141854409Y-56439734D01*
X141854414Y-56439734D01*
X141938597Y-56383484D01*
X141994847Y-56299301D01*
X142009613Y-56225067D01*
X142009612Y-54574934D01*
X141994847Y-54500699D01*
X141956509Y-54443323D01*
X141938597Y-54416515D01*
X141888132Y-54382796D01*
X141854414Y-54360266D01*
X141854412Y-54360265D01*
X141843128Y-54355591D01*
X141844086Y-54353277D01*
X141797387Y-54328843D01*
X141762820Y-54268123D01*
X141759500Y-54239621D01*
X141759500Y-50960377D01*
X141779185Y-50893338D01*
X141831989Y-50847583D01*
X141847756Y-50842491D01*
X141854409Y-50839734D01*
X141854414Y-50839734D01*
X141938597Y-50783484D01*
X141994847Y-50699301D01*
X142009613Y-50625067D01*
X142009612Y-48974934D01*
X141994847Y-48900699D01*
X141949860Y-48833372D01*
X141938597Y-48816515D01*
X141886956Y-48782010D01*
X141854414Y-48760266D01*
X141854412Y-48760265D01*
X141854409Y-48760264D01*
X141780184Y-48745500D01*
X141780180Y-48745500D01*
X141663850Y-48745500D01*
X141596811Y-48725815D01*
X141576169Y-48709181D01*
X141019818Y-48152830D01*
X141019813Y-48152825D01*
X140999145Y-48134260D01*
X140978503Y-48117626D01*
X140978498Y-48117623D01*
X140978493Y-48117620D01*
X140888792Y-48070698D01*
X140888787Y-48070695D01*
X140821755Y-48051013D01*
X140821743Y-48051010D01*
X140748639Y-48040500D01*
X140748638Y-48040500D01*
X138451362Y-48040500D01*
X138451361Y-48040500D01*
X138423638Y-48041986D01*
X138423633Y-48041986D01*
X138423621Y-48041987D01*
X138423613Y-48041987D01*
X138423584Y-48041990D01*
X138397262Y-48044820D01*
X138397260Y-48044821D01*
X138300642Y-48075075D01*
X138300639Y-48075076D01*
X138300637Y-48075076D01*
X138300632Y-48075079D01*
X138239312Y-48108562D01*
X138180197Y-48152816D01*
X138180176Y-48152834D01*
X137552830Y-48780181D01*
X137534260Y-48800855D01*
X137534246Y-48800871D01*
X137517628Y-48821494D01*
X137517620Y-48821506D01*
X137470698Y-48911207D01*
X137470695Y-48911212D01*
X137451013Y-48978244D01*
X137451010Y-48978256D01*
X137440500Y-49051360D01*
X137440500Y-54841150D01*
X137420815Y-54908189D01*
X137404181Y-54928831D01*
X136928831Y-55404181D01*
X136867508Y-55437666D01*
X136841150Y-55440500D01*
X133125556Y-55440500D01*
X133058517Y-55420815D01*
X133012762Y-55368011D01*
X133002818Y-55298853D01*
X133031843Y-55235297D01*
X133037875Y-55228819D01*
X133441626Y-54825067D01*
X133581425Y-54685267D01*
X133601279Y-54669145D01*
X133610582Y-54663068D01*
X133630273Y-54637767D01*
X133640449Y-54626244D01*
X133640580Y-54626114D01*
X133652822Y-54608966D01*
X133655852Y-54604901D01*
X133688375Y-54563119D01*
X133688375Y-54563116D01*
X133692158Y-54556128D01*
X133695649Y-54548984D01*
X133695653Y-54548980D01*
X133710763Y-54498223D01*
X133712300Y-54493425D01*
X133729500Y-54443327D01*
X133729500Y-54443323D01*
X133730803Y-54435514D01*
X133731792Y-54427589D01*
X133729606Y-54374738D01*
X133729500Y-54369613D01*
X133729500Y-49447320D01*
X133732139Y-49421875D01*
X133732801Y-49418711D01*
X133734419Y-49411000D01*
X133730452Y-49379176D01*
X133729500Y-49363838D01*
X133729500Y-49363660D01*
X133729499Y-49363648D01*
X133727873Y-49353912D01*
X133726037Y-49342907D01*
X133725303Y-49337877D01*
X133718752Y-49285317D01*
X133718750Y-49285313D01*
X133716484Y-49277698D01*
X133713901Y-49270175D01*
X133688720Y-49223644D01*
X133686375Y-49219087D01*
X133663127Y-49171532D01*
X133658541Y-49165109D01*
X133653620Y-49158786D01*
X133653619Y-49158784D01*
X133614676Y-49122934D01*
X133611002Y-49119408D01*
X133482774Y-48991180D01*
X133449289Y-48929857D01*
X133454273Y-48860165D01*
X133496145Y-48804232D01*
X133561609Y-48779815D01*
X133570455Y-48779499D01*
X133723251Y-48779499D01*
X133723254Y-48779499D01*
X133783342Y-48773040D01*
X133919267Y-48722342D01*
X133985699Y-48672611D01*
X134051160Y-48648195D01*
X134119433Y-48663046D01*
X134147688Y-48684198D01*
X134209181Y-48745691D01*
X134242666Y-48807014D01*
X134245500Y-48833372D01*
X134245500Y-49395703D01*
X134225815Y-49462742D01*
X134184069Y-49499891D01*
X134184793Y-49500904D01*
X134176430Y-49506874D01*
X134086875Y-49596429D01*
X134086874Y-49596432D01*
X134031248Y-49710218D01*
X134020500Y-49783987D01*
X134020500Y-49783988D01*
X134020500Y-49783991D01*
X134020500Y-50106011D01*
X134031248Y-50179782D01*
X134086875Y-50293570D01*
X134176429Y-50383124D01*
X134176430Y-50383124D01*
X134176432Y-50383126D01*
X134290218Y-50438752D01*
X134363987Y-50449500D01*
X135036012Y-50449499D01*
X135109782Y-50438752D01*
X135223568Y-50383126D01*
X135313126Y-50293568D01*
X135368752Y-50179782D01*
X135379500Y-50106013D01*
X135379499Y-49783988D01*
X135368752Y-49710218D01*
X135313126Y-49596432D01*
X135313124Y-49596430D01*
X135313124Y-49596429D01*
X135223569Y-49506874D01*
X135215207Y-49500904D01*
X135216013Y-49499773D01*
X135172452Y-49459966D01*
X135154500Y-49395703D01*
X135154500Y-48626241D01*
X135155280Y-48612356D01*
X135156775Y-48599094D01*
X135159313Y-48576564D01*
X135148580Y-48519842D01*
X135147809Y-48515301D01*
X135139214Y-48458270D01*
X135136685Y-48450071D01*
X135133840Y-48441941D01*
X135106886Y-48390941D01*
X135104796Y-48386801D01*
X135079768Y-48334830D01*
X135074928Y-48327732D01*
X135069819Y-48320809D01*
X135029038Y-48280028D01*
X135025820Y-48276688D01*
X134986579Y-48234396D01*
X134986578Y-48234395D01*
X134986577Y-48234394D01*
X134986575Y-48234392D01*
X134979316Y-48228604D01*
X134979830Y-48227958D01*
X134967526Y-48218516D01*
X134215818Y-47466807D01*
X134182333Y-47405484D01*
X134179499Y-47379126D01*
X134179499Y-46976748D01*
X134179499Y-46976745D01*
X134173040Y-46916658D01*
X134132722Y-46808562D01*
X134122344Y-46780738D01*
X134122343Y-46780737D01*
X134122342Y-46780733D01*
X134078707Y-46722443D01*
X134035404Y-46664595D01*
X133958126Y-46606747D01*
X133919267Y-46577658D01*
X133783342Y-46526960D01*
X133783338Y-46526959D01*
X133723263Y-46520500D01*
X133001748Y-46520500D01*
X133001742Y-46520501D01*
X132941655Y-46526960D01*
X132805738Y-46577655D01*
X132805730Y-46577660D01*
X132689595Y-46664595D01*
X132606890Y-46775079D01*
X132602658Y-46780733D01*
X132551960Y-46916658D01*
X132551959Y-46916662D01*
X132545500Y-46976728D01*
X132545500Y-47754544D01*
X132525815Y-47821583D01*
X132473011Y-47867338D01*
X132403853Y-47877282D01*
X132340297Y-47848257D01*
X132333819Y-47842225D01*
X131910171Y-47418577D01*
X131894043Y-47398716D01*
X131887970Y-47389421D01*
X131887968Y-47389418D01*
X131862655Y-47369716D01*
X131851145Y-47359551D01*
X131851014Y-47359420D01*
X131833884Y-47347189D01*
X131829779Y-47344127D01*
X131788023Y-47311628D01*
X131788022Y-47311627D01*
X131788019Y-47311625D01*
X131788014Y-47311623D01*
X131781027Y-47307841D01*
X131773879Y-47304347D01*
X131723166Y-47289249D01*
X131718285Y-47287685D01*
X131668226Y-47270499D01*
X131660416Y-47269196D01*
X131652486Y-47268207D01*
X131599638Y-47270394D01*
X131594513Y-47270500D01*
X131378499Y-47270500D01*
X131311460Y-47250815D01*
X131265705Y-47198011D01*
X131254499Y-47146500D01*
X131254499Y-46976748D01*
X131254499Y-46976745D01*
X131248040Y-46916658D01*
X131207722Y-46808562D01*
X131197344Y-46780738D01*
X131197343Y-46780737D01*
X131197342Y-46780733D01*
X131153707Y-46722443D01*
X131110404Y-46664595D01*
X131033126Y-46606747D01*
X130994267Y-46577658D01*
X130858342Y-46526960D01*
X130858338Y-46526959D01*
X130798263Y-46520500D01*
X130076748Y-46520500D01*
X130076742Y-46520501D01*
X130016655Y-46526960D01*
X129880738Y-46577655D01*
X129880730Y-46577660D01*
X129764595Y-46664595D01*
X129681890Y-46775079D01*
X129677658Y-46780733D01*
X129626960Y-46916658D01*
X129626959Y-46916662D01*
X129620500Y-46976728D01*
X129620500Y-48323251D01*
X129620501Y-48323257D01*
X129626960Y-48383344D01*
X129677655Y-48519261D01*
X129677659Y-48519269D01*
X129694819Y-48542192D01*
X129719234Y-48607656D01*
X129704381Y-48675929D01*
X129654975Y-48725333D01*
X129595550Y-48740500D01*
X125051361Y-48740500D01*
X125023638Y-48741986D01*
X125023633Y-48741986D01*
X125023621Y-48741987D01*
X125023613Y-48741987D01*
X125023584Y-48741990D01*
X124997262Y-48744820D01*
X124997260Y-48744821D01*
X124907144Y-48773039D01*
X124900639Y-48775076D01*
X124900637Y-48775076D01*
X124900632Y-48775079D01*
X124839312Y-48808562D01*
X124780197Y-48852816D01*
X124780176Y-48852834D01*
X121852830Y-51780181D01*
X121834260Y-51800855D01*
X121834246Y-51800871D01*
X121817628Y-51821494D01*
X121817620Y-51821506D01*
X121770698Y-51911207D01*
X121770695Y-51911212D01*
X121751013Y-51978244D01*
X121751010Y-51978256D01*
X121740500Y-52051360D01*
X121740500Y-59841150D01*
X121720815Y-59908189D01*
X121704181Y-59928831D01*
X117352830Y-64280181D01*
X117334260Y-64300855D01*
X117334246Y-64300871D01*
X117317628Y-64321494D01*
X117317620Y-64321506D01*
X117270698Y-64411207D01*
X117270695Y-64411212D01*
X117251013Y-64478244D01*
X117251010Y-64478256D01*
X117240500Y-64551360D01*
X117240500Y-65448639D01*
X117241986Y-65476361D01*
X117241990Y-65476415D01*
X117244820Y-65502737D01*
X117244821Y-65502739D01*
X117258978Y-65547949D01*
X117275076Y-65599361D01*
X117275078Y-65599365D01*
X117275079Y-65599367D01*
X117308562Y-65660687D01*
X117352816Y-65719802D01*
X117352834Y-65719823D01*
X117821532Y-66188520D01*
X118280187Y-66647175D01*
X118300855Y-66665740D01*
X118321497Y-66682374D01*
X118321503Y-66682377D01*
X118321506Y-66682379D01*
X118411207Y-66729301D01*
X118411212Y-66729304D01*
X118461340Y-66744022D01*
X118478250Y-66748988D01*
X118478254Y-66748988D01*
X118478256Y-66748989D01*
X118490069Y-66750687D01*
X118551362Y-66759500D01*
X120551694Y-66759500D01*
X120618733Y-66779185D01*
X120664488Y-66831989D01*
X120674432Y-66901147D01*
X120650962Y-66957808D01*
X120581276Y-67050900D01*
X120577656Y-67055736D01*
X120564939Y-67089833D01*
X120523068Y-67145767D01*
X120457603Y-67170184D01*
X120448757Y-67170500D01*
X119777220Y-67170500D01*
X119751775Y-67167861D01*
X119740901Y-67165581D01*
X119740898Y-67165581D01*
X119709076Y-67169548D01*
X119693738Y-67170500D01*
X119693557Y-67170500D01*
X119680877Y-67172615D01*
X119672824Y-67173959D01*
X119667762Y-67174696D01*
X119615217Y-67181247D01*
X119607601Y-67183514D01*
X119600076Y-67186098D01*
X119553541Y-67211280D01*
X119548992Y-67213621D01*
X119509564Y-67232898D01*
X119455099Y-67245500D01*
X118501748Y-67245500D01*
X118501742Y-67245501D01*
X118441655Y-67251960D01*
X118305738Y-67302655D01*
X118305730Y-67302660D01*
X118189595Y-67389595D01*
X118102660Y-67505730D01*
X118102656Y-67505736D01*
X118070285Y-67592526D01*
X118028413Y-67648459D01*
X117962949Y-67672875D01*
X117894676Y-67658023D01*
X117866423Y-67636872D01*
X117744156Y-67514605D01*
X117600195Y-67424148D01*
X117600194Y-67424147D01*
X117600193Y-67424147D01*
X117554047Y-67408000D01*
X117439707Y-67367990D01*
X117270759Y-67348955D01*
X117270753Y-67348955D01*
X117101804Y-67367990D01*
X116941316Y-67424148D01*
X116797355Y-67514605D01*
X116677132Y-67634828D01*
X116586675Y-67778789D01*
X116530517Y-67939277D01*
X116511482Y-68108226D01*
X116511482Y-68108231D01*
X116530517Y-68277180D01*
X116571682Y-68394820D01*
X116584358Y-68431048D01*
X116586675Y-68437668D01*
X116657814Y-68550884D01*
X116677132Y-68581629D01*
X116797356Y-68701853D01*
X116941319Y-68792311D01*
X117063277Y-68834985D01*
X117101804Y-68848467D01*
X117270753Y-68867503D01*
X117270756Y-68867503D01*
X117270759Y-68867503D01*
X117439707Y-68848467D01*
X117439710Y-68848466D01*
X117600193Y-68792311D01*
X117744156Y-68701853D01*
X117864380Y-68581629D01*
X117864383Y-68581625D01*
X117865750Y-68579450D01*
X117866999Y-68578344D01*
X117868727Y-68576179D01*
X117869106Y-68576481D01*
X117918084Y-68533158D01*
X117987137Y-68522509D01*
X118050986Y-68550884D01*
X118086925Y-68602086D01*
X118102658Y-68644267D01*
X118121900Y-68669972D01*
X118189595Y-68760404D01*
X118232219Y-68792311D01*
X118305733Y-68847342D01*
X118441658Y-68898040D01*
X118501745Y-68904500D01*
X118696500Y-68904499D01*
X118763539Y-68924183D01*
X118809294Y-68976987D01*
X118820500Y-69028499D01*
X118820500Y-69223757D01*
X118800815Y-69290796D01*
X118748011Y-69336551D01*
X118739835Y-69339938D01*
X118705734Y-69352657D01*
X118705733Y-69352657D01*
X118589595Y-69439595D01*
X118502660Y-69555730D01*
X118502658Y-69555733D01*
X118451960Y-69691658D01*
X118451959Y-69691662D01*
X118445500Y-69751728D01*
X118445500Y-71848251D01*
X118445501Y-71848257D01*
X118451960Y-71908344D01*
X118502655Y-72044261D01*
X118502656Y-72044264D01*
X118502658Y-72044267D01*
X118521136Y-72068951D01*
X118589595Y-72160404D01*
X118641823Y-72199500D01*
X118705733Y-72247342D01*
X118841658Y-72298040D01*
X118901745Y-72304500D01*
X120298254Y-72304499D01*
X120358342Y-72298040D01*
X120494267Y-72247342D01*
X120610404Y-72160404D01*
X120697342Y-72044267D01*
X120748040Y-71908342D01*
X120750800Y-71882664D01*
X120754499Y-71848271D01*
X120754500Y-71848254D01*
X120754500Y-71303500D01*
X120774185Y-71236461D01*
X120826989Y-71190706D01*
X120878500Y-71179500D01*
X121767780Y-71179500D01*
X121793225Y-71182139D01*
X121797120Y-71182955D01*
X121804100Y-71184419D01*
X121835924Y-71180452D01*
X121851262Y-71179500D01*
X121851440Y-71179500D01*
X121851443Y-71179500D01*
X121872205Y-71176034D01*
X121877222Y-71175303D01*
X121924687Y-71169387D01*
X121993646Y-71180629D01*
X122027704Y-71204754D01*
X122104271Y-71281321D01*
X122104273Y-71281322D01*
X122104277Y-71281326D01*
X122218445Y-71339498D01*
X122218446Y-71339498D01*
X122218448Y-71339499D01*
X122218447Y-71339499D01*
X122313161Y-71354500D01*
X122313166Y-71354500D01*
X122676839Y-71354500D01*
X122771552Y-71339499D01*
X122771553Y-71339498D01*
X122771555Y-71339498D01*
X122885723Y-71281326D01*
X122976326Y-71190723D01*
X123019516Y-71105957D01*
X123067490Y-71055163D01*
X123135311Y-71038368D01*
X123201446Y-71060906D01*
X123240483Y-71105956D01*
X123283674Y-71190723D01*
X123283676Y-71190725D01*
X123283678Y-71190728D01*
X123374271Y-71281321D01*
X123374273Y-71281322D01*
X123374277Y-71281326D01*
X123488445Y-71339498D01*
X123488446Y-71339498D01*
X123488448Y-71339499D01*
X123488447Y-71339499D01*
X123583161Y-71354500D01*
X123583166Y-71354500D01*
X123946839Y-71354500D01*
X124041552Y-71339499D01*
X124041553Y-71339498D01*
X124041555Y-71339498D01*
X124155723Y-71281326D01*
X124246326Y-71190723D01*
X124289516Y-71105957D01*
X124337490Y-71055163D01*
X124405311Y-71038368D01*
X124471446Y-71060906D01*
X124510483Y-71105956D01*
X124553674Y-71190723D01*
X124553676Y-71190725D01*
X124553678Y-71190728D01*
X124644271Y-71281321D01*
X124644273Y-71281322D01*
X124644277Y-71281326D01*
X124758445Y-71339498D01*
X124758446Y-71339498D01*
X124758448Y-71339499D01*
X124758447Y-71339499D01*
X124853161Y-71354500D01*
X124853166Y-71354500D01*
X125216839Y-71354500D01*
X125311552Y-71339499D01*
X125311553Y-71339498D01*
X125311555Y-71339498D01*
X125425723Y-71281326D01*
X125516326Y-71190723D01*
X125559516Y-71105957D01*
X125607490Y-71055163D01*
X125675311Y-71038368D01*
X125741446Y-71060906D01*
X125780483Y-71105956D01*
X125823674Y-71190723D01*
X125823676Y-71190725D01*
X125823678Y-71190728D01*
X125914271Y-71281321D01*
X125914273Y-71281322D01*
X125914277Y-71281326D01*
X126028445Y-71339498D01*
X126028446Y-71339498D01*
X126028448Y-71339499D01*
X126028447Y-71339499D01*
X126123161Y-71354500D01*
X126123166Y-71354500D01*
X126486839Y-71354500D01*
X126581552Y-71339499D01*
X126581553Y-71339498D01*
X126581555Y-71339498D01*
X126695723Y-71281326D01*
X126722497Y-71254551D01*
X126783815Y-71221068D01*
X126853507Y-71226050D01*
X126897858Y-71254552D01*
X127352125Y-71708819D01*
X127385610Y-71770142D01*
X127380626Y-71839834D01*
X127338754Y-71895767D01*
X127273290Y-71920184D01*
X127264444Y-71920500D01*
X125152220Y-71920500D01*
X125126775Y-71917861D01*
X125115901Y-71915581D01*
X125115898Y-71915581D01*
X125084076Y-71919548D01*
X125068738Y-71920500D01*
X125068557Y-71920500D01*
X125055877Y-71922615D01*
X125047824Y-71923959D01*
X125042762Y-71924696D01*
X124990217Y-71931247D01*
X124982601Y-71933514D01*
X124975076Y-71936098D01*
X124928541Y-71961280D01*
X124923991Y-71963622D01*
X124876431Y-71986874D01*
X124869976Y-71991482D01*
X124863684Y-71996379D01*
X124827845Y-72035310D01*
X124824299Y-72039005D01*
X123533577Y-73329727D01*
X123513727Y-73345848D01*
X123504419Y-73351929D01*
X123484715Y-73377245D01*
X123474569Y-73388737D01*
X123474425Y-73388880D01*
X123474417Y-73388890D01*
X123462186Y-73406018D01*
X123459131Y-73410114D01*
X123426625Y-73451880D01*
X123422849Y-73458857D01*
X123419345Y-73466023D01*
X123404247Y-73516739D01*
X123402683Y-73521620D01*
X123385499Y-73571672D01*
X123384195Y-73579487D01*
X123383207Y-73587413D01*
X123385394Y-73640261D01*
X123385500Y-73645386D01*
X123385500Y-73856088D01*
X123365815Y-73923127D01*
X123349181Y-73943769D01*
X123283678Y-74009271D01*
X123283673Y-74009278D01*
X123240484Y-74094041D01*
X123192510Y-74144836D01*
X123124689Y-74161631D01*
X123058554Y-74139093D01*
X123019516Y-74094041D01*
X122986598Y-74029437D01*
X122976326Y-74009277D01*
X122976323Y-74009274D01*
X122976321Y-74009271D01*
X122885728Y-73918678D01*
X122885725Y-73918676D01*
X122885723Y-73918674D01*
X122771555Y-73860502D01*
X122771554Y-73860501D01*
X122771551Y-73860500D01*
X122771552Y-73860500D01*
X122676839Y-73845500D01*
X122676834Y-73845500D01*
X122313166Y-73845500D01*
X122313161Y-73845500D01*
X122218447Y-73860500D01*
X122142333Y-73899283D01*
X122104277Y-73918674D01*
X122104276Y-73918675D01*
X122104271Y-73918678D01*
X122013678Y-74009271D01*
X122013675Y-74009276D01*
X122013674Y-74009277D01*
X122006676Y-74023011D01*
X121955500Y-74123447D01*
X121940500Y-74218160D01*
X121940500Y-74271500D01*
X121920815Y-74338539D01*
X121868011Y-74384294D01*
X121816500Y-74395500D01*
X120878499Y-74395500D01*
X120811460Y-74375815D01*
X120765705Y-74323011D01*
X120754499Y-74271500D01*
X120754499Y-73751748D01*
X120754499Y-73751745D01*
X120748040Y-73691658D01*
X120746236Y-73686821D01*
X120697344Y-73555738D01*
X120697343Y-73555737D01*
X120697342Y-73555733D01*
X120630187Y-73466023D01*
X120610404Y-73439595D01*
X120527112Y-73377245D01*
X120494267Y-73352658D01*
X120358342Y-73301960D01*
X120358338Y-73301959D01*
X120298262Y-73295500D01*
X118901748Y-73295500D01*
X118901742Y-73295501D01*
X118841655Y-73301960D01*
X118705738Y-73352655D01*
X118705730Y-73352660D01*
X118589595Y-73439595D01*
X118502660Y-73555730D01*
X118502658Y-73555733D01*
X118451960Y-73691658D01*
X118451959Y-73691662D01*
X118445500Y-73751728D01*
X118445500Y-74271500D01*
X118425815Y-74338539D01*
X118373011Y-74384294D01*
X118321500Y-74395500D01*
X117363055Y-74395500D01*
X117363031Y-74395501D01*
X117335933Y-74395501D01*
X117314558Y-74402445D01*
X117295646Y-74406985D01*
X117273448Y-74410501D01*
X117273443Y-74410502D01*
X117253409Y-74420709D01*
X117235446Y-74428149D01*
X117214076Y-74435093D01*
X117205382Y-74439524D01*
X117204255Y-74437312D01*
X117151725Y-74456041D01*
X117130792Y-74455462D01*
X117000004Y-74440726D01*
X116999997Y-74440726D01*
X116831048Y-74459761D01*
X116670560Y-74515919D01*
X116526599Y-74606376D01*
X116406376Y-74726599D01*
X116315919Y-74870560D01*
X116259761Y-75031048D01*
X116240726Y-75199997D01*
X116240726Y-75200002D01*
X116259761Y-75368951D01*
X116315919Y-75529439D01*
X116406376Y-75673400D01*
X116526600Y-75793624D01*
X116670563Y-75884082D01*
X116792521Y-75926756D01*
X116831048Y-75940238D01*
X116999997Y-75959274D01*
X117000000Y-75959274D01*
X117000003Y-75959274D01*
X117168951Y-75940238D01*
X117192954Y-75931839D01*
X117329437Y-75884082D01*
X117473400Y-75793624D01*
X117593624Y-75673400D01*
X117684082Y-75529437D01*
X117740237Y-75368954D01*
X117740237Y-75368952D01*
X117740238Y-75368950D01*
X117746360Y-75314617D01*
X117773426Y-75250203D01*
X117831021Y-75210647D01*
X117869580Y-75204500D01*
X118321501Y-75204500D01*
X118388540Y-75224185D01*
X118434295Y-75276989D01*
X118445501Y-75328500D01*
X118445501Y-75848257D01*
X118451960Y-75908344D01*
X118502655Y-76044261D01*
X118502656Y-76044264D01*
X118502658Y-76044267D01*
X118528548Y-76078853D01*
X118589595Y-76160404D01*
X118617415Y-76181229D01*
X118705733Y-76247342D01*
X118841658Y-76298040D01*
X118901745Y-76304500D01*
X119071500Y-76304499D01*
X119138539Y-76324183D01*
X119184294Y-76376987D01*
X119195500Y-76428499D01*
X119195500Y-76539432D01*
X119175815Y-76606471D01*
X119123011Y-76652226D01*
X119114836Y-76655613D01*
X119055734Y-76677657D01*
X119055730Y-76677660D01*
X118939595Y-76764595D01*
X118852660Y-76880730D01*
X118852658Y-76880733D01*
X118801960Y-77016658D01*
X118801959Y-77016662D01*
X118795500Y-77076728D01*
X118795500Y-77581088D01*
X118775815Y-77648127D01*
X118759181Y-77668769D01*
X117968769Y-78459181D01*
X117907446Y-78492666D01*
X117881088Y-78495500D01*
X116985932Y-78495500D01*
X116964554Y-78502445D01*
X116945646Y-78506984D01*
X116923450Y-78510500D01*
X116923440Y-78510503D01*
X116903418Y-78520705D01*
X116885447Y-78528149D01*
X116864071Y-78535094D01*
X116864066Y-78535097D01*
X116845880Y-78548310D01*
X116829295Y-78558473D01*
X116809279Y-78568671D01*
X116797882Y-78580067D01*
X116786488Y-78591462D01*
X116786487Y-78591462D01*
X116786485Y-78591465D01*
X116553363Y-78824586D01*
X116492040Y-78858071D01*
X116422348Y-78853087D01*
X116366415Y-78811215D01*
X116342462Y-78750788D01*
X116340238Y-78731049D01*
X116316853Y-78664218D01*
X116284082Y-78570563D01*
X116193624Y-78426600D01*
X116073400Y-78306376D01*
X115982663Y-78249362D01*
X115929439Y-78215919D01*
X115929438Y-78215918D01*
X115929437Y-78215918D01*
X115861706Y-78192218D01*
X115768951Y-78159761D01*
X115600003Y-78140726D01*
X115599997Y-78140726D01*
X115431048Y-78159761D01*
X115270560Y-78215919D01*
X115126599Y-78306376D01*
X115006376Y-78426599D01*
X114915919Y-78570560D01*
X114859761Y-78731048D01*
X114840726Y-78899997D01*
X114840726Y-78900002D01*
X114859761Y-79068951D01*
X114896149Y-79172940D01*
X114911080Y-79215612D01*
X114915919Y-79229439D01*
X114983464Y-79336936D01*
X115006376Y-79373400D01*
X115126600Y-79493624D01*
X115270563Y-79584082D01*
X115431046Y-79640237D01*
X115431049Y-79640238D01*
X115450788Y-79642462D01*
X115515202Y-79669528D01*
X115554757Y-79727123D01*
X115556895Y-79796959D01*
X115524586Y-79853363D01*
X115111465Y-80266485D01*
X115111462Y-80266487D01*
X115111462Y-80266488D01*
X115100067Y-80277882D01*
X115088671Y-80289279D01*
X115078473Y-80309295D01*
X115068310Y-80325880D01*
X115055097Y-80344066D01*
X115055094Y-80344071D01*
X115048149Y-80365447D01*
X115040705Y-80383418D01*
X115030503Y-80403440D01*
X115030500Y-80403450D01*
X115026984Y-80425646D01*
X115022445Y-80444554D01*
X115015500Y-80465932D01*
X115015500Y-80986494D01*
X114995815Y-81053533D01*
X114943011Y-81099288D01*
X114873853Y-81109232D01*
X114810297Y-81080207D01*
X114799168Y-81067794D01*
X114798471Y-81068413D01*
X114793500Y-81062801D01*
X114793498Y-81062799D01*
X114793495Y-81062796D01*
X114793493Y-81062794D01*
X114674532Y-80957403D01*
X114674522Y-80957396D01*
X114660742Y-80950164D01*
X114630689Y-80928050D01*
X114629023Y-80926384D01*
X114625805Y-80923044D01*
X114586579Y-80880768D01*
X114586578Y-80880767D01*
X114586577Y-80880766D01*
X114586575Y-80880764D01*
X114579316Y-80874976D01*
X114579830Y-80874330D01*
X114567526Y-80864888D01*
X114079234Y-80376595D01*
X114069968Y-80366227D01*
X114069346Y-80365447D01*
X114047509Y-80338064D01*
X113999829Y-80305556D01*
X113996063Y-80302883D01*
X113949651Y-80268630D01*
X113942043Y-80264610D01*
X113934308Y-80260885D01*
X113934307Y-80260884D01*
X113934306Y-80260884D01*
X113879172Y-80243877D01*
X113874768Y-80242428D01*
X113820327Y-80223378D01*
X113811909Y-80221784D01*
X113803384Y-80220500D01*
X113803383Y-80220500D01*
X113745699Y-80220500D01*
X113741062Y-80220413D01*
X113739283Y-80220346D01*
X113683416Y-80218255D01*
X113674183Y-80219296D01*
X113674090Y-80218475D01*
X113658716Y-80220500D01*
X113608646Y-80220500D01*
X112266354Y-80220500D01*
X112197450Y-80230539D01*
X112197448Y-80230539D01*
X112197446Y-80230540D01*
X112091160Y-80282499D01*
X112007499Y-80366160D01*
X111955540Y-80472446D01*
X111955539Y-80472448D01*
X111955539Y-80472450D01*
X111945500Y-80541354D01*
X111945500Y-80808646D01*
X111951644Y-80850815D01*
X111955539Y-80877551D01*
X111988777Y-80945540D01*
X112000535Y-81014413D01*
X111988777Y-81054460D01*
X111955539Y-81122448D01*
X111955539Y-81122450D01*
X111945500Y-81191354D01*
X111945500Y-81458646D01*
X111951644Y-81500815D01*
X111955539Y-81527551D01*
X111988777Y-81595540D01*
X112000535Y-81664413D01*
X111988777Y-81704460D01*
X111955539Y-81772448D01*
X111955539Y-81772450D01*
X111945500Y-81841354D01*
X111945500Y-81841359D01*
X111945500Y-82096500D01*
X111925815Y-82163539D01*
X111873011Y-82209294D01*
X111821500Y-82220500D01*
X110988055Y-82220500D01*
X110988031Y-82220501D01*
X110960933Y-82220501D01*
X110939558Y-82227445D01*
X110920646Y-82231985D01*
X110898448Y-82235501D01*
X110898443Y-82235502D01*
X110878409Y-82245709D01*
X110860446Y-82253149D01*
X110839076Y-82260093D01*
X110839071Y-82260096D01*
X110820883Y-82273309D01*
X110804306Y-82283467D01*
X110784279Y-82293672D01*
X110784275Y-82293675D01*
X110766098Y-82311853D01*
X110761485Y-82316466D01*
X110618767Y-82459182D01*
X110557446Y-82492666D01*
X110531088Y-82495500D01*
X109876748Y-82495500D01*
X109876742Y-82495501D01*
X109816655Y-82501960D01*
X109680738Y-82552655D01*
X109680730Y-82552660D01*
X109564594Y-82639596D01*
X109499267Y-82726865D01*
X109443334Y-82768737D01*
X109373643Y-82773721D01*
X109312319Y-82740237D01*
X109300733Y-82726865D01*
X109235405Y-82639596D01*
X109157561Y-82581324D01*
X109119267Y-82552658D01*
X108983342Y-82501960D01*
X108983338Y-82501959D01*
X108923271Y-82495500D01*
X108844671Y-82495500D01*
X108777632Y-82475815D01*
X108731877Y-82423011D01*
X108721933Y-82353853D01*
X108750958Y-82290297D01*
X108809736Y-82252523D01*
X108821238Y-82249734D01*
X108821930Y-82249600D01*
X108821947Y-82249598D01*
X108836039Y-82246886D01*
X108928733Y-82206146D01*
X108985984Y-82166094D01*
X109039865Y-82115570D01*
X116175463Y-73196073D01*
X116183589Y-73185358D01*
X116191076Y-73174935D01*
X116229303Y-73096654D01*
X116248988Y-73029615D01*
X116259500Y-72956503D01*
X116259500Y-63658849D01*
X116279185Y-63591810D01*
X116295819Y-63571168D01*
X118184187Y-61682800D01*
X120147175Y-59719813D01*
X120165740Y-59699145D01*
X120182374Y-59678503D01*
X120229303Y-59588789D01*
X120231670Y-59580730D01*
X120237904Y-59559496D01*
X120248988Y-59521750D01*
X120259500Y-59448638D01*
X120259500Y-52051362D01*
X120258013Y-52023621D01*
X120255179Y-51997263D01*
X120224924Y-51900639D01*
X120191439Y-51839316D01*
X120191437Y-51839312D01*
X120147183Y-51780197D01*
X120147178Y-51780192D01*
X120147175Y-51780187D01*
X120147169Y-51780181D01*
X120147165Y-51780176D01*
X118719818Y-50352830D01*
X118719813Y-50352825D01*
X118699145Y-50334260D01*
X118678503Y-50317626D01*
X118678498Y-50317623D01*
X118678493Y-50317620D01*
X118588792Y-50270698D01*
X118588787Y-50270695D01*
X118521755Y-50251013D01*
X118521743Y-50251010D01*
X118448639Y-50240500D01*
X118448638Y-50240500D01*
X115051362Y-50240500D01*
X115051361Y-50240500D01*
X115023638Y-50241986D01*
X115023633Y-50241986D01*
X115023621Y-50241987D01*
X115023613Y-50241987D01*
X115023584Y-50241990D01*
X114997262Y-50244820D01*
X114997260Y-50244821D01*
X114900642Y-50275075D01*
X114900639Y-50275076D01*
X114900637Y-50275076D01*
X114900632Y-50275079D01*
X114839312Y-50308562D01*
X114780197Y-50352816D01*
X114780176Y-50352834D01*
X111352830Y-53780181D01*
X111334260Y-53800855D01*
X111334246Y-53800871D01*
X111317628Y-53821494D01*
X111317620Y-53821506D01*
X111270698Y-53911207D01*
X111270695Y-53911212D01*
X111251013Y-53978244D01*
X111251010Y-53978256D01*
X111240500Y-54051360D01*
X111240500Y-61589087D01*
X111220815Y-61656126D01*
X111168011Y-61701881D01*
X111098853Y-61711825D01*
X111035297Y-61682800D01*
X111011507Y-61655060D01*
X110993625Y-61626601D01*
X110873400Y-61506376D01*
X110729439Y-61415919D01*
X110729438Y-61415918D01*
X110729437Y-61415918D01*
X110690912Y-61402437D01*
X110568951Y-61359761D01*
X110400003Y-61340726D01*
X110399997Y-61340726D01*
X110231048Y-61359761D01*
X110070560Y-61415919D01*
X109926599Y-61506376D01*
X109806376Y-61626599D01*
X109715919Y-61770560D01*
X109659761Y-61931048D01*
X109640726Y-62099997D01*
X109640726Y-62100004D01*
X109652998Y-62208926D01*
X109640943Y-62277748D01*
X109617459Y-62310490D01*
X109560858Y-62367091D01*
X109499535Y-62400576D01*
X109429843Y-62395592D01*
X109373910Y-62353720D01*
X109349493Y-62288256D01*
X109349888Y-62266153D01*
X109354499Y-62223268D01*
X109354499Y-62223264D01*
X109354500Y-62223255D01*
X109354499Y-61601746D01*
X109348040Y-61541658D01*
X109306784Y-61431048D01*
X109297344Y-61405738D01*
X109297343Y-61405737D01*
X109297342Y-61405733D01*
X109224884Y-61308939D01*
X109210404Y-61289595D01*
X109133126Y-61231747D01*
X109094267Y-61202658D01*
X108958342Y-61151960D01*
X108958338Y-61151959D01*
X108898271Y-61145500D01*
X107975536Y-61145500D01*
X107908497Y-61125815D01*
X107862742Y-61073011D01*
X107852440Y-61006553D01*
X107852462Y-61006376D01*
X107859307Y-60950000D01*
X107853307Y-60900589D01*
X107840149Y-60792218D01*
X107822662Y-60746109D01*
X107783787Y-60643605D01*
X107693498Y-60512799D01*
X107693495Y-60512796D01*
X107693493Y-60512794D01*
X107574530Y-60407401D01*
X107433791Y-60333536D01*
X107279472Y-60295500D01*
X107279471Y-60295500D01*
X107120529Y-60295500D01*
X107120528Y-60295500D01*
X106966208Y-60333536D01*
X106936122Y-60349326D01*
X106867613Y-60363049D01*
X106802561Y-60337555D01*
X106761618Y-60280938D01*
X106754499Y-60239532D01*
X106754499Y-59776746D01*
X106748040Y-59716658D01*
X106741502Y-59699128D01*
X106697344Y-59580738D01*
X106697343Y-59580737D01*
X106697342Y-59580733D01*
X106653183Y-59521743D01*
X106610404Y-59464595D01*
X106511422Y-59390500D01*
X106494267Y-59377658D01*
X106358342Y-59326960D01*
X106358338Y-59326959D01*
X106358339Y-59326959D01*
X106315242Y-59322325D01*
X106250691Y-59295585D01*
X106210845Y-59238192D01*
X106204500Y-59199036D01*
X106204500Y-58578500D01*
X106224185Y-58511461D01*
X106276989Y-58465706D01*
X106328500Y-58454500D01*
X106473254Y-58454500D01*
X106473270Y-58454499D01*
X106514757Y-58450037D01*
X106533341Y-58448040D01*
X106669267Y-58397342D01*
X106785404Y-58310404D01*
X106872342Y-58194267D01*
X106923040Y-58058341D01*
X106925037Y-58039757D01*
X106929499Y-57998270D01*
X106929500Y-57998253D01*
X106929500Y-56976746D01*
X106929499Y-56976729D01*
X106923040Y-56916661D01*
X106923040Y-56916659D01*
X106872342Y-56780733D01*
X106828707Y-56722443D01*
X106785404Y-56664595D01*
X106708126Y-56606747D01*
X106669267Y-56577658D01*
X106669264Y-56577656D01*
X106669261Y-56577655D01*
X106533349Y-56526962D01*
X106533338Y-56526959D01*
X106473270Y-56520500D01*
X106473254Y-56520500D01*
X105126746Y-56520500D01*
X105126729Y-56520500D01*
X105066661Y-56526959D01*
X105066650Y-56526962D01*
X104930738Y-56577655D01*
X104930730Y-56577660D01*
X104814595Y-56664595D01*
X104727660Y-56780730D01*
X104727655Y-56780738D01*
X104676960Y-56916653D01*
X104676927Y-56916797D01*
X104676870Y-56916896D01*
X104674248Y-56923927D01*
X104673108Y-56923502D01*
X104642354Y-56977513D01*
X104580444Y-57009900D01*
X104510852Y-57003674D01*
X104455674Y-56960812D01*
X104438745Y-56923743D01*
X104438252Y-56923927D01*
X104435679Y-56917031D01*
X104435573Y-56916797D01*
X104435539Y-56916653D01*
X104384844Y-56780738D01*
X104384843Y-56780737D01*
X104384842Y-56780733D01*
X104341207Y-56722443D01*
X104297904Y-56664595D01*
X104220626Y-56606747D01*
X104181767Y-56577658D01*
X104181764Y-56577656D01*
X104181761Y-56577655D01*
X104045849Y-56526962D01*
X104045838Y-56526959D01*
X103985770Y-56520500D01*
X103985754Y-56520500D01*
X102639246Y-56520500D01*
X102639229Y-56520500D01*
X102579161Y-56526959D01*
X102579150Y-56526962D01*
X102443238Y-56577655D01*
X102443230Y-56577660D01*
X102327095Y-56664595D01*
X102240160Y-56780730D01*
X102240155Y-56780738D01*
X102189462Y-56916650D01*
X102189459Y-56916661D01*
X102183000Y-56976729D01*
X102183000Y-57998270D01*
X102189459Y-58058338D01*
X102189462Y-58058349D01*
X102240155Y-58194261D01*
X102240156Y-58194264D01*
X102240158Y-58194267D01*
X102269247Y-58233126D01*
X102327095Y-58310404D01*
X102384943Y-58353707D01*
X102443233Y-58397342D01*
X102443237Y-58397343D01*
X102443238Y-58397344D01*
X102579150Y-58448037D01*
X102579153Y-58448037D01*
X102579159Y-58448040D01*
X102591547Y-58449371D01*
X102639229Y-58454499D01*
X102639246Y-58454500D01*
X102784000Y-58454500D01*
X102851039Y-58474185D01*
X102896794Y-58526989D01*
X102908000Y-58578500D01*
X102908000Y-59199037D01*
X102888315Y-59266076D01*
X102835511Y-59311831D01*
X102797254Y-59322327D01*
X102754155Y-59326960D01*
X102618238Y-59377655D01*
X102618230Y-59377660D01*
X102502095Y-59464595D01*
X102438678Y-59549313D01*
X102415158Y-59580733D01*
X102364460Y-59716658D01*
X102364459Y-59716662D01*
X102358000Y-59776728D01*
X102358000Y-60231228D01*
X102338315Y-60298267D01*
X102285511Y-60344022D01*
X102216353Y-60353966D01*
X102204328Y-60351625D01*
X102179477Y-60345500D01*
X102179471Y-60345500D01*
X102020529Y-60345500D01*
X102020528Y-60345500D01*
X101866208Y-60383536D01*
X101725469Y-60457401D01*
X101606506Y-60562794D01*
X101606500Y-60562801D01*
X101516214Y-60693602D01*
X101459850Y-60842218D01*
X101440693Y-60999999D01*
X101440693Y-61000000D01*
X101459851Y-61157783D01*
X101467431Y-61177769D01*
X101472800Y-61247432D01*
X101439653Y-61308939D01*
X101378515Y-61342761D01*
X101337609Y-61344963D01*
X101310046Y-61341857D01*
X101300000Y-61340726D01*
X101299999Y-61340726D01*
X101299998Y-61340726D01*
X101299997Y-61340726D01*
X101131048Y-61359761D01*
X100970560Y-61415919D01*
X100826599Y-61506376D01*
X100706376Y-61626599D01*
X100615919Y-61770560D01*
X100559761Y-61931048D01*
X100540726Y-62099997D01*
X100540726Y-62100002D01*
X100559761Y-62268951D01*
X100591367Y-62359274D01*
X100612359Y-62419267D01*
X100615919Y-62429439D01*
X100685885Y-62540789D01*
X100706376Y-62573400D01*
X100826600Y-62693624D01*
X100970563Y-62784082D01*
X101090727Y-62826129D01*
X101131048Y-62840238D01*
X101299997Y-62859274D01*
X101300000Y-62859274D01*
X101300003Y-62859274D01*
X101468951Y-62840238D01*
X101497695Y-62830180D01*
X101629437Y-62784082D01*
X101773400Y-62693624D01*
X101893624Y-62573400D01*
X101893627Y-62573396D01*
X101900457Y-62562527D01*
X101952792Y-62516236D01*
X102005450Y-62504500D01*
X102419829Y-62504500D01*
X102486868Y-62524185D01*
X102494693Y-62530491D01*
X102494995Y-62530089D01*
X102552848Y-62573396D01*
X102618233Y-62622342D01*
X102740872Y-62668084D01*
X102796802Y-62709954D01*
X102821219Y-62775418D01*
X102806367Y-62843691D01*
X102781880Y-62875159D01*
X102740645Y-62913422D01*
X102734848Y-62920690D01*
X102734205Y-62920177D01*
X102724769Y-62932468D01*
X102401595Y-63255643D01*
X102391228Y-63264908D01*
X102363067Y-63287366D01*
X102363062Y-63287371D01*
X102330558Y-63335043D01*
X102327880Y-63338818D01*
X102293631Y-63385226D01*
X102289598Y-63392856D01*
X102285885Y-63400567D01*
X102268880Y-63455696D01*
X102267431Y-63460098D01*
X102248378Y-63514548D01*
X102246783Y-63522976D01*
X102245500Y-63531495D01*
X102245500Y-63589178D01*
X102245413Y-63593815D01*
X102243255Y-63651461D01*
X102243949Y-63657614D01*
X102231896Y-63726436D01*
X102184548Y-63777816D01*
X102120729Y-63795500D01*
X102105450Y-63795500D01*
X102038411Y-63775815D01*
X102000457Y-63737473D01*
X101993627Y-63726603D01*
X101873400Y-63606376D01*
X101729439Y-63515919D01*
X101729438Y-63515918D01*
X101729437Y-63515918D01*
X101690912Y-63502437D01*
X101568951Y-63459761D01*
X101400003Y-63440726D01*
X101399997Y-63440726D01*
X101231048Y-63459761D01*
X101070560Y-63515919D01*
X100926599Y-63606376D01*
X100806376Y-63726599D01*
X100715919Y-63870560D01*
X100659761Y-64031048D01*
X100640726Y-64199997D01*
X100640726Y-64200002D01*
X100659761Y-64368951D01*
X100715919Y-64529439D01*
X100729310Y-64550750D01*
X100806376Y-64673400D01*
X100926600Y-64793624D01*
X101070563Y-64884082D01*
X101192521Y-64926756D01*
X101231048Y-64940238D01*
X101399997Y-64959274D01*
X101400000Y-64959274D01*
X101400003Y-64959274D01*
X101568951Y-64940238D01*
X101568954Y-64940237D01*
X101729437Y-64884082D01*
X101873400Y-64793624D01*
X101993624Y-64673400D01*
X101993627Y-64673396D01*
X102000457Y-64662527D01*
X102052792Y-64616236D01*
X102105450Y-64604500D01*
X102121500Y-64604500D01*
X102188539Y-64624185D01*
X102234294Y-64676989D01*
X102245500Y-64728500D01*
X102245500Y-64967507D01*
X102244720Y-64981392D01*
X102240686Y-65017186D01*
X102251410Y-65073860D01*
X102252187Y-65078431D01*
X102260785Y-65135478D01*
X102263321Y-65143698D01*
X102266158Y-65151805D01*
X102293114Y-65202810D01*
X102295200Y-65206944D01*
X102320231Y-65258918D01*
X102325071Y-65266018D01*
X102330178Y-65272937D01*
X102330180Y-65272940D01*
X102330182Y-65272942D01*
X102370973Y-65313733D01*
X102374165Y-65317046D01*
X102413423Y-65359356D01*
X102420686Y-65365148D01*
X102420170Y-65365793D01*
X102432475Y-65375235D01*
X102730639Y-65673399D01*
X102739898Y-65683759D01*
X102748214Y-65694187D01*
X102774623Y-65758872D01*
X102761868Y-65827567D01*
X102713999Y-65878462D01*
X102651268Y-65895500D01*
X102605450Y-65895500D01*
X102538411Y-65875815D01*
X102500457Y-65837473D01*
X102493627Y-65826603D01*
X102373400Y-65706376D01*
X102229439Y-65615919D01*
X102229438Y-65615918D01*
X102229437Y-65615918D01*
X102182137Y-65599367D01*
X102068951Y-65559761D01*
X101900003Y-65540726D01*
X101899997Y-65540726D01*
X101731048Y-65559761D01*
X101570560Y-65615919D01*
X101426599Y-65706376D01*
X101306376Y-65826599D01*
X101215919Y-65970560D01*
X101159761Y-66131048D01*
X101140726Y-66299997D01*
X101140726Y-66300002D01*
X101159761Y-66468951D01*
X101215919Y-66629439D01*
X101297521Y-66759308D01*
X101306376Y-66773400D01*
X101426600Y-66893624D01*
X101570563Y-66984082D01*
X101670571Y-67019076D01*
X101731048Y-67040238D01*
X101899997Y-67059274D01*
X101900000Y-67059274D01*
X101900003Y-67059274D01*
X102068951Y-67040238D01*
X102082766Y-67035404D01*
X102229437Y-66984082D01*
X102373400Y-66893624D01*
X102493624Y-66773400D01*
X102493627Y-66773396D01*
X102500457Y-66762527D01*
X102552792Y-66716236D01*
X102605450Y-66704500D01*
X103268588Y-66704500D01*
X103335627Y-66724185D01*
X103356269Y-66740819D01*
X103421771Y-66806321D01*
X103421773Y-66806322D01*
X103421777Y-66806326D01*
X103535945Y-66864498D01*
X103615899Y-66877161D01*
X103679032Y-66907089D01*
X103715963Y-66966400D01*
X103720500Y-66999634D01*
X103720500Y-67185377D01*
X103700815Y-67252416D01*
X103684181Y-67273058D01*
X103423058Y-67534181D01*
X103361735Y-67567666D01*
X103335377Y-67570500D01*
X102808646Y-67570500D01*
X101466354Y-67570500D01*
X101397450Y-67580539D01*
X101397448Y-67580539D01*
X101397446Y-67580540D01*
X101291160Y-67632499D01*
X101207499Y-67716160D01*
X101155540Y-67822446D01*
X101155540Y-67822447D01*
X101155539Y-67822450D01*
X101145500Y-67891354D01*
X101145500Y-68158646D01*
X101155539Y-68227550D01*
X101155539Y-68227551D01*
X101155540Y-68227553D01*
X101207499Y-68333839D01*
X101291160Y-68417500D01*
X101379022Y-68460452D01*
X101397450Y-68469461D01*
X101466354Y-68479500D01*
X102068995Y-68479500D01*
X103542508Y-68479500D01*
X103556390Y-68480279D01*
X103570067Y-68481820D01*
X103592184Y-68484313D01*
X103592184Y-68484312D01*
X103592186Y-68484313D01*
X103648941Y-68473573D01*
X103653369Y-68472821D01*
X103710479Y-68464214D01*
X103710482Y-68464212D01*
X103718721Y-68461670D01*
X103726801Y-68458843D01*
X103726803Y-68458841D01*
X103726807Y-68458841D01*
X103777869Y-68431853D01*
X103781884Y-68429825D01*
X103833921Y-68404767D01*
X103833923Y-68404764D01*
X103833927Y-68404763D01*
X103841023Y-68399924D01*
X103847938Y-68394822D01*
X103847940Y-68394820D01*
X103888758Y-68354000D01*
X103892016Y-68350861D01*
X103934356Y-68311577D01*
X103934360Y-68311569D01*
X103940153Y-68304307D01*
X103940801Y-68304824D01*
X103950233Y-68292525D01*
X104473405Y-67769353D01*
X104483756Y-67760102D01*
X104511936Y-67737631D01*
X104544471Y-67689908D01*
X104547115Y-67686183D01*
X104581369Y-67639773D01*
X104581369Y-67639770D01*
X104585395Y-67632153D01*
X104589112Y-67624433D01*
X104589116Y-67624428D01*
X104606127Y-67569274D01*
X104607557Y-67564927D01*
X104626621Y-67510451D01*
X104626621Y-67510441D01*
X104628216Y-67502015D01*
X104629500Y-67493504D01*
X104629500Y-67435821D01*
X104629587Y-67431183D01*
X104630219Y-67414307D01*
X104631744Y-67373538D01*
X104630704Y-67364306D01*
X104631523Y-67364213D01*
X104629500Y-67348838D01*
X104629500Y-66999634D01*
X104649185Y-66932595D01*
X104701989Y-66886840D01*
X104734096Y-66877161D01*
X104814055Y-66864498D01*
X104814055Y-66864497D01*
X104823695Y-66862971D01*
X104824158Y-66865898D01*
X104878189Y-66864348D01*
X104934363Y-66896597D01*
X104970973Y-66933207D01*
X104974165Y-66936520D01*
X105001890Y-66966400D01*
X105013423Y-66978830D01*
X105020686Y-66984622D01*
X105020170Y-66985267D01*
X105032475Y-66994709D01*
X105361165Y-67323399D01*
X105370431Y-67333767D01*
X105392894Y-67361935D01*
X105392895Y-67361936D01*
X105440566Y-67394437D01*
X105444349Y-67397121D01*
X105490751Y-67431368D01*
X105498365Y-67435391D01*
X105506093Y-67439112D01*
X105506098Y-67439116D01*
X105561244Y-67456126D01*
X105565628Y-67457568D01*
X105620075Y-67476620D01*
X105620078Y-67476621D01*
X105628512Y-67478216D01*
X105637018Y-67479499D01*
X105637021Y-67479500D01*
X105694731Y-67479500D01*
X105699367Y-67479586D01*
X105756988Y-67481743D01*
X105766222Y-67480703D01*
X105766314Y-67481522D01*
X105781685Y-67479500D01*
X106622878Y-67479500D01*
X106689917Y-67499185D01*
X106710559Y-67515819D01*
X106862805Y-67668065D01*
X106896290Y-67729388D01*
X106891306Y-67799080D01*
X106886525Y-67810205D01*
X106880541Y-67822446D01*
X106880539Y-67822450D01*
X106870500Y-67891354D01*
X106870500Y-68158646D01*
X106875916Y-68195819D01*
X106880539Y-68227551D01*
X106913777Y-68295540D01*
X106925535Y-68364413D01*
X106913777Y-68404460D01*
X106880539Y-68472448D01*
X106877942Y-68490274D01*
X106870500Y-68541354D01*
X106870500Y-68541359D01*
X106870500Y-68746500D01*
X106850815Y-68813539D01*
X106798011Y-68859294D01*
X106746500Y-68870500D01*
X106107490Y-68870500D01*
X106093607Y-68869720D01*
X106087785Y-68869064D01*
X106057814Y-68865686D01*
X106001120Y-68876412D01*
X105996555Y-68877188D01*
X105939518Y-68885786D01*
X105931325Y-68888313D01*
X105923195Y-68891158D01*
X105923192Y-68891159D01*
X105923188Y-68891160D01*
X105923188Y-68891161D01*
X105872161Y-68918128D01*
X105868027Y-68920215D01*
X105816081Y-68945231D01*
X105808957Y-68950088D01*
X105802057Y-68955180D01*
X105761275Y-68995963D01*
X105757938Y-68999178D01*
X105715645Y-69038421D01*
X105709849Y-69045689D01*
X105709206Y-69045176D01*
X105699766Y-69057472D01*
X104614093Y-70143144D01*
X104603728Y-70152408D01*
X104575563Y-70174870D01*
X104543058Y-70222543D01*
X104540380Y-70226318D01*
X104506131Y-70272726D01*
X104502098Y-70280356D01*
X104498385Y-70288067D01*
X104481380Y-70343196D01*
X104479931Y-70347598D01*
X104460878Y-70402048D01*
X104459283Y-70410476D01*
X104458000Y-70418995D01*
X104458000Y-70476678D01*
X104457913Y-70481315D01*
X104455755Y-70538964D01*
X104456796Y-70548200D01*
X104455975Y-70548292D01*
X104458000Y-70563665D01*
X104458000Y-72501461D01*
X104438315Y-72568500D01*
X104408310Y-72600729D01*
X104289594Y-72689597D01*
X104202871Y-72805448D01*
X104202658Y-72805733D01*
X104151960Y-72941658D01*
X104151959Y-72941662D01*
X104145500Y-73001728D01*
X104145500Y-73998251D01*
X104145501Y-73998257D01*
X104151960Y-74058344D01*
X104202657Y-74194266D01*
X104202658Y-74194267D01*
X104218363Y-74215247D01*
X104220766Y-74218456D01*
X104245184Y-74283920D01*
X104245500Y-74292768D01*
X104245500Y-75771500D01*
X104225815Y-75838539D01*
X104173011Y-75884294D01*
X104121500Y-75895500D01*
X103124936Y-75895500D01*
X103050698Y-75910266D01*
X102966515Y-75966515D01*
X102910266Y-76050699D01*
X102910264Y-76050703D01*
X102895500Y-76124928D01*
X102895500Y-77875063D01*
X102910266Y-77949301D01*
X102966515Y-78033484D01*
X103011285Y-78063398D01*
X103056090Y-78117010D01*
X103064797Y-78186335D01*
X103034643Y-78249362D01*
X102975200Y-78286082D01*
X102942394Y-78290500D01*
X99971409Y-78290500D01*
X99931058Y-78293658D01*
X99892936Y-78299661D01*
X99880417Y-78301949D01*
X99880414Y-78301950D01*
X99787227Y-78341527D01*
X99729476Y-78380864D01*
X99729476Y-78380865D01*
X99674975Y-78430705D01*
X99674966Y-78430714D01*
X99572618Y-78555426D01*
X99555430Y-78572614D01*
X99453252Y-78656469D01*
X99433041Y-78669974D01*
X99316476Y-78732280D01*
X99294017Y-78741583D01*
X99167531Y-78779952D01*
X99143689Y-78784694D01*
X99012152Y-78797648D01*
X98987846Y-78797648D01*
X98856308Y-78784694D01*
X98832467Y-78779952D01*
X98705980Y-78741583D01*
X98683525Y-78732282D01*
X98566957Y-78669974D01*
X98546747Y-78656470D01*
X98444569Y-78572616D01*
X98427379Y-78555426D01*
X98417648Y-78543569D01*
X98351491Y-78462955D01*
X98325029Y-78430711D01*
X98325019Y-78430700D01*
X98314430Y-78419678D01*
X98296975Y-78401508D01*
X98268161Y-78375858D01*
X98268150Y-78375848D01*
X98258450Y-78367630D01*
X98208550Y-78341527D01*
X98168730Y-78320697D01*
X98168729Y-78320696D01*
X98168726Y-78320695D01*
X98143560Y-78313305D01*
X98084784Y-78275529D01*
X98055761Y-78211972D01*
X98054499Y-78194329D01*
X98054499Y-77174936D01*
X98050977Y-77157228D01*
X98039734Y-77100699D01*
X98030396Y-77086724D01*
X98009520Y-77020049D01*
X98009500Y-77017836D01*
X98009500Y-72982163D01*
X98029185Y-72915124D01*
X98030370Y-72913314D01*
X98039734Y-72899301D01*
X98039734Y-72899300D01*
X98039735Y-72899299D01*
X98054499Y-72825071D01*
X98054500Y-72825067D01*
X98054499Y-71174934D01*
X98039734Y-71100699D01*
X98030396Y-71086724D01*
X98009520Y-71020049D01*
X98009500Y-71017836D01*
X98009500Y-70108646D01*
X101145500Y-70108646D01*
X101155539Y-70177550D01*
X101155539Y-70177551D01*
X101155540Y-70177553D01*
X101207499Y-70283839D01*
X101291160Y-70367500D01*
X101392915Y-70417244D01*
X101397450Y-70419461D01*
X101466354Y-70429500D01*
X101466360Y-70429500D01*
X102808640Y-70429500D01*
X102808646Y-70429500D01*
X102877550Y-70419461D01*
X102931828Y-70392925D01*
X102983839Y-70367500D01*
X103067500Y-70283839D01*
X103118691Y-70179125D01*
X103119461Y-70177550D01*
X103129500Y-70108646D01*
X103129500Y-69841354D01*
X103119461Y-69772450D01*
X103110055Y-69753209D01*
X103067500Y-69666160D01*
X102983839Y-69582499D01*
X102877553Y-69530540D01*
X102877551Y-69530539D01*
X102877550Y-69530539D01*
X102808646Y-69520500D01*
X101466354Y-69520500D01*
X101397450Y-69530539D01*
X101397448Y-69530539D01*
X101397446Y-69530540D01*
X101291160Y-69582499D01*
X101207499Y-69666160D01*
X101155540Y-69772446D01*
X101155540Y-69772447D01*
X101155539Y-69772450D01*
X101145500Y-69841354D01*
X101145500Y-70108646D01*
X98009500Y-70108646D01*
X98009500Y-66982163D01*
X98029185Y-66915124D01*
X98030370Y-66913314D01*
X98039734Y-66899301D01*
X98039734Y-66899300D01*
X98039735Y-66899299D01*
X98054499Y-66825071D01*
X98054500Y-66825067D01*
X98054499Y-65174934D01*
X98039734Y-65100699D01*
X98030396Y-65086724D01*
X98009520Y-65020049D01*
X98009500Y-65017836D01*
X98009500Y-60982163D01*
X98029185Y-60915124D01*
X98030370Y-60913314D01*
X98039734Y-60899301D01*
X98039734Y-60899300D01*
X98039735Y-60899299D01*
X98054499Y-60825071D01*
X98054500Y-60825067D01*
X98054499Y-59174934D01*
X98039734Y-59100699D01*
X98030396Y-59086724D01*
X98009520Y-59020049D01*
X98009500Y-59017836D01*
X98009500Y-55023270D01*
X102183000Y-55023270D01*
X102189459Y-55083338D01*
X102189462Y-55083349D01*
X102240155Y-55219261D01*
X102240156Y-55219264D01*
X102240158Y-55219267D01*
X102252158Y-55235297D01*
X102327095Y-55335404D01*
X102370654Y-55368011D01*
X102443233Y-55422342D01*
X102443237Y-55422343D01*
X102443238Y-55422344D01*
X102579150Y-55473037D01*
X102579153Y-55473037D01*
X102579159Y-55473040D01*
X102591547Y-55474371D01*
X102639229Y-55479499D01*
X102639246Y-55479500D01*
X103985754Y-55479500D01*
X103985770Y-55479499D01*
X104027257Y-55475037D01*
X104045841Y-55473040D01*
X104181767Y-55422342D01*
X104297904Y-55335404D01*
X104384842Y-55219267D01*
X104399052Y-55181167D01*
X104435538Y-55083348D01*
X104435572Y-55083206D01*
X104435628Y-55083106D01*
X104438252Y-55076073D01*
X104439391Y-55076497D01*
X104470143Y-55022488D01*
X104532052Y-54990100D01*
X104601644Y-54996324D01*
X104656824Y-55039184D01*
X104673754Y-55076257D01*
X104674248Y-55076073D01*
X104676821Y-55082973D01*
X104676928Y-55083206D01*
X104676961Y-55083348D01*
X104727655Y-55219261D01*
X104727656Y-55219264D01*
X104727658Y-55219267D01*
X104739658Y-55235297D01*
X104814595Y-55335404D01*
X104858154Y-55368011D01*
X104930733Y-55422342D01*
X104930737Y-55422343D01*
X104930738Y-55422344D01*
X105066650Y-55473037D01*
X105066653Y-55473037D01*
X105066659Y-55473040D01*
X105079047Y-55474371D01*
X105126729Y-55479499D01*
X105126746Y-55479500D01*
X106473254Y-55479500D01*
X106473270Y-55479499D01*
X106514757Y-55475037D01*
X106533341Y-55473040D01*
X106669267Y-55422342D01*
X106785404Y-55335404D01*
X106872342Y-55219267D01*
X106923040Y-55083341D01*
X106923869Y-55075629D01*
X106950604Y-55011079D01*
X107007995Y-54971229D01*
X107077820Y-54968733D01*
X107118095Y-54990082D01*
X107119299Y-54988339D01*
X107125468Y-54992597D01*
X107125469Y-54992597D01*
X107125471Y-54992599D01*
X107266207Y-55066463D01*
X107334684Y-55083341D01*
X107420528Y-55104500D01*
X107420529Y-55104500D01*
X107579472Y-55104500D01*
X107630911Y-55091821D01*
X107733793Y-55066463D01*
X107874529Y-54992599D01*
X107993498Y-54887201D01*
X108083787Y-54756395D01*
X108140149Y-54607782D01*
X108159307Y-54450000D01*
X108140149Y-54292218D01*
X108083787Y-54143605D01*
X107993498Y-54012799D01*
X107993495Y-54012796D01*
X107993493Y-54012794D01*
X107874530Y-53907401D01*
X107733791Y-53833536D01*
X107579472Y-53795500D01*
X107579471Y-53795500D01*
X107420529Y-53795500D01*
X107420528Y-53795500D01*
X107266208Y-53833536D01*
X107125469Y-53907401D01*
X107098970Y-53930878D01*
X107035737Y-53960599D01*
X106966474Y-53951415D01*
X106913171Y-53906242D01*
X106900565Y-53881403D01*
X106872342Y-53805733D01*
X106828707Y-53747443D01*
X106785404Y-53689595D01*
X106708126Y-53631747D01*
X106669267Y-53602658D01*
X106669264Y-53602656D01*
X106669261Y-53602655D01*
X106533349Y-53551962D01*
X106533338Y-53551959D01*
X106473270Y-53545500D01*
X106473254Y-53545500D01*
X105126746Y-53545500D01*
X105126729Y-53545500D01*
X105066661Y-53551959D01*
X105066650Y-53551962D01*
X104930738Y-53602655D01*
X104930730Y-53602660D01*
X104814595Y-53689595D01*
X104727660Y-53805730D01*
X104727655Y-53805738D01*
X104676960Y-53941653D01*
X104676927Y-53941797D01*
X104676870Y-53941896D01*
X104674248Y-53948927D01*
X104673108Y-53948502D01*
X104642354Y-54002513D01*
X104580444Y-54034900D01*
X104510852Y-54028674D01*
X104455674Y-53985812D01*
X104438745Y-53948743D01*
X104438252Y-53948927D01*
X104435679Y-53942031D01*
X104435573Y-53941797D01*
X104435539Y-53941653D01*
X104384844Y-53805738D01*
X104384843Y-53805737D01*
X104384842Y-53805733D01*
X104341207Y-53747443D01*
X104297904Y-53689595D01*
X104220626Y-53631747D01*
X104181767Y-53602658D01*
X104181764Y-53602656D01*
X104181761Y-53602655D01*
X104045849Y-53551962D01*
X104045838Y-53551959D01*
X103985770Y-53545500D01*
X103985754Y-53545500D01*
X102639246Y-53545500D01*
X102639229Y-53545500D01*
X102579161Y-53551959D01*
X102579150Y-53551962D01*
X102443238Y-53602655D01*
X102443230Y-53602660D01*
X102327095Y-53689595D01*
X102240160Y-53805730D01*
X102240155Y-53805738D01*
X102189462Y-53941650D01*
X102189459Y-53941661D01*
X102183000Y-54001729D01*
X102183000Y-55023270D01*
X98009500Y-55023270D01*
X98009500Y-54982163D01*
X98029185Y-54915124D01*
X98030370Y-54913314D01*
X98039734Y-54899301D01*
X98039734Y-54899300D01*
X98039735Y-54899299D01*
X98054499Y-54825071D01*
X98054500Y-54825067D01*
X98054499Y-53174934D01*
X98039734Y-53100699D01*
X98030396Y-53086724D01*
X98009520Y-53020049D01*
X98009500Y-53017836D01*
X98009500Y-48982163D01*
X98029185Y-48915124D01*
X98030370Y-48913314D01*
X98039734Y-48899301D01*
X98039734Y-48899300D01*
X98039735Y-48899299D01*
X98054499Y-48825071D01*
X98054500Y-48825067D01*
X98054499Y-47174934D01*
X98039734Y-47100699D01*
X98021068Y-47072765D01*
X97983484Y-47016515D01*
X97933019Y-46982796D01*
X97899301Y-46960266D01*
X97899299Y-46960265D01*
X97899296Y-46960264D01*
X97846256Y-46949714D01*
X97784345Y-46917329D01*
X97782766Y-46915778D01*
X97719818Y-46852830D01*
X97719813Y-46852825D01*
X97699145Y-46834260D01*
X97678503Y-46817626D01*
X97678498Y-46817623D01*
X97678493Y-46817620D01*
X97588792Y-46770698D01*
X97588787Y-46770695D01*
X97521755Y-46751013D01*
X97521743Y-46751010D01*
X97448639Y-46740500D01*
X97448638Y-46740500D01*
X96551362Y-46740500D01*
X96551361Y-46740500D01*
X96523638Y-46741986D01*
X96523633Y-46741986D01*
X96523621Y-46741987D01*
X96523613Y-46741987D01*
X96523584Y-46741990D01*
X96497262Y-46744820D01*
X96497260Y-46744821D01*
X96400642Y-46775075D01*
X96400639Y-46775076D01*
X96400637Y-46775076D01*
X96400632Y-46775079D01*
X96339312Y-46808562D01*
X96280201Y-46852813D01*
X96280187Y-46852825D01*
X96217230Y-46915781D01*
X96155906Y-46949265D01*
X96153741Y-46949715D01*
X96100702Y-46960264D01*
X96100698Y-46960266D01*
X96016515Y-47016515D01*
X95960266Y-47100699D01*
X95960264Y-47100703D01*
X95949714Y-47153742D01*
X95917329Y-47215653D01*
X95915780Y-47217230D01*
X95852830Y-47280181D01*
X95834260Y-47300855D01*
X95834246Y-47300871D01*
X95817628Y-47321494D01*
X95817620Y-47321506D01*
X95770698Y-47411207D01*
X95770695Y-47411212D01*
X95751013Y-47478244D01*
X95751010Y-47478256D01*
X95740500Y-47551360D01*
X95740500Y-70841150D01*
X95720815Y-70908189D01*
X95704181Y-70928831D01*
X94428831Y-72204181D01*
X94367508Y-72237666D01*
X94341150Y-72240500D01*
X90188857Y-72240500D01*
X90121818Y-72220815D01*
X90085048Y-72184321D01*
X90072556Y-72165200D01*
X90055267Y-72146420D01*
X89920522Y-72000047D01*
X89920517Y-72000043D01*
X89920515Y-72000041D01*
X89743388Y-71862177D01*
X89743382Y-71862173D01*
X89545962Y-71755334D01*
X89545953Y-71755331D01*
X89333652Y-71682447D01*
X89112237Y-71645500D01*
X88887763Y-71645500D01*
X88666347Y-71682447D01*
X88454046Y-71755331D01*
X88454037Y-71755334D01*
X88256617Y-71862173D01*
X88256611Y-71862177D01*
X88079484Y-72000041D01*
X88079481Y-72000044D01*
X87927443Y-72165200D01*
X87914952Y-72184321D01*
X87861806Y-72229678D01*
X87811143Y-72240500D01*
X87307897Y-72240500D01*
X87293552Y-72241195D01*
X87282785Y-72241717D01*
X87282780Y-72241717D01*
X87258911Y-72244038D01*
X87164327Y-72272072D01*
X87164322Y-72272074D01*
X87102335Y-72304297D01*
X87089336Y-72312604D01*
X87063350Y-72329212D01*
X87063349Y-72329212D01*
X87063338Y-72329220D01*
X87062607Y-72329851D01*
X87061729Y-72330248D01*
X87055879Y-72333988D01*
X87055340Y-72333146D01*
X86998974Y-72358707D01*
X86929843Y-72348578D01*
X86915683Y-72340916D01*
X86809523Y-72274211D01*
X86639254Y-72214631D01*
X86639249Y-72214630D01*
X86504960Y-72199500D01*
X86504954Y-72199500D01*
X86415046Y-72199500D01*
X86415039Y-72199500D01*
X86280750Y-72214630D01*
X86280745Y-72214631D01*
X86110476Y-72274211D01*
X85957737Y-72370184D01*
X85830184Y-72497737D01*
X85730506Y-72656374D01*
X85728353Y-72655021D01*
X85689389Y-72698170D01*
X85621960Y-72716477D01*
X85555338Y-72695424D01*
X85510674Y-72641694D01*
X85500500Y-72592503D01*
X85500500Y-70867496D01*
X85520185Y-70800457D01*
X85572989Y-70754702D01*
X85642147Y-70744758D01*
X85705703Y-70773783D01*
X85729164Y-70804469D01*
X85730506Y-70803626D01*
X85796208Y-70908189D01*
X85830184Y-70962262D01*
X85957738Y-71089816D01*
X86001732Y-71117459D01*
X86108297Y-71184419D01*
X86110478Y-71185789D01*
X86255290Y-71236461D01*
X86280745Y-71245368D01*
X86280750Y-71245369D01*
X86362273Y-71254554D01*
X86415040Y-71260499D01*
X86415043Y-71260500D01*
X86415046Y-71260500D01*
X86504957Y-71260500D01*
X86504958Y-71260499D01*
X86572104Y-71252934D01*
X86639249Y-71245369D01*
X86639252Y-71245368D01*
X86639255Y-71245368D01*
X86809522Y-71185789D01*
X86962262Y-71089816D01*
X87089816Y-70962262D01*
X87185789Y-70809522D01*
X87245368Y-70639255D01*
X87246583Y-70628470D01*
X87265565Y-70460003D01*
X87265565Y-70459996D01*
X87245369Y-70280750D01*
X87245368Y-70280745D01*
X87225002Y-70222543D01*
X87185789Y-70110478D01*
X87183910Y-70107488D01*
X87089815Y-69957737D01*
X86962262Y-69830184D01*
X86809523Y-69734211D01*
X86639254Y-69674631D01*
X86639249Y-69674630D01*
X86504960Y-69659500D01*
X86504954Y-69659500D01*
X86415046Y-69659500D01*
X86415039Y-69659500D01*
X86280750Y-69674630D01*
X86280745Y-69674631D01*
X86110476Y-69734211D01*
X85957737Y-69830184D01*
X85830184Y-69957737D01*
X85730506Y-70116374D01*
X85728353Y-70115021D01*
X85689389Y-70158170D01*
X85621960Y-70176477D01*
X85555338Y-70155424D01*
X85510674Y-70101694D01*
X85500500Y-70052503D01*
X85500500Y-65890000D01*
X91024534Y-65890000D01*
X91044312Y-66040234D01*
X91044313Y-66040236D01*
X91091175Y-66153372D01*
X91102302Y-66180233D01*
X91194549Y-66300451D01*
X91314767Y-66392698D01*
X91454764Y-66450687D01*
X91567280Y-66465500D01*
X91567287Y-66465500D01*
X91642713Y-66465500D01*
X91642720Y-66465500D01*
X91755236Y-66450687D01*
X91895233Y-66392698D01*
X92015451Y-66300451D01*
X92107698Y-66180233D01*
X92165687Y-66040236D01*
X92185466Y-65890000D01*
X92165687Y-65739764D01*
X92107698Y-65599767D01*
X92015451Y-65479549D01*
X91895233Y-65387302D01*
X91895229Y-65387300D01*
X91827766Y-65359356D01*
X91755236Y-65329313D01*
X91741171Y-65327461D01*
X91642727Y-65314500D01*
X91642720Y-65314500D01*
X91567280Y-65314500D01*
X91567272Y-65314500D01*
X91454764Y-65329313D01*
X91454763Y-65329313D01*
X91314770Y-65387300D01*
X91314767Y-65387301D01*
X91314767Y-65387302D01*
X91194549Y-65479549D01*
X91132999Y-65559763D01*
X91102300Y-65599770D01*
X91044313Y-65739763D01*
X91044312Y-65739765D01*
X91024534Y-65889999D01*
X91024534Y-65890000D01*
X85500500Y-65890000D01*
X85500500Y-65091700D01*
X88718007Y-65091700D01*
X88718008Y-65091706D01*
X88724467Y-65151793D01*
X88775162Y-65287710D01*
X88775163Y-65287713D01*
X88775165Y-65287716D01*
X88804254Y-65326575D01*
X88862102Y-65403853D01*
X88907510Y-65437844D01*
X88978240Y-65490791D01*
X89114165Y-65541489D01*
X89174252Y-65547949D01*
X89795761Y-65547948D01*
X89855849Y-65541489D01*
X89991774Y-65490791D01*
X90107911Y-65403853D01*
X90194849Y-65287716D01*
X90245547Y-65151791D01*
X90248308Y-65126111D01*
X90250181Y-65108693D01*
X90276919Y-65044142D01*
X90334312Y-65004294D01*
X90373470Y-64997949D01*
X90900614Y-64997949D01*
X90900617Y-64997949D01*
X90921990Y-64991004D01*
X90940907Y-64986462D01*
X90963106Y-64982947D01*
X90983127Y-64972744D01*
X91001099Y-64965299D01*
X91015675Y-64960564D01*
X91053980Y-64954500D01*
X91179472Y-64954500D01*
X91259701Y-64934725D01*
X91333793Y-64916463D01*
X91474529Y-64842599D01*
X91593498Y-64737201D01*
X91593501Y-64737195D01*
X91594323Y-64736270D01*
X91595098Y-64735783D01*
X91599113Y-64732227D01*
X91599704Y-64732894D01*
X91653513Y-64699145D01*
X91687136Y-64694500D01*
X92345934Y-64694500D01*
X92379267Y-64694500D01*
X92420220Y-64701457D01*
X92475541Y-64720815D01*
X92531048Y-64740238D01*
X92699997Y-64759274D01*
X92700000Y-64759274D01*
X92700003Y-64759274D01*
X92868951Y-64740238D01*
X92868954Y-64740237D01*
X93029437Y-64684082D01*
X93173400Y-64593624D01*
X93293624Y-64473400D01*
X93384082Y-64329437D01*
X93440237Y-64168954D01*
X93440237Y-64168953D01*
X93440238Y-64168951D01*
X93459274Y-64000002D01*
X93459274Y-63999997D01*
X93440238Y-63831048D01*
X93423441Y-63783045D01*
X93384082Y-63670563D01*
X93293624Y-63526600D01*
X93173400Y-63406376D01*
X93116304Y-63370500D01*
X93029439Y-63315919D01*
X93029438Y-63315918D01*
X93029437Y-63315918D01*
X92990912Y-63302437D01*
X92868951Y-63259761D01*
X92700003Y-63240726D01*
X92699997Y-63240726D01*
X92531048Y-63259761D01*
X92370560Y-63315919D01*
X92226599Y-63406376D01*
X92106376Y-63526599D01*
X92015918Y-63670561D01*
X92006979Y-63696108D01*
X91974735Y-63788260D01*
X91969768Y-63802454D01*
X91929046Y-63859230D01*
X91864094Y-63884978D01*
X91852726Y-63885500D01*
X91666149Y-63885500D01*
X91599110Y-63865815D01*
X91583925Y-63854318D01*
X91474529Y-63757401D01*
X91333793Y-63683537D01*
X91333792Y-63683536D01*
X91333791Y-63683536D01*
X91179472Y-63645500D01*
X91179471Y-63645500D01*
X91020529Y-63645500D01*
X91020528Y-63645500D01*
X90866208Y-63683536D01*
X90725469Y-63757401D01*
X90606506Y-63862794D01*
X90606500Y-63862801D01*
X90516214Y-63993602D01*
X90485672Y-64074134D01*
X90443493Y-64129837D01*
X90377895Y-64153893D01*
X90309705Y-64138666D01*
X90260572Y-64088989D01*
X90246440Y-64043414D01*
X90245547Y-64035111D01*
X90245547Y-64035107D01*
X90245546Y-64035104D01*
X90194851Y-63899187D01*
X90194850Y-63899186D01*
X90194849Y-63899182D01*
X90151214Y-63840892D01*
X90107911Y-63783044D01*
X90030633Y-63725196D01*
X89991774Y-63696107D01*
X89855849Y-63645409D01*
X89855845Y-63645408D01*
X89795770Y-63638949D01*
X89174255Y-63638949D01*
X89174249Y-63638950D01*
X89114162Y-63645409D01*
X88978245Y-63696104D01*
X88978237Y-63696109D01*
X88862102Y-63783044D01*
X88782798Y-63888985D01*
X88775165Y-63899182D01*
X88724467Y-64035107D01*
X88724466Y-64035111D01*
X88718007Y-64095177D01*
X88718007Y-65091700D01*
X85500500Y-65091700D01*
X85500500Y-62141700D01*
X88718007Y-62141700D01*
X88718008Y-62141706D01*
X88724467Y-62201793D01*
X88775162Y-62337710D01*
X88775163Y-62337713D01*
X88775165Y-62337716D01*
X88791303Y-62359274D01*
X88862102Y-62453853D01*
X88919950Y-62497156D01*
X88978240Y-62540791D01*
X89114165Y-62591489D01*
X89174252Y-62597949D01*
X89795761Y-62597948D01*
X89855849Y-62591489D01*
X89991774Y-62540791D01*
X90107911Y-62453853D01*
X90194849Y-62337716D01*
X90245547Y-62201791D01*
X90248656Y-62172875D01*
X90250181Y-62158693D01*
X90276919Y-62094142D01*
X90334312Y-62054294D01*
X90373470Y-62047949D01*
X90705102Y-62047949D01*
X90762725Y-62062151D01*
X90866207Y-62116463D01*
X90866209Y-62116463D01*
X90866210Y-62116464D01*
X91020528Y-62154500D01*
X91020529Y-62154500D01*
X91179472Y-62154500D01*
X91231403Y-62141700D01*
X91333793Y-62116463D01*
X91474529Y-62042599D01*
X91477764Y-62039733D01*
X91482335Y-62035684D01*
X91545568Y-62005963D01*
X91564561Y-62004500D01*
X91994550Y-62004500D01*
X92061589Y-62024185D01*
X92099543Y-62062527D01*
X92106372Y-62073396D01*
X92106376Y-62073400D01*
X92226600Y-62193624D01*
X92370563Y-62284082D01*
X92492521Y-62326756D01*
X92531048Y-62340238D01*
X92699997Y-62359274D01*
X92700000Y-62359274D01*
X92700003Y-62359274D01*
X92868951Y-62340238D01*
X92876153Y-62337718D01*
X93029437Y-62284082D01*
X93173400Y-62193624D01*
X93293624Y-62073400D01*
X93384082Y-61929437D01*
X93440237Y-61768954D01*
X93440237Y-61768953D01*
X93440238Y-61768951D01*
X93459274Y-61600002D01*
X93459274Y-61599997D01*
X93440238Y-61431048D01*
X93397510Y-61308939D01*
X93384082Y-61270563D01*
X93293624Y-61126600D01*
X93173400Y-61006376D01*
X93083677Y-60949999D01*
X93029439Y-60915919D01*
X93029438Y-60915918D01*
X93029437Y-60915918D01*
X92981942Y-60899299D01*
X92868951Y-60859761D01*
X92700003Y-60840726D01*
X92699997Y-60840726D01*
X92531048Y-60859761D01*
X92370560Y-60915919D01*
X92226599Y-61006376D01*
X92106372Y-61126603D01*
X92099543Y-61137473D01*
X92047208Y-61183764D01*
X91994550Y-61195500D01*
X91750175Y-61195500D01*
X91683136Y-61175815D01*
X91648125Y-61141940D01*
X91629590Y-61115087D01*
X91593498Y-61062799D01*
X91593495Y-61062796D01*
X91593493Y-61062794D01*
X91474529Y-60957401D01*
X91474527Y-60957399D01*
X91366284Y-60900589D01*
X91342672Y-60877743D01*
X91326678Y-60880629D01*
X91310258Y-60877736D01*
X91179472Y-60845500D01*
X91179471Y-60845500D01*
X91020529Y-60845500D01*
X91020528Y-60845500D01*
X90866208Y-60883536D01*
X90725469Y-60957401D01*
X90606506Y-61062794D01*
X90606500Y-61062801D01*
X90521884Y-61185389D01*
X90467601Y-61229379D01*
X90419834Y-61238949D01*
X90373469Y-61238949D01*
X90306430Y-61219264D01*
X90260675Y-61166460D01*
X90250179Y-61128201D01*
X90250111Y-61127570D01*
X90245547Y-61085107D01*
X90242363Y-61076571D01*
X90194851Y-60949187D01*
X90194850Y-60949186D01*
X90194849Y-60949182D01*
X90145708Y-60883536D01*
X90107911Y-60833044D01*
X90030633Y-60775196D01*
X89991774Y-60746107D01*
X89855849Y-60695409D01*
X89855845Y-60695408D01*
X89795770Y-60688949D01*
X89174255Y-60688949D01*
X89174249Y-60688950D01*
X89114162Y-60695409D01*
X88978245Y-60746104D01*
X88978237Y-60746109D01*
X88862102Y-60833044D01*
X88779323Y-60943627D01*
X88775165Y-60949182D01*
X88724467Y-61085107D01*
X88724466Y-61085111D01*
X88718007Y-61145177D01*
X88718007Y-62141700D01*
X85500500Y-62141700D01*
X85500500Y-60110000D01*
X91024534Y-60110000D01*
X91044312Y-60260234D01*
X91044313Y-60260236D01*
X91101483Y-60398257D01*
X91102302Y-60400233D01*
X91194549Y-60520451D01*
X91314767Y-60612698D01*
X91375619Y-60637903D01*
X91387386Y-60642778D01*
X91422952Y-60671439D01*
X91448268Y-60669209D01*
X91454353Y-60670632D01*
X91454760Y-60670685D01*
X91454764Y-60670687D01*
X91567280Y-60685500D01*
X91567287Y-60685500D01*
X91642713Y-60685500D01*
X91642720Y-60685500D01*
X91755236Y-60670687D01*
X91895233Y-60612698D01*
X92015451Y-60520451D01*
X92107698Y-60400233D01*
X92165687Y-60260236D01*
X92185466Y-60110000D01*
X92184241Y-60100699D01*
X92165687Y-59959765D01*
X92165687Y-59959764D01*
X92107698Y-59819767D01*
X92015451Y-59699549D01*
X91895233Y-59607302D01*
X91895229Y-59607300D01*
X91831083Y-59580730D01*
X91755236Y-59549313D01*
X91741171Y-59547461D01*
X91642727Y-59534500D01*
X91642720Y-59534500D01*
X91567280Y-59534500D01*
X91567272Y-59534500D01*
X91454764Y-59549313D01*
X91454763Y-59549313D01*
X91314770Y-59607300D01*
X91314767Y-59607301D01*
X91314767Y-59607302D01*
X91194549Y-59699549D01*
X91135314Y-59776746D01*
X91102300Y-59819770D01*
X91044313Y-59959763D01*
X91044312Y-59959765D01*
X91024534Y-60109999D01*
X91024534Y-60110000D01*
X85500500Y-60110000D01*
X85500500Y-47996346D01*
X85520185Y-47929307D01*
X85572989Y-47883552D01*
X85642147Y-47873608D01*
X85705703Y-47902633D01*
X85743477Y-47961411D01*
X85743980Y-47963173D01*
X85777975Y-48085614D01*
X85777977Y-48085621D01*
X85914239Y-48427613D01*
X85914248Y-48427631D01*
X86063517Y-48709181D01*
X86086686Y-48752883D01*
X86237240Y-48974934D01*
X86293283Y-49057590D01*
X86293290Y-49057600D01*
X86531339Y-49337853D01*
X86531615Y-49338178D01*
X86798887Y-49591351D01*
X87091964Y-49814143D01*
X87091969Y-49814146D01*
X87091973Y-49814149D01*
X87091978Y-49814153D01*
X87407406Y-50003938D01*
X87407411Y-50003941D01*
X87407415Y-50003942D01*
X87407419Y-50003945D01*
X87741519Y-50158517D01*
X87741523Y-50158517D01*
X87741530Y-50158521D01*
X88090404Y-50276070D01*
X88449941Y-50355210D01*
X88815928Y-50395014D01*
X88815933Y-50395014D01*
X89184067Y-50395014D01*
X89184072Y-50395014D01*
X89550059Y-50355210D01*
X89909596Y-50276070D01*
X90258470Y-50158521D01*
X90258477Y-50158517D01*
X90258480Y-50158517D01*
X90592580Y-50003945D01*
X90592589Y-50003941D01*
X90711934Y-49932133D01*
X90908021Y-49814153D01*
X90908026Y-49814149D01*
X90908025Y-49814149D01*
X90908036Y-49814143D01*
X91201113Y-49591351D01*
X91468385Y-49338178D01*
X91706716Y-49057592D01*
X91913314Y-48752883D01*
X92085756Y-48427623D01*
X92222021Y-48085625D01*
X92320510Y-47730899D01*
X92372921Y-47411207D01*
X92380067Y-47367619D01*
X92380067Y-47367616D01*
X92380069Y-47367605D01*
X92400000Y-47000000D01*
X92380069Y-46632395D01*
X92371095Y-46577659D01*
X92320512Y-46269113D01*
X92320511Y-46269112D01*
X92320510Y-46269101D01*
X92222021Y-45914375D01*
X92160307Y-45759484D01*
X92085760Y-45572386D01*
X92085751Y-45572368D01*
X91913313Y-45247116D01*
X91706716Y-44942408D01*
X91706712Y-44942403D01*
X91706709Y-44942399D01*
X91468392Y-44661830D01*
X91468387Y-44661824D01*
X91201117Y-44408653D01*
X91201118Y-44408653D01*
X91201113Y-44408649D01*
X90908036Y-44185857D01*
X90908032Y-44185854D01*
X90908026Y-44185850D01*
X90908021Y-44185846D01*
X90592593Y-43996061D01*
X90592580Y-43996054D01*
X90258480Y-43841483D01*
X90258475Y-43841481D01*
X90258470Y-43841479D01*
X89963253Y-43742009D01*
X89906009Y-43701949D01*
X89879509Y-43637299D01*
X89892169Y-43568586D01*
X89939968Y-43517625D01*
X90002847Y-43500500D01*
X148697153Y-43500500D01*
X148764192Y-43520185D01*
G37*
%TD.AperFunction*%
%TA.AperFunction,Conductor*%
G36*
X105359703Y-74590409D02*
G01*
X105366181Y-74596441D01*
X105696388Y-74926648D01*
X105705654Y-74937016D01*
X105728117Y-74965184D01*
X105728118Y-74965185D01*
X105775789Y-74997686D01*
X105779572Y-75000370D01*
X105825974Y-75034617D01*
X105833599Y-75038646D01*
X105841320Y-75042365D01*
X105870817Y-75051462D01*
X105896469Y-75059375D01*
X105900856Y-75060819D01*
X105921718Y-75068119D01*
X105955294Y-75079869D01*
X105955296Y-75079869D01*
X105955298Y-75079870D01*
X105955299Y-75079870D01*
X105963741Y-75081467D01*
X105972243Y-75082748D01*
X105972244Y-75082749D01*
X106029928Y-75082749D01*
X106034564Y-75082835D01*
X106062204Y-75083870D01*
X106092210Y-75084993D01*
X106092210Y-75084992D01*
X106092211Y-75084993D01*
X106092211Y-75084992D01*
X106101443Y-75083953D01*
X106101535Y-75084773D01*
X106116910Y-75082749D01*
X107446165Y-75082749D01*
X107513204Y-75102434D01*
X107533846Y-75119068D01*
X107946536Y-75531757D01*
X107993592Y-75569678D01*
X108125554Y-75629943D01*
X108269150Y-75650590D01*
X108396214Y-75632320D01*
X108465373Y-75642263D01*
X108518177Y-75688018D01*
X108537862Y-75755057D01*
X108518178Y-75822097D01*
X108509705Y-75833735D01*
X106530162Y-78245177D01*
X106472411Y-78284504D01*
X106434319Y-78290500D01*
X105057606Y-78290500D01*
X104990567Y-78270815D01*
X104944812Y-78218011D01*
X104934868Y-78148853D01*
X104963893Y-78085297D01*
X104988715Y-78063398D01*
X105033484Y-78033484D01*
X105089734Y-77949301D01*
X105104500Y-77875067D01*
X105104499Y-76547700D01*
X105113352Y-76508920D01*
X105111376Y-76508311D01*
X105114116Y-76499428D01*
X105131132Y-76444261D01*
X105132570Y-76439893D01*
X105137063Y-76427052D01*
X105151620Y-76385451D01*
X105151620Y-76385448D01*
X105151621Y-76385446D01*
X105153222Y-76376987D01*
X105154500Y-76368506D01*
X105154500Y-76310794D01*
X105154587Y-76306156D01*
X105156743Y-76248540D01*
X105155703Y-76239308D01*
X105156522Y-76239215D01*
X105154500Y-76223843D01*
X105154500Y-74684122D01*
X105174185Y-74617083D01*
X105226989Y-74571328D01*
X105296147Y-74561384D01*
X105359703Y-74590409D01*
G37*
%TD.AperFunction*%
%TA.AperFunction,Conductor*%
G36*
X121883539Y-75224185D02*
G01*
X121929294Y-75276989D01*
X121940500Y-75328500D01*
X121940500Y-75931839D01*
X121955500Y-76026552D01*
X121964527Y-76044267D01*
X122013674Y-76140723D01*
X122013675Y-76140724D01*
X122013677Y-76140727D01*
X122054180Y-76181229D01*
X122087666Y-76242552D01*
X122090500Y-76268911D01*
X122090500Y-76427051D01*
X122097444Y-76448427D01*
X122101983Y-76467334D01*
X122105501Y-76489540D01*
X122115703Y-76509562D01*
X122123149Y-76527539D01*
X122130093Y-76548911D01*
X122130094Y-76548914D01*
X122143306Y-76567098D01*
X122153471Y-76583686D01*
X122163424Y-76603219D01*
X122163674Y-76603709D01*
X122183352Y-76623387D01*
X122183379Y-76623416D01*
X122703783Y-77143819D01*
X122737268Y-77205142D01*
X122732284Y-77274833D01*
X122690413Y-77330767D01*
X122624948Y-77355184D01*
X122616102Y-77355500D01*
X121559992Y-77355500D01*
X121546109Y-77354720D01*
X121541249Y-77354172D01*
X121510313Y-77350686D01*
X121453641Y-77361409D01*
X121449073Y-77362186D01*
X121403725Y-77369021D01*
X121392021Y-77370786D01*
X121392020Y-77370786D01*
X121392015Y-77370787D01*
X121383829Y-77373311D01*
X121375689Y-77376160D01*
X121324679Y-77403119D01*
X121320543Y-77405207D01*
X121268583Y-77430230D01*
X121261457Y-77435088D01*
X121254557Y-77440180D01*
X121213762Y-77480976D01*
X121210425Y-77484191D01*
X121168145Y-77523422D01*
X121162349Y-77530689D01*
X121161706Y-77530176D01*
X121152266Y-77542472D01*
X120516180Y-78178558D01*
X120454857Y-78212043D01*
X120385165Y-78207059D01*
X120329232Y-78165187D01*
X120304815Y-78099723D01*
X120304499Y-78090904D01*
X120304499Y-77076746D01*
X120298040Y-77016658D01*
X120285238Y-76982334D01*
X120247344Y-76880738D01*
X120247343Y-76880737D01*
X120247342Y-76880733D01*
X120160404Y-76764596D01*
X120160405Y-76764596D01*
X120160403Y-76764594D01*
X120054190Y-76685085D01*
X120012318Y-76629152D01*
X120004500Y-76585818D01*
X120004500Y-76428499D01*
X120024185Y-76361460D01*
X120076989Y-76315705D01*
X120128500Y-76304499D01*
X120298251Y-76304499D01*
X120298254Y-76304499D01*
X120358342Y-76298040D01*
X120494267Y-76247342D01*
X120610404Y-76160404D01*
X120697342Y-76044267D01*
X120748040Y-75908342D01*
X120750800Y-75882664D01*
X120754499Y-75848271D01*
X120754500Y-75848254D01*
X120754500Y-75328500D01*
X120774185Y-75261461D01*
X120826989Y-75215706D01*
X120878500Y-75204500D01*
X121816500Y-75204500D01*
X121883539Y-75224185D01*
G37*
%TD.AperFunction*%
%TA.AperFunction,Conductor*%
G36*
X127702087Y-72699185D02*
G01*
X127722728Y-72715818D01*
X127827654Y-72820745D01*
X127913334Y-72906425D01*
X127929458Y-72926280D01*
X127935536Y-72935582D01*
X127935540Y-72935585D01*
X127960838Y-72955276D01*
X127972357Y-72965448D01*
X127972490Y-72965581D01*
X127989650Y-72977832D01*
X127993727Y-72980873D01*
X128001494Y-72986918D01*
X128028212Y-73007715D01*
X128069024Y-73064426D01*
X128072696Y-73134199D01*
X128039729Y-73193246D01*
X128006376Y-73226599D01*
X127915919Y-73370560D01*
X127859761Y-73531048D01*
X127840726Y-73699997D01*
X127840726Y-73700002D01*
X127859761Y-73868951D01*
X127895645Y-73971500D01*
X127913669Y-74023011D01*
X127915919Y-74029439D01*
X127984819Y-74139093D01*
X128006376Y-74173400D01*
X128126600Y-74293624D01*
X128270563Y-74384082D01*
X128392521Y-74426756D01*
X128431048Y-74440238D01*
X128599997Y-74459274D01*
X128600000Y-74459274D01*
X128600003Y-74459274D01*
X128768951Y-74440238D01*
X128768954Y-74440237D01*
X128929437Y-74384082D01*
X129073400Y-74293624D01*
X129193624Y-74173400D01*
X129193627Y-74173396D01*
X129200457Y-74162527D01*
X129252792Y-74116236D01*
X129305450Y-74104500D01*
X129600381Y-74104500D01*
X129667420Y-74124185D01*
X129713175Y-74176989D01*
X129723671Y-74215247D01*
X129726960Y-74245844D01*
X129777655Y-74381761D01*
X129777656Y-74381764D01*
X129777658Y-74381767D01*
X129806747Y-74420626D01*
X129864595Y-74497904D01*
X129922443Y-74541207D01*
X129980733Y-74584842D01*
X130116658Y-74635540D01*
X130116663Y-74635540D01*
X130116793Y-74635571D01*
X130116887Y-74635624D01*
X130123926Y-74638250D01*
X130123500Y-74639390D01*
X130177511Y-74670142D01*
X130209899Y-74732051D01*
X130203675Y-74801643D01*
X130160815Y-74856823D01*
X130123743Y-74873756D01*
X130123927Y-74874248D01*
X130117064Y-74876807D01*
X130116812Y-74876923D01*
X130116656Y-74876959D01*
X129980738Y-74927655D01*
X129980730Y-74927660D01*
X129864595Y-75014595D01*
X129786390Y-75119068D01*
X129777658Y-75130733D01*
X129726960Y-75266658D01*
X129726959Y-75266662D01*
X129720500Y-75326728D01*
X129720500Y-76139603D01*
X129700815Y-76206642D01*
X129648011Y-76252397D01*
X129578853Y-76262341D01*
X129559034Y-76256238D01*
X129558725Y-76257279D01*
X129548880Y-76254348D01*
X129548879Y-76254347D01*
X129498166Y-76239249D01*
X129493285Y-76237685D01*
X129443226Y-76220499D01*
X129435416Y-76219196D01*
X129427486Y-76218207D01*
X129374638Y-76220394D01*
X129369513Y-76220500D01*
X129283992Y-76220500D01*
X129216953Y-76200815D01*
X129178998Y-76162472D01*
X129165332Y-76140723D01*
X129093624Y-76026600D01*
X128973400Y-75906376D01*
X128937916Y-75884080D01*
X128829439Y-75815919D01*
X128829438Y-75815918D01*
X128829437Y-75815918D01*
X128765724Y-75793624D01*
X128668951Y-75759761D01*
X128500003Y-75740726D01*
X128499997Y-75740726D01*
X128331048Y-75759761D01*
X128170560Y-75815919D01*
X128026599Y-75906376D01*
X127906376Y-76026599D01*
X127821002Y-76162472D01*
X127768667Y-76208763D01*
X127716008Y-76220500D01*
X125678028Y-76220500D01*
X125610989Y-76200815D01*
X125565234Y-76148011D01*
X125555290Y-76078853D01*
X125567542Y-76040207D01*
X125568169Y-76038975D01*
X125574498Y-76026555D01*
X125574498Y-76026552D01*
X125574499Y-76026552D01*
X125589500Y-75931839D01*
X125589500Y-74218160D01*
X125574499Y-74123447D01*
X125573030Y-74120564D01*
X125516326Y-74009277D01*
X125516322Y-74009273D01*
X125516321Y-74009271D01*
X125425728Y-73918678D01*
X125425725Y-73918676D01*
X125425723Y-73918674D01*
X125311555Y-73860502D01*
X125311554Y-73860501D01*
X125311551Y-73860500D01*
X125311552Y-73860500D01*
X125216839Y-73845500D01*
X125216834Y-73845500D01*
X124853166Y-73845500D01*
X124853161Y-73845500D01*
X124758447Y-73860500D01*
X124682333Y-73899283D01*
X124644277Y-73918674D01*
X124644276Y-73918675D01*
X124644271Y-73918678D01*
X124553678Y-74009271D01*
X124553673Y-74009278D01*
X124510484Y-74094041D01*
X124462510Y-74144836D01*
X124394689Y-74161631D01*
X124328554Y-74139093D01*
X124289516Y-74094041D01*
X124256598Y-74029437D01*
X124246326Y-74009277D01*
X124246323Y-74009274D01*
X124246321Y-74009271D01*
X124180819Y-73943769D01*
X124147334Y-73882446D01*
X124144500Y-73856088D01*
X124144500Y-73843556D01*
X124164185Y-73776517D01*
X124180819Y-73755875D01*
X125220876Y-72715819D01*
X125282199Y-72682334D01*
X125308557Y-72679500D01*
X127635048Y-72679500D01*
X127702087Y-72699185D01*
G37*
%TD.AperFunction*%
%TA.AperFunction,Conductor*%
G36*
X111196742Y-62516375D02*
G01*
X111235114Y-62574765D01*
X111240500Y-62610912D01*
X111240500Y-70513628D01*
X111244749Y-70560395D01*
X111244750Y-70560405D01*
X111244751Y-70560406D01*
X111252809Y-70604377D01*
X111265421Y-70649621D01*
X111266791Y-70653233D01*
X111281000Y-70690700D01*
X111288153Y-70719722D01*
X111296086Y-70785052D01*
X111296086Y-70814946D01*
X111288153Y-70880276D01*
X111281000Y-70909298D01*
X111265419Y-70950383D01*
X111252811Y-70995607D01*
X111252809Y-70995619D01*
X111244749Y-71039597D01*
X111244748Y-71039605D01*
X111240500Y-71086361D01*
X111240500Y-72462755D01*
X111220815Y-72529794D01*
X111212343Y-72541432D01*
X109655848Y-74437524D01*
X109598097Y-74476851D01*
X109528252Y-74478713D01*
X109468489Y-74442518D01*
X109437781Y-74379758D01*
X109437267Y-74376493D01*
X109431810Y-74338539D01*
X109429943Y-74325554D01*
X109398679Y-74257097D01*
X109388736Y-74187942D01*
X109389001Y-74186191D01*
X109393013Y-74160859D01*
X109397553Y-74141943D01*
X109404500Y-74120564D01*
X109404500Y-73992432D01*
X109404500Y-72805448D01*
X109424185Y-72738409D01*
X109462530Y-72700453D01*
X109473400Y-72693624D01*
X109593624Y-72573400D01*
X109684082Y-72429437D01*
X109740237Y-72268954D01*
X109740237Y-72268953D01*
X109740238Y-72268951D01*
X109759274Y-72100002D01*
X109759274Y-72099997D01*
X109740238Y-71931048D01*
X109726756Y-71892521D01*
X109684082Y-71770563D01*
X109593624Y-71626600D01*
X109473400Y-71506376D01*
X109329439Y-71415919D01*
X109329438Y-71415918D01*
X109329437Y-71415918D01*
X109290912Y-71402437D01*
X109168951Y-71359761D01*
X109000003Y-71340726D01*
X108999997Y-71340726D01*
X108831048Y-71359761D01*
X108670560Y-71415919D01*
X108526599Y-71506376D01*
X108406376Y-71626599D01*
X108315919Y-71770560D01*
X108259761Y-71931048D01*
X108240726Y-72099997D01*
X108240726Y-72100002D01*
X108259761Y-72268951D01*
X108315919Y-72429439D01*
X108386289Y-72541432D01*
X108406376Y-72573400D01*
X108526600Y-72693624D01*
X108537469Y-72700453D01*
X108583761Y-72752784D01*
X108595500Y-72805448D01*
X108595500Y-73497289D01*
X108575815Y-73564328D01*
X108523011Y-73610083D01*
X108489149Y-73620027D01*
X108443755Y-73626554D01*
X108443753Y-73626554D01*
X108443752Y-73626555D01*
X108413740Y-73640261D01*
X108311789Y-73686820D01*
X108311788Y-73686821D01*
X108264735Y-73724738D01*
X108264731Y-73724742D01*
X107852045Y-74137430D01*
X107790722Y-74170915D01*
X107764364Y-74173749D01*
X106280371Y-74173749D01*
X106213332Y-74154064D01*
X106192690Y-74137430D01*
X105715818Y-73660558D01*
X105682333Y-73599235D01*
X105679499Y-73572877D01*
X105679499Y-73001748D01*
X105679499Y-73001745D01*
X105673040Y-72941658D01*
X105659899Y-72906425D01*
X105622344Y-72805738D01*
X105622343Y-72805737D01*
X105622342Y-72805733D01*
X105542582Y-72699185D01*
X105535405Y-72689597D01*
X105489216Y-72655021D01*
X105419267Y-72602658D01*
X105419266Y-72602657D01*
X105416690Y-72600729D01*
X105374818Y-72544795D01*
X105367000Y-72501461D01*
X105367000Y-70727122D01*
X105386685Y-70660083D01*
X105403319Y-70639441D01*
X106226941Y-69815819D01*
X106288264Y-69782334D01*
X106314622Y-69779500D01*
X106746500Y-69779500D01*
X106813539Y-69799185D01*
X106859294Y-69851989D01*
X106870500Y-69903500D01*
X106870500Y-70108646D01*
X106880539Y-70177550D01*
X106880539Y-70177551D01*
X106880540Y-70177553D01*
X106932499Y-70283839D01*
X107016160Y-70367500D01*
X107117915Y-70417244D01*
X107122450Y-70419461D01*
X107191354Y-70429500D01*
X107334000Y-70429500D01*
X107401039Y-70449185D01*
X107446794Y-70501989D01*
X107458000Y-70553500D01*
X107458000Y-70818587D01*
X107438315Y-70885626D01*
X107421681Y-70906268D01*
X107210489Y-71117459D01*
X107149166Y-71150944D01*
X107108925Y-71152998D01*
X107000004Y-71140726D01*
X106999997Y-71140726D01*
X106831048Y-71159761D01*
X106670560Y-71215919D01*
X106526599Y-71306376D01*
X106406376Y-71426599D01*
X106315919Y-71570560D01*
X106259761Y-71731048D01*
X106240726Y-71899997D01*
X106240726Y-71900002D01*
X106259761Y-72068951D01*
X106315919Y-72229439D01*
X106363083Y-72304500D01*
X106406376Y-72373400D01*
X106526600Y-72493624D01*
X106670563Y-72584082D01*
X106792521Y-72626756D01*
X106831048Y-72640238D01*
X106999997Y-72659274D01*
X107000000Y-72659274D01*
X107000003Y-72659274D01*
X107168951Y-72640238D01*
X107168954Y-72640237D01*
X107329437Y-72584082D01*
X107473400Y-72493624D01*
X107593624Y-72373400D01*
X107684082Y-72229437D01*
X107740237Y-72068954D01*
X107740237Y-72068953D01*
X107740238Y-72068951D01*
X107759274Y-71900002D01*
X107759274Y-71899998D01*
X107753132Y-71845493D01*
X107747000Y-71791073D01*
X107759054Y-71722253D01*
X107782536Y-71689512D01*
X108171035Y-71301015D01*
X108171035Y-71301014D01*
X108178103Y-71293947D01*
X108178108Y-71293940D01*
X108193826Y-71278223D01*
X108202856Y-71260500D01*
X108204027Y-71258202D01*
X108214197Y-71241606D01*
X108217935Y-71236461D01*
X108227404Y-71223429D01*
X108234348Y-71202053D01*
X108241791Y-71184084D01*
X108251998Y-71164055D01*
X108255514Y-71141851D01*
X108260055Y-71122938D01*
X108267000Y-71101566D01*
X108267000Y-70973434D01*
X108267000Y-70553500D01*
X108286685Y-70486461D01*
X108339489Y-70440706D01*
X108391000Y-70429500D01*
X108533640Y-70429500D01*
X108533646Y-70429500D01*
X108602550Y-70419461D01*
X108656828Y-70392925D01*
X108708839Y-70367500D01*
X108792500Y-70283839D01*
X108843691Y-70179125D01*
X108844461Y-70177550D01*
X108854500Y-70108646D01*
X108854500Y-69841354D01*
X108844461Y-69772450D01*
X108844459Y-69772446D01*
X108811223Y-69704461D01*
X108799463Y-69635588D01*
X108811223Y-69595539D01*
X108844460Y-69527552D01*
X108844459Y-69527552D01*
X108844461Y-69527550D01*
X108854500Y-69458646D01*
X108854500Y-69191354D01*
X108853246Y-69182751D01*
X108863057Y-69113578D01*
X108908710Y-69060686D01*
X108916623Y-69056251D01*
X108925901Y-69049924D01*
X108932816Y-69044822D01*
X108939217Y-69038421D01*
X108973636Y-69004000D01*
X108976894Y-69000861D01*
X109019234Y-68961577D01*
X109019238Y-68961569D01*
X109025031Y-68954307D01*
X109025679Y-68954824D01*
X109035111Y-68942525D01*
X109298405Y-68679231D01*
X109308756Y-68669980D01*
X109336936Y-68647509D01*
X109369471Y-68599786D01*
X109372115Y-68596061D01*
X109406369Y-68549651D01*
X109406369Y-68549648D01*
X109410395Y-68542031D01*
X109414112Y-68534311D01*
X109414116Y-68534306D01*
X109431127Y-68479152D01*
X109432557Y-68474805D01*
X109451621Y-68420329D01*
X109451621Y-68420319D01*
X109453216Y-68411893D01*
X109454500Y-68403382D01*
X109454500Y-68345699D01*
X109454587Y-68341061D01*
X109455322Y-68321432D01*
X109456744Y-68283416D01*
X109455704Y-68274184D01*
X109456523Y-68274091D01*
X109454500Y-68258716D01*
X109454500Y-65232499D01*
X109455280Y-65218613D01*
X109459314Y-65182814D01*
X109457689Y-65174224D01*
X109448579Y-65126086D01*
X109447807Y-65121536D01*
X109445871Y-65108693D01*
X109439214Y-65064521D01*
X109439212Y-65064517D01*
X109436684Y-65056322D01*
X109433841Y-65048197D01*
X109433841Y-65048193D01*
X109406871Y-64997165D01*
X109404799Y-64993058D01*
X109379768Y-64941079D01*
X109374925Y-64933977D01*
X109369820Y-64927060D01*
X109329038Y-64886278D01*
X109325820Y-64882938D01*
X109286579Y-64840646D01*
X109286578Y-64840645D01*
X109286577Y-64840644D01*
X109286575Y-64840642D01*
X109279316Y-64834854D01*
X109279830Y-64834208D01*
X109267526Y-64824766D01*
X108971591Y-64528831D01*
X108810250Y-64367489D01*
X108776766Y-64306168D01*
X108781750Y-64236476D01*
X108823622Y-64180543D01*
X108843518Y-64170228D01*
X108842857Y-64168930D01*
X108851553Y-64164498D01*
X108851555Y-64164498D01*
X108871578Y-64154294D01*
X108889548Y-64146851D01*
X108910929Y-64139905D01*
X108929116Y-64126689D01*
X108945694Y-64116530D01*
X108965723Y-64106326D01*
X108981440Y-64090608D01*
X108981447Y-64090603D01*
X109174245Y-63897805D01*
X110189510Y-62882537D01*
X110250831Y-62849054D01*
X110291071Y-62847000D01*
X110373818Y-62856323D01*
X110399999Y-62859274D01*
X110400000Y-62859274D01*
X110400003Y-62859274D01*
X110568951Y-62840238D01*
X110597695Y-62830180D01*
X110729437Y-62784082D01*
X110873400Y-62693624D01*
X110993624Y-62573400D01*
X111011506Y-62544941D01*
X111063840Y-62498649D01*
X111132893Y-62488000D01*
X111196742Y-62516375D01*
G37*
%TD.AperFunction*%
%TA.AperFunction,Conductor*%
G36*
X128139834Y-63699373D02*
G01*
X128195767Y-63741245D01*
X128220184Y-63806709D01*
X128220500Y-63815554D01*
X128220500Y-63916011D01*
X128231248Y-63989782D01*
X128286875Y-64103570D01*
X128376429Y-64193124D01*
X128376430Y-64193124D01*
X128376432Y-64193126D01*
X128490218Y-64248752D01*
X128563987Y-64259500D01*
X128816443Y-64259499D01*
X128883482Y-64279183D01*
X128904124Y-64295818D01*
X129724400Y-65116094D01*
X129757885Y-65177417D01*
X129752901Y-65247108D01*
X129726959Y-65316659D01*
X129726959Y-65316661D01*
X129720500Y-65376728D01*
X129720500Y-66723251D01*
X129720501Y-66723257D01*
X129726960Y-66783344D01*
X129777655Y-66919261D01*
X129777656Y-66919264D01*
X129777658Y-66919267D01*
X129792876Y-66939596D01*
X129864595Y-67035404D01*
X129891759Y-67055738D01*
X129980733Y-67122342D01*
X130116658Y-67173040D01*
X130116663Y-67173040D01*
X130116793Y-67173071D01*
X130116887Y-67173124D01*
X130123926Y-67175750D01*
X130123500Y-67176890D01*
X130177511Y-67207642D01*
X130209899Y-67269551D01*
X130203675Y-67339143D01*
X130160815Y-67394323D01*
X130123743Y-67411256D01*
X130123927Y-67411748D01*
X130117064Y-67414307D01*
X130116812Y-67414423D01*
X130116656Y-67414459D01*
X129980738Y-67465155D01*
X129980730Y-67465160D01*
X129864595Y-67552095D01*
X129785301Y-67658023D01*
X129777658Y-67668233D01*
X129726960Y-67804158D01*
X129726959Y-67804162D01*
X129720500Y-67864228D01*
X129720500Y-68071500D01*
X129700815Y-68138539D01*
X129648011Y-68184294D01*
X129596500Y-68195500D01*
X129305450Y-68195500D01*
X129238411Y-68175815D01*
X129200457Y-68137473D01*
X129193627Y-68126603D01*
X129073400Y-68006376D01*
X128929439Y-67915919D01*
X128929438Y-67915918D01*
X128929437Y-67915918D01*
X128865670Y-67893605D01*
X128768951Y-67859761D01*
X128600003Y-67840726D01*
X128599997Y-67840726D01*
X128431048Y-67859761D01*
X128270560Y-67915919D01*
X128126599Y-68006376D01*
X128006376Y-68126599D01*
X127915919Y-68270560D01*
X127859761Y-68431048D01*
X127840726Y-68599997D01*
X127840726Y-68600002D01*
X127859761Y-68768951D01*
X127895022Y-68869720D01*
X127909292Y-68910502D01*
X127915919Y-68929439D01*
X127961757Y-69002390D01*
X128006376Y-69073400D01*
X128126600Y-69193624D01*
X128270563Y-69284082D01*
X128392521Y-69326756D01*
X128431048Y-69340238D01*
X128599997Y-69359274D01*
X128600000Y-69359274D01*
X128600003Y-69359274D01*
X128768951Y-69340238D01*
X128779488Y-69336551D01*
X128929437Y-69284082D01*
X129073400Y-69193624D01*
X129193624Y-69073400D01*
X129193627Y-69073396D01*
X129200457Y-69062527D01*
X129252792Y-69016236D01*
X129305450Y-69004500D01*
X129596501Y-69004500D01*
X129663540Y-69024185D01*
X129709295Y-69076989D01*
X129720501Y-69128500D01*
X129720501Y-69210757D01*
X129726960Y-69270844D01*
X129777655Y-69406761D01*
X129777656Y-69406764D01*
X129777658Y-69406767D01*
X129802233Y-69439596D01*
X129864595Y-69522904D01*
X129922443Y-69566207D01*
X129980733Y-69609842D01*
X130077335Y-69645873D01*
X130133267Y-69687744D01*
X130157684Y-69753209D01*
X130158000Y-69762054D01*
X130158000Y-69814432D01*
X130138315Y-69881471D01*
X130085511Y-69927226D01*
X130077336Y-69930613D01*
X130018234Y-69952657D01*
X130018230Y-69952660D01*
X129902095Y-70039595D01*
X129820894Y-70148070D01*
X129815158Y-70155733D01*
X129764460Y-70291658D01*
X129764459Y-70291662D01*
X129758000Y-70351728D01*
X129758000Y-70455876D01*
X129738315Y-70522915D01*
X129685511Y-70568670D01*
X129616353Y-70578614D01*
X129604325Y-70576273D01*
X129479472Y-70545500D01*
X129479471Y-70545500D01*
X129320529Y-70545500D01*
X129320528Y-70545500D01*
X129166208Y-70583536D01*
X129025469Y-70657401D01*
X128906506Y-70762794D01*
X128906500Y-70762801D01*
X128816214Y-70893602D01*
X128759850Y-71042218D01*
X128740693Y-71199999D01*
X128740693Y-71200000D01*
X128759850Y-71357781D01*
X128785950Y-71426599D01*
X128816213Y-71506395D01*
X128906502Y-71637201D01*
X128906505Y-71637203D01*
X128908339Y-71639274D01*
X128909205Y-71641117D01*
X128910763Y-71643374D01*
X128910387Y-71643633D01*
X128938059Y-71702508D01*
X128928875Y-71771771D01*
X128883702Y-71825074D01*
X128816882Y-71845493D01*
X128815522Y-71845500D01*
X128613556Y-71845500D01*
X128546517Y-71825815D01*
X128525875Y-71809181D01*
X126895819Y-70179125D01*
X126862334Y-70117802D01*
X126859500Y-70091444D01*
X126859500Y-70072275D01*
X126866219Y-70032011D01*
X126867275Y-70028932D01*
X126879500Y-69993327D01*
X126879500Y-69993324D01*
X126880802Y-69985521D01*
X126881792Y-69977587D01*
X126879606Y-69924727D01*
X126879500Y-69919603D01*
X126879500Y-64908556D01*
X126899185Y-64841517D01*
X126915819Y-64820875D01*
X127462205Y-64274489D01*
X128008821Y-63727872D01*
X128070142Y-63694389D01*
X128139834Y-63699373D01*
G37*
%TD.AperFunction*%
%TA.AperFunction,Conductor*%
G36*
X120559701Y-68025008D02*
G01*
X120577764Y-68044409D01*
X120579835Y-68047175D01*
X120664595Y-68160404D01*
X120711479Y-68195500D01*
X120780733Y-68247342D01*
X120916658Y-68298040D01*
X120976745Y-68304500D01*
X121666443Y-68304499D01*
X121733482Y-68324183D01*
X121754124Y-68340818D01*
X122079181Y-68665875D01*
X122112666Y-68727198D01*
X122115500Y-68753556D01*
X122115500Y-68906088D01*
X122095815Y-68973127D01*
X122079181Y-68993769D01*
X122013678Y-69059271D01*
X122013675Y-69059276D01*
X122013674Y-69059277D01*
X121994283Y-69097333D01*
X121955500Y-69173447D01*
X121940500Y-69268160D01*
X121940500Y-70091444D01*
X121920815Y-70158483D01*
X121904181Y-70179125D01*
X121699125Y-70384181D01*
X121637802Y-70417666D01*
X121611444Y-70420500D01*
X120878499Y-70420500D01*
X120811460Y-70400815D01*
X120765705Y-70348011D01*
X120754499Y-70296500D01*
X120754499Y-69751748D01*
X120754499Y-69751745D01*
X120748040Y-69691658D01*
X120736767Y-69661433D01*
X120697344Y-69555738D01*
X120697343Y-69555737D01*
X120697342Y-69555733D01*
X120647582Y-69489261D01*
X120610404Y-69439595D01*
X120495183Y-69353344D01*
X120494267Y-69352658D01*
X120358342Y-69301960D01*
X120358338Y-69301959D01*
X120298271Y-69295500D01*
X120298255Y-69295500D01*
X119703500Y-69295500D01*
X119636461Y-69275815D01*
X119590706Y-69223011D01*
X119579500Y-69171500D01*
X119579500Y-69028499D01*
X119599185Y-68961460D01*
X119651989Y-68915705D01*
X119703500Y-68904499D01*
X119898251Y-68904499D01*
X119898254Y-68904499D01*
X119958342Y-68898040D01*
X120094267Y-68847342D01*
X120210404Y-68760404D01*
X120297342Y-68644267D01*
X120348040Y-68508342D01*
X120351823Y-68473156D01*
X120354499Y-68448271D01*
X120354499Y-68448264D01*
X120354500Y-68448255D01*
X120354499Y-68118719D01*
X120374183Y-68051682D01*
X120426987Y-68005927D01*
X120496146Y-67995983D01*
X120559701Y-68025008D01*
G37*
%TD.AperFunction*%
%TA.AperFunction,Conductor*%
G36*
X124238483Y-66779185D02*
G01*
X124259125Y-66795819D01*
X124619181Y-67155875D01*
X124652666Y-67217198D01*
X124655500Y-67243556D01*
X124655500Y-68906088D01*
X124635815Y-68973127D01*
X124619181Y-68993769D01*
X124553678Y-69059271D01*
X124553673Y-69059278D01*
X124510484Y-69144041D01*
X124462510Y-69194836D01*
X124394689Y-69211631D01*
X124328554Y-69189093D01*
X124289516Y-69144041D01*
X124265990Y-69097869D01*
X124246326Y-69059277D01*
X124246323Y-69059274D01*
X124246321Y-69059271D01*
X124180819Y-68993769D01*
X124147334Y-68932446D01*
X124144500Y-68906088D01*
X124144500Y-68601951D01*
X124164185Y-68534912D01*
X124166451Y-68531510D01*
X124183787Y-68506395D01*
X124240149Y-68357782D01*
X124259307Y-68200000D01*
X124256370Y-68175815D01*
X124240149Y-68042218D01*
X124226556Y-68006376D01*
X124183787Y-67893605D01*
X124093498Y-67762799D01*
X124093495Y-67762796D01*
X124093493Y-67762794D01*
X123974530Y-67657401D01*
X123833791Y-67583536D01*
X123679472Y-67545500D01*
X123679471Y-67545500D01*
X123520529Y-67545500D01*
X123520528Y-67545500D01*
X123366208Y-67583536D01*
X123225469Y-67657401D01*
X123106506Y-67762794D01*
X123106500Y-67762801D01*
X123016214Y-67893602D01*
X122959850Y-68042218D01*
X122943888Y-68173683D01*
X122916266Y-68237861D01*
X122858332Y-68276917D01*
X122788479Y-68278452D01*
X122733111Y-68246417D01*
X122507028Y-68020334D01*
X122473543Y-67959011D01*
X122473930Y-67916238D01*
X122472211Y-67916054D01*
X122479499Y-67848271D01*
X122479499Y-67848264D01*
X122479500Y-67848255D01*
X122479499Y-67251746D01*
X122473040Y-67191658D01*
X122470697Y-67185377D01*
X122422344Y-67055738D01*
X122422343Y-67055736D01*
X122422342Y-67055733D01*
X122349037Y-66957808D01*
X122324622Y-66892345D01*
X122339474Y-66824072D01*
X122388880Y-66774667D01*
X122448306Y-66759500D01*
X124171444Y-66759500D01*
X124238483Y-66779185D01*
G37*
%TD.AperFunction*%
%TA.AperFunction,Conductor*%
G36*
X126039834Y-65429666D02*
G01*
X126095767Y-65471538D01*
X126120184Y-65537002D01*
X126120500Y-65545848D01*
X126120500Y-68790499D01*
X126100815Y-68857538D01*
X126048011Y-68903293D01*
X126034828Y-68908427D01*
X126028449Y-68910500D01*
X126028445Y-68910501D01*
X126028445Y-68910502D01*
X125914277Y-68968674D01*
X125914276Y-68968675D01*
X125914271Y-68968678D01*
X125823678Y-69059271D01*
X125823673Y-69059278D01*
X125780484Y-69144041D01*
X125732510Y-69194836D01*
X125664689Y-69211631D01*
X125598554Y-69189093D01*
X125559516Y-69144041D01*
X125535990Y-69097869D01*
X125516326Y-69059277D01*
X125516323Y-69059274D01*
X125516321Y-69059271D01*
X125450819Y-68993769D01*
X125417334Y-68932446D01*
X125414500Y-68906088D01*
X125414500Y-67087220D01*
X125417139Y-67061775D01*
X125417801Y-67058611D01*
X125419419Y-67050900D01*
X125415452Y-67019076D01*
X125414500Y-67003738D01*
X125414500Y-67003559D01*
X125413023Y-66994709D01*
X125411034Y-66982789D01*
X125410299Y-66977741D01*
X125403752Y-66925218D01*
X125403751Y-66925216D01*
X125403751Y-66925214D01*
X125401489Y-66917618D01*
X125398900Y-66910074D01*
X125398900Y-66910073D01*
X125373699Y-66863507D01*
X125371375Y-66858990D01*
X125348125Y-66811429D01*
X125343541Y-66805009D01*
X125338620Y-66798686D01*
X125338619Y-66798684D01*
X125335161Y-66795501D01*
X125330836Y-66791519D01*
X125299676Y-66762834D01*
X125296002Y-66759308D01*
X125039521Y-66502827D01*
X125006036Y-66441504D01*
X125011020Y-66371812D01*
X125039518Y-66327469D01*
X125213615Y-66153372D01*
X125229461Y-66136021D01*
X125243829Y-66118782D01*
X125258051Y-66100053D01*
X125293612Y-66048533D01*
X125313433Y-66026160D01*
X125369537Y-65976456D01*
X125386015Y-65964137D01*
X125398616Y-65956258D01*
X125428666Y-65934145D01*
X125458356Y-65908630D01*
X125908819Y-65458167D01*
X125970142Y-65424682D01*
X126039834Y-65429666D01*
G37*
%TD.AperFunction*%
%TA.AperFunction,Conductor*%
G36*
X108481524Y-65437844D02*
G01*
X108530657Y-65487520D01*
X108545500Y-65546348D01*
X108545500Y-67446500D01*
X108525815Y-67513539D01*
X108473011Y-67559294D01*
X108421500Y-67570500D01*
X108102122Y-67570500D01*
X108035083Y-67550815D01*
X108014441Y-67534181D01*
X107324504Y-66844244D01*
X107291019Y-66782921D01*
X107296003Y-66713229D01*
X107301701Y-66700267D01*
X107351998Y-66601555D01*
X107351998Y-66601553D01*
X107351999Y-66601552D01*
X107367000Y-66506839D01*
X107367000Y-66143160D01*
X107352918Y-66054251D01*
X107361873Y-65984958D01*
X107406869Y-65931506D01*
X107473620Y-65910866D01*
X107505062Y-65914455D01*
X107608380Y-65939921D01*
X107608381Y-65939921D01*
X107767323Y-65939921D01*
X107818762Y-65927242D01*
X107921644Y-65901884D01*
X108062380Y-65828020D01*
X108181349Y-65722622D01*
X108271638Y-65591816D01*
X108305558Y-65502374D01*
X108347736Y-65446674D01*
X108413334Y-65422617D01*
X108481524Y-65437844D01*
G37*
%TD.AperFunction*%
%TD*%
M02*
