%TF.GenerationSoftware,KiCad,Pcbnew,7.0.11-7.0.11~ubuntu22.04.1*%
%TF.CreationDate,2024-07-12T12:17:06+05:30*%
%TF.ProjectId,goodtorch,676f6f64-746f-4726-9368-2e6b69636164,rev?*%
%TF.SameCoordinates,Original*%
%TF.FileFunction,Paste,Top*%
%TF.FilePolarity,Positive*%
%FSLAX46Y46*%
G04 Gerber Fmt 4.6, Leading zero omitted, Abs format (unit mm)*
G04 Created by KiCad (PCBNEW 7.0.11-7.0.11~ubuntu22.04.1) date 2024-07-12 12:17:06*
%MOMM*%
%LPD*%
G01*
G04 APERTURE LIST*
G04 Aperture macros list*
%AMRoundRect*
0 Rectangle with rounded corners*
0 $1 Rounding radius*
0 $2 $3 $4 $5 $6 $7 $8 $9 X,Y pos of 4 corners*
0 Add a 4 corners polygon primitive as box body*
4,1,4,$2,$3,$4,$5,$6,$7,$8,$9,$2,$3,0*
0 Add four circle primitives for the rounded corners*
1,1,$1+$1,$2,$3*
1,1,$1+$1,$4,$5*
1,1,$1+$1,$6,$7*
1,1,$1+$1,$8,$9*
0 Add four rect primitives between the rounded corners*
20,1,$1+$1,$2,$3,$4,$5,0*
20,1,$1+$1,$4,$5,$6,$7,0*
20,1,$1+$1,$6,$7,$8,$9,0*
20,1,$1+$1,$8,$9,$2,$3,0*%
%AMFreePoly0*
4,1,9,3.862500,-0.866500,0.737500,-0.866500,0.737500,-0.450000,-0.737500,-0.450000,-0.737500,0.450000,0.737500,0.450000,0.737500,0.866500,3.862500,0.866500,3.862500,-0.866500,3.862500,-0.866500,$1*%
G04 Aperture macros list end*
%ADD10R,1.700000X1.000000*%
%ADD11RoundRect,0.250000X0.312500X0.625000X-0.312500X0.625000X-0.312500X-0.625000X0.312500X-0.625000X0*%
%ADD12RoundRect,0.250000X-0.475000X0.250000X-0.475000X-0.250000X0.475000X-0.250000X0.475000X0.250000X0*%
%ADD13RoundRect,0.250000X-0.312500X-0.625000X0.312500X-0.625000X0.312500X0.625000X-0.312500X0.625000X0*%
%ADD14RoundRect,0.250000X0.512652X0.159099X0.159099X0.512652X-0.512652X-0.159099X-0.159099X-0.512652X0*%
%ADD15RoundRect,0.100000X-0.637500X-0.100000X0.637500X-0.100000X0.637500X0.100000X-0.637500X0.100000X0*%
%ADD16RoundRect,0.250000X0.450000X-0.262500X0.450000X0.262500X-0.450000X0.262500X-0.450000X-0.262500X0*%
%ADD17RoundRect,0.250000X0.650000X-0.325000X0.650000X0.325000X-0.650000X0.325000X-0.650000X-0.325000X0*%
%ADD18RoundRect,0.250000X-0.450000X0.262500X-0.450000X-0.262500X0.450000X-0.262500X0.450000X0.262500X0*%
%ADD19RoundRect,0.250000X-0.650000X1.000000X-0.650000X-1.000000X0.650000X-1.000000X0.650000X1.000000X0*%
%ADD20RoundRect,0.375000X0.375000X0.375000X-0.375000X0.375000X-0.375000X-0.375000X0.375000X-0.375000X0*%
%ADD21RoundRect,0.125000X0.250000X0.125000X-0.250000X0.125000X-0.250000X-0.125000X0.250000X-0.125000X0*%
%ADD22RoundRect,0.100000X0.275000X0.100000X-0.275000X0.100000X-0.275000X-0.100000X0.275000X-0.100000X0*%
%ADD23RoundRect,0.225000X0.425000X0.225000X-0.425000X0.225000X-0.425000X-0.225000X0.425000X-0.225000X0*%
%ADD24FreePoly0,180.000000*%
%ADD25RoundRect,0.250000X0.250000X0.475000X-0.250000X0.475000X-0.250000X-0.475000X0.250000X-0.475000X0*%
%ADD26RoundRect,0.100000X0.637500X0.100000X-0.637500X0.100000X-0.637500X-0.100000X0.637500X-0.100000X0*%
%ADD27RoundRect,0.250000X0.262500X0.450000X-0.262500X0.450000X-0.262500X-0.450000X0.262500X-0.450000X0*%
%ADD28RoundRect,0.250001X0.624999X-0.462499X0.624999X0.462499X-0.624999X0.462499X-0.624999X-0.462499X0*%
%ADD29R,4.000000X7.000000*%
%ADD30RoundRect,0.250000X0.625000X-0.312500X0.625000X0.312500X-0.625000X0.312500X-0.625000X-0.312500X0*%
%ADD31RoundRect,0.250000X-0.625000X0.312500X-0.625000X-0.312500X0.625000X-0.312500X0.625000X0.312500X0*%
%ADD32RoundRect,0.250000X0.375000X0.625000X-0.375000X0.625000X-0.375000X-0.625000X0.375000X-0.625000X0*%
%ADD33RoundRect,0.150000X0.150000X-0.825000X0.150000X0.825000X-0.150000X0.825000X-0.150000X-0.825000X0*%
%ADD34RoundRect,0.150000X-0.512500X-0.150000X0.512500X-0.150000X0.512500X0.150000X-0.512500X0.150000X0*%
%ADD35RoundRect,0.375000X-0.375000X-0.375000X0.375000X-0.375000X0.375000X0.375000X-0.375000X0.375000X0*%
%ADD36RoundRect,0.125000X-0.250000X-0.125000X0.250000X-0.125000X0.250000X0.125000X-0.250000X0.125000X0*%
%ADD37RoundRect,0.100000X-0.275000X-0.100000X0.275000X-0.100000X0.275000X0.100000X-0.275000X0.100000X0*%
%ADD38RoundRect,0.250000X0.475000X-0.250000X0.475000X0.250000X-0.475000X0.250000X-0.475000X-0.250000X0*%
%ADD39RoundRect,0.250000X-0.262500X-0.450000X0.262500X-0.450000X0.262500X0.450000X-0.262500X0.450000X0*%
%ADD40RoundRect,0.250000X1.000000X0.650000X-1.000000X0.650000X-1.000000X-0.650000X1.000000X-0.650000X0*%
G04 APERTURE END LIST*
D10*
%TO.C,SW1*%
X136190000Y-76675000D03*
X142490000Y-76675000D03*
X136190000Y-80475000D03*
X142490000Y-80475000D03*
%TD*%
D11*
%TO.C,R5*%
X133962500Y-83746666D03*
X131037500Y-83746666D03*
%TD*%
D12*
%TO.C,C24*%
X138510000Y-67050000D03*
X138510000Y-68950000D03*
%TD*%
D13*
%TO.C,R3*%
X130537500Y-76000000D03*
X133462500Y-76000000D03*
%TD*%
D14*
%TO.C,C16*%
X109771751Y-75971751D03*
X108428249Y-74628249D03*
%TD*%
D15*
%TO.C,U1*%
X112937500Y-80675000D03*
X112937500Y-81325000D03*
X112937500Y-81975000D03*
X112937500Y-82625000D03*
X112937500Y-83275000D03*
X112937500Y-83925000D03*
X112937500Y-84575000D03*
X112937500Y-85225000D03*
X112937500Y-85875000D03*
X112937500Y-86525000D03*
X118662500Y-86525000D03*
X118662500Y-85875000D03*
X118662500Y-85225000D03*
X118662500Y-84575000D03*
X118662500Y-83925000D03*
X118662500Y-83275000D03*
X118662500Y-82625000D03*
X118662500Y-81975000D03*
X118662500Y-81325000D03*
X118662500Y-80675000D03*
%TD*%
D11*
%TO.C,R10*%
X133462500Y-68537500D03*
X130537500Y-68537500D03*
%TD*%
D16*
%TO.C,R21*%
X108400000Y-61912500D03*
X108400000Y-60087500D03*
%TD*%
D17*
%TO.C,C14*%
X119200000Y-68075000D03*
X119200000Y-65125000D03*
%TD*%
D18*
%TO.C,R18*%
X105800000Y-60087500D03*
X105800000Y-61912500D03*
%TD*%
D19*
%TO.C,D4*%
X119600000Y-70800000D03*
X119600000Y-74800000D03*
%TD*%
D11*
%TO.C,R4*%
X133962500Y-79000000D03*
X131037500Y-79000000D03*
%TD*%
D13*
%TO.C,R13*%
X130437500Y-47650000D03*
X133362500Y-47650000D03*
%TD*%
D20*
%TO.C,Q3*%
X132000000Y-52700000D03*
X132000000Y-51000000D03*
X130300000Y-52700000D03*
X130300000Y-51000000D03*
D21*
X128895000Y-53755000D03*
X128895000Y-52485000D03*
X128895000Y-51215000D03*
X128895000Y-49945000D03*
D22*
X134700000Y-53755000D03*
X134700000Y-52485000D03*
X134700000Y-51215000D03*
X134700000Y-49945000D03*
%TD*%
D23*
%TO.C,U4*%
X99000000Y-86000000D03*
D24*
X98912500Y-84500000D03*
D23*
X99000000Y-83000000D03*
%TD*%
D25*
%TO.C,C9*%
X112550000Y-67400000D03*
X110650000Y-67400000D03*
%TD*%
D13*
%TO.C,R2*%
X130537500Y-73512500D03*
X133462500Y-73512500D03*
%TD*%
D11*
%TO.C,R1*%
X133962500Y-81373333D03*
X131037500Y-81373333D03*
%TD*%
D18*
%TO.C,R12*%
X103312500Y-60087500D03*
X103312500Y-61912500D03*
%TD*%
D26*
%TO.C,U6*%
X107862500Y-69975000D03*
X107862500Y-69325000D03*
X107862500Y-68675000D03*
X107862500Y-68025000D03*
X102137500Y-68025000D03*
X102137500Y-68675000D03*
X102137500Y-69325000D03*
X102137500Y-69975000D03*
%TD*%
D11*
%TO.C,R7*%
X133962500Y-86120000D03*
X131037500Y-86120000D03*
%TD*%
D12*
%TO.C,C25*%
X142520000Y-67050000D03*
X142520000Y-68950000D03*
%TD*%
D27*
%TO.C,R8*%
X89485007Y-64593449D03*
X87660007Y-64593449D03*
%TD*%
D12*
%TO.C,C7*%
X108400000Y-83250000D03*
X108400000Y-85150000D03*
%TD*%
D11*
%TO.C,R14*%
X133462500Y-66050000D03*
X130537500Y-66050000D03*
%TD*%
D27*
%TO.C,R6*%
X89485007Y-61643449D03*
X87660007Y-61643449D03*
%TD*%
D12*
%TO.C,C20*%
X138270000Y-71222500D03*
X138270000Y-73122500D03*
%TD*%
%TO.C,C26*%
X140520000Y-67050000D03*
X140520000Y-68950000D03*
%TD*%
D25*
%TO.C,C11*%
X112550000Y-65400000D03*
X110650000Y-65400000D03*
%TD*%
D28*
%TO.C,D6*%
X103312500Y-57487500D03*
X103312500Y-54512500D03*
%TD*%
D29*
%TO.C,L1*%
X125600000Y-57000000D03*
X115600000Y-57000000D03*
%TD*%
D30*
%TO.C,R17*%
X136170000Y-74135000D03*
X136170000Y-71210000D03*
%TD*%
D10*
%TO.C,SW2*%
X136190000Y-82715000D03*
X142490000Y-82715000D03*
X136190000Y-86515000D03*
X142490000Y-86515000D03*
%TD*%
D12*
%TO.C,C2*%
X110400000Y-83250000D03*
X110400000Y-85150000D03*
%TD*%
D30*
%TO.C,R16*%
X136180000Y-68932500D03*
X136180000Y-66007500D03*
%TD*%
D31*
%TO.C,R15*%
X140520000Y-71272500D03*
X140520000Y-74197500D03*
%TD*%
D32*
%TO.C,D1*%
X129150000Y-79000000D03*
X126350000Y-79000000D03*
%TD*%
D33*
%TO.C,U3*%
X122495000Y-75075000D03*
X123765000Y-75075000D03*
X125035000Y-75075000D03*
X126305000Y-75075000D03*
X126305000Y-70125000D03*
X125035000Y-70125000D03*
X123765000Y-70125000D03*
X122495000Y-70125000D03*
%TD*%
D34*
%TO.C,U5*%
X104175000Y-64425000D03*
X104175000Y-65375000D03*
X104175000Y-66325000D03*
X106450000Y-66325000D03*
X106450000Y-65375000D03*
X106450000Y-64425000D03*
%TD*%
D35*
%TO.C,Q4*%
X131600000Y-61000000D03*
X131600000Y-62700000D03*
X133300000Y-61000000D03*
X133300000Y-62700000D03*
D36*
X134705000Y-59945000D03*
X134705000Y-61215000D03*
X134705000Y-62485000D03*
X134705000Y-63755000D03*
D37*
X128900000Y-59945000D03*
X128900000Y-61215000D03*
X128900000Y-62485000D03*
X128900000Y-63755000D03*
%TD*%
D25*
%TO.C,C13*%
X112500000Y-69400000D03*
X110600000Y-69400000D03*
%TD*%
D38*
%TO.C,C27*%
X121500000Y-67550000D03*
X121500000Y-65650000D03*
%TD*%
D39*
%TO.C,R20*%
X103087500Y-73500000D03*
X104912500Y-73500000D03*
%TD*%
D25*
%TO.C,C1*%
X119550000Y-77600000D03*
X117650000Y-77600000D03*
%TD*%
D40*
%TO.C,D3*%
X133800000Y-57050000D03*
X129800000Y-57050000D03*
%TD*%
D11*
%TO.C,R9*%
X133500000Y-71025000D03*
X130575000Y-71025000D03*
%TD*%
D28*
%TO.C,D7*%
X105800000Y-57487500D03*
X105800000Y-54512500D03*
%TD*%
M02*
