M48
; DRILL file {KiCad 7.0.11-7.0.11~ubuntu22.04.1} date Friday 12 July 2024 12:17:08 PM
; FORMAT={-:-/ absolute / metric / decimal}
; #@! TF.CreationDate,2024-07-12T12:17:08+05:30
; #@! TF.GenerationSoftware,Kicad,Pcbnew,7.0.11-7.0.11~ubuntu22.04.1
; #@! TF.FileFunction,MixedPlating,1,2
FMAT,2
METRIC
; #@! TA.AperFunction,Plated,PTH,ViaDrill
T1C0.400
; #@! TA.AperFunction,Plated,PTH,ComponentDrill
T2C0.600
; #@! TA.AperFunction,Plated,PTH,ComponentDrill
T3C0.800
; #@! TA.AperFunction,Plated,PTH,ComponentDrill
T4C1.000
; #@! TA.AperFunction,Plated,PTH,ComponentDrill
T5C1.100
; #@! TA.AperFunction,Plated,PTH,ComponentDrill
T6C1.800
; #@! TA.AperFunction,NonPlated,NPTH,ComponentDrill
T7C0.650
; #@! TA.AperFunction,NonPlated,NPTH,ComponentDrill
T8C1.100
; #@! TA.AperFunction,NonPlated,NPTH,ComponentDrill
T9C3.200
%
G90
G05
T1
X91.1Y-61.5
X91.1Y-64.3
X93.2Y-87.5
X93.7Y-83.6
X93.8Y-44.4
X99.0Y-86.9
X100.3Y-68.6
X100.3Y-69.8
X102.0Y-73.5
X102.1Y-61.0
X105.1Y-45.3
X106.1Y-68.2
X106.1Y-73.0
X106.2Y-76.2
X106.7Y-87.7
X107.2Y-60.95
X107.5Y-54.45
X107.688Y-65.285
X108.0Y-66.7
X108.5Y-59.05
X108.6Y-86.2
X109.0Y-48.7
X109.0Y-50.7
X109.0Y-52.7
X109.0Y-54.7
X109.0Y-56.7
X109.5Y-64.3
X109.6Y-69.5
X109.6Y-70.8
X110.7Y-64.1
X110.7Y-86.2
X110.9Y-70.8
X111.0Y-48.7
X112.0Y-63.2
X113.0Y-48.7
X114.3Y-81.5
X114.75Y-84.9
X115.0Y-48.7
X115.0Y-83.0
X115.75Y-85.5
X117.0Y-48.7
X117.1Y-84.2
X118.1Y-62.7
X119.0Y-48.7
X119.8Y-61.0
X121.0Y-48.7
X121.0Y-50.7
X121.0Y-52.7
X121.0Y-54.7
X121.0Y-56.7
X121.0Y-58.7
X121.1Y-69.0
X121.1Y-86.5
X121.108Y-76.117
X121.434Y-73.314
X122.9Y-67.3
X123.0Y-48.7
X123.6Y-68.2
X124.5Y-78.35
X124.6Y-80.7
X125.1Y-83.8
X125.6Y-66.3
X126.3Y-73.4
X126.5Y-86.2
X127.1Y-75.1
X127.9Y-66.9
X128.1Y-44.2
X128.1Y-46.2
X128.1Y-48.2
X129.4Y-71.2
X129.6Y-83.4
X130.1Y-44.2
X130.1Y-45.8
X132.1Y-44.2
X132.1Y-45.8
X132.2Y-68.3
X132.9Y-79.0
X132.9Y-81.4
X134.1Y-44.2
X134.1Y-45.8
X134.35Y-74.75
X135.7Y-84.5
X136.1Y-44.2
X136.1Y-46.2
X136.1Y-48.2
X136.1Y-50.2
X136.1Y-52.2
X136.1Y-54.2
X136.1Y-75.4
X136.3Y-70.1
X137.6Y-76.8
X137.6Y-82.8
X138.3Y-74.2
X138.5Y-69.9
X140.5Y-69.9
X140.5Y-75.4
X140.998Y-76.793
X141.1Y-82.8
X142.6Y-69.9
X142.9Y-64.0
X143.3Y-44.4
X143.7Y-69.0
X145.1Y-79.5
X145.5Y-74.8
X148.7Y-61.2
T3
X97.0Y-48.0
X97.0Y-54.0
X97.0Y-60.0
X97.0Y-66.0
X97.0Y-72.0
X97.0Y-78.0
X99.0Y-48.0
X99.0Y-54.0
X99.0Y-60.0
X99.0Y-66.0
X99.0Y-72.0
X99.0Y-78.0
X103.05Y-83.5
X103.05Y-85.5
X140.955Y-49.8
X140.955Y-55.4
X140.955Y-61.0
X142.955Y-49.8
X142.955Y-55.4
X142.955Y-61.0
T4
X104.0Y-77.0
X104.0Y-79.54
X122.8Y-79.06
X122.8Y-81.6
X122.8Y-84.14
X122.8Y-86.68
X127.7Y-82.5
X127.7Y-85.04
T5
X89.0Y-70.46
X89.0Y-73.0
X149.72Y-64.73
X149.72Y-67.27
T6
X88.0Y-54.0
X88.0Y-78.0
X149.7Y-78.0
X150.0Y-54.0
T7
X91.605Y-60.11
X91.605Y-65.89
T8
X86.46Y-70.46
X86.46Y-73.0
X152.26Y-64.73
X152.26Y-67.27
T9
X89.0Y-47.0
X89.0Y-85.0
X149.7Y-47.0
X149.7Y-85.0
T2
G00X87.625Y-58.68
M15
G01X88.225Y-58.68
M16
G05
G00X87.625Y-67.32
M15
G01X88.225Y-67.32
M16
G05
G00X91.555Y-58.68
M15
G01X92.655Y-58.68
M16
G05
G00X91.555Y-67.32
M15
G01X92.655Y-67.32
M16
G05
M30
