%TF.GenerationSoftware,KiCad,Pcbnew,7.0.11-7.0.11~ubuntu22.04.1*%
%TF.CreationDate,2024-07-12T12:17:06+05:30*%
%TF.ProjectId,goodtorch,676f6f64-746f-4726-9368-2e6b69636164,rev?*%
%TF.SameCoordinates,Original*%
%TF.FileFunction,Legend,Bot*%
%TF.FilePolarity,Positive*%
%FSLAX46Y46*%
G04 Gerber Fmt 4.6, Leading zero omitted, Abs format (unit mm)*
G04 Created by KiCad (PCBNEW 7.0.11-7.0.11~ubuntu22.04.1) date 2024-07-12 12:17:06*
%MOMM*%
%LPD*%
G01*
G04 APERTURE LIST*
%ADD10C,0.500000*%
%ADD11C,0.125000*%
%ADD12C,0.200000*%
G04 APERTURE END LIST*
D10*
X102132666Y-76294862D02*
X102132666Y-74771053D01*
X102294862Y-80067333D02*
X100771053Y-80067333D01*
X101532957Y-80829238D02*
X101532957Y-79305428D01*
D11*
X105924809Y-78133333D02*
X106281952Y-78133333D01*
X106281952Y-78133333D02*
X106353380Y-78109524D01*
X106353380Y-78109524D02*
X106401000Y-78061905D01*
X106401000Y-78061905D02*
X106424809Y-77990476D01*
X106424809Y-77990476D02*
X106424809Y-77942857D01*
X105924809Y-78585714D02*
X105924809Y-78490476D01*
X105924809Y-78490476D02*
X105948619Y-78442857D01*
X105948619Y-78442857D02*
X105972428Y-78419047D01*
X105972428Y-78419047D02*
X106043857Y-78371428D01*
X106043857Y-78371428D02*
X106139095Y-78347619D01*
X106139095Y-78347619D02*
X106329571Y-78347619D01*
X106329571Y-78347619D02*
X106377190Y-78371428D01*
X106377190Y-78371428D02*
X106401000Y-78395238D01*
X106401000Y-78395238D02*
X106424809Y-78442857D01*
X106424809Y-78442857D02*
X106424809Y-78538095D01*
X106424809Y-78538095D02*
X106401000Y-78585714D01*
X106401000Y-78585714D02*
X106377190Y-78609523D01*
X106377190Y-78609523D02*
X106329571Y-78633333D01*
X106329571Y-78633333D02*
X106210523Y-78633333D01*
X106210523Y-78633333D02*
X106162904Y-78609523D01*
X106162904Y-78609523D02*
X106139095Y-78585714D01*
X106139095Y-78585714D02*
X106115285Y-78538095D01*
X106115285Y-78538095D02*
X106115285Y-78442857D01*
X106115285Y-78442857D02*
X106139095Y-78395238D01*
X106139095Y-78395238D02*
X106162904Y-78371428D01*
X106162904Y-78371428D02*
X106210523Y-78347619D01*
X106984928Y-66952380D02*
X106961119Y-66904761D01*
X106961119Y-66904761D02*
X106913500Y-66857142D01*
X106913500Y-66857142D02*
X106842071Y-66785714D01*
X106842071Y-66785714D02*
X106818261Y-66738095D01*
X106818261Y-66738095D02*
X106818261Y-66690476D01*
X106937309Y-66714285D02*
X106913500Y-66666666D01*
X106913500Y-66666666D02*
X106865880Y-66619047D01*
X106865880Y-66619047D02*
X106770642Y-66595238D01*
X106770642Y-66595238D02*
X106603976Y-66595238D01*
X106603976Y-66595238D02*
X106508738Y-66619047D01*
X106508738Y-66619047D02*
X106461119Y-66666666D01*
X106461119Y-66666666D02*
X106437309Y-66714285D01*
X106437309Y-66714285D02*
X106437309Y-66809523D01*
X106437309Y-66809523D02*
X106461119Y-66857142D01*
X106461119Y-66857142D02*
X106508738Y-66904761D01*
X106508738Y-66904761D02*
X106603976Y-66928571D01*
X106603976Y-66928571D02*
X106770642Y-66928571D01*
X106770642Y-66928571D02*
X106865880Y-66904761D01*
X106865880Y-66904761D02*
X106913500Y-66857142D01*
X106913500Y-66857142D02*
X106937309Y-66809523D01*
X106937309Y-66809523D02*
X106937309Y-66714285D01*
X106937309Y-67404762D02*
X106937309Y-67119048D01*
X106937309Y-67261905D02*
X106437309Y-67261905D01*
X106437309Y-67261905D02*
X106508738Y-67214286D01*
X106508738Y-67214286D02*
X106556357Y-67166667D01*
X106556357Y-67166667D02*
X106580166Y-67119048D01*
X107177190Y-70678571D02*
X107201000Y-70654762D01*
X107201000Y-70654762D02*
X107224809Y-70583333D01*
X107224809Y-70583333D02*
X107224809Y-70535714D01*
X107224809Y-70535714D02*
X107201000Y-70464286D01*
X107201000Y-70464286D02*
X107153380Y-70416667D01*
X107153380Y-70416667D02*
X107105761Y-70392857D01*
X107105761Y-70392857D02*
X107010523Y-70369048D01*
X107010523Y-70369048D02*
X106939095Y-70369048D01*
X106939095Y-70369048D02*
X106843857Y-70392857D01*
X106843857Y-70392857D02*
X106796238Y-70416667D01*
X106796238Y-70416667D02*
X106748619Y-70464286D01*
X106748619Y-70464286D02*
X106724809Y-70535714D01*
X106724809Y-70535714D02*
X106724809Y-70583333D01*
X106724809Y-70583333D02*
X106748619Y-70654762D01*
X106748619Y-70654762D02*
X106772428Y-70678571D01*
X107224809Y-71154762D02*
X107224809Y-70869048D01*
X107224809Y-71011905D02*
X106724809Y-71011905D01*
X106724809Y-71011905D02*
X106796238Y-70964286D01*
X106796238Y-70964286D02*
X106843857Y-70916667D01*
X106843857Y-70916667D02*
X106867666Y-70869048D01*
X106724809Y-71607142D02*
X106724809Y-71369047D01*
X106724809Y-71369047D02*
X106962904Y-71345238D01*
X106962904Y-71345238D02*
X106939095Y-71369047D01*
X106939095Y-71369047D02*
X106915285Y-71416666D01*
X106915285Y-71416666D02*
X106915285Y-71535714D01*
X106915285Y-71535714D02*
X106939095Y-71583333D01*
X106939095Y-71583333D02*
X106962904Y-71607142D01*
X106962904Y-71607142D02*
X107010523Y-71630952D01*
X107010523Y-71630952D02*
X107129571Y-71630952D01*
X107129571Y-71630952D02*
X107177190Y-71607142D01*
X107177190Y-71607142D02*
X107201000Y-71583333D01*
X107201000Y-71583333D02*
X107224809Y-71535714D01*
X107224809Y-71535714D02*
X107224809Y-71416666D01*
X107224809Y-71416666D02*
X107201000Y-71369047D01*
X107201000Y-71369047D02*
X107177190Y-71345238D01*
X120130951Y-83776809D02*
X119845237Y-83776809D01*
X119988094Y-84276809D02*
X119988094Y-83776809D01*
X119678571Y-84276809D02*
X119678571Y-83776809D01*
X119678571Y-83776809D02*
X119488095Y-83776809D01*
X119488095Y-83776809D02*
X119440476Y-83800619D01*
X119440476Y-83800619D02*
X119416666Y-83824428D01*
X119416666Y-83824428D02*
X119392857Y-83872047D01*
X119392857Y-83872047D02*
X119392857Y-83943476D01*
X119392857Y-83943476D02*
X119416666Y-83991095D01*
X119416666Y-83991095D02*
X119440476Y-84014904D01*
X119440476Y-84014904D02*
X119488095Y-84038714D01*
X119488095Y-84038714D02*
X119678571Y-84038714D01*
X119226190Y-83776809D02*
X118916666Y-83776809D01*
X118916666Y-83776809D02*
X119083333Y-83967285D01*
X119083333Y-83967285D02*
X119011904Y-83967285D01*
X119011904Y-83967285D02*
X118964285Y-83991095D01*
X118964285Y-83991095D02*
X118940476Y-84014904D01*
X118940476Y-84014904D02*
X118916666Y-84062523D01*
X118916666Y-84062523D02*
X118916666Y-84181571D01*
X118916666Y-84181571D02*
X118940476Y-84229190D01*
X118940476Y-84229190D02*
X118964285Y-84253000D01*
X118964285Y-84253000D02*
X119011904Y-84276809D01*
X119011904Y-84276809D02*
X119154761Y-84276809D01*
X119154761Y-84276809D02*
X119202380Y-84253000D01*
X119202380Y-84253000D02*
X119226190Y-84229190D01*
X94439809Y-62833333D02*
X94796952Y-62833333D01*
X94796952Y-62833333D02*
X94868380Y-62809524D01*
X94868380Y-62809524D02*
X94916000Y-62761905D01*
X94916000Y-62761905D02*
X94939809Y-62690476D01*
X94939809Y-62690476D02*
X94939809Y-62642857D01*
X94439809Y-63309523D02*
X94439809Y-63071428D01*
X94439809Y-63071428D02*
X94677904Y-63047619D01*
X94677904Y-63047619D02*
X94654095Y-63071428D01*
X94654095Y-63071428D02*
X94630285Y-63119047D01*
X94630285Y-63119047D02*
X94630285Y-63238095D01*
X94630285Y-63238095D02*
X94654095Y-63285714D01*
X94654095Y-63285714D02*
X94677904Y-63309523D01*
X94677904Y-63309523D02*
X94725523Y-63333333D01*
X94725523Y-63333333D02*
X94844571Y-63333333D01*
X94844571Y-63333333D02*
X94892190Y-63309523D01*
X94892190Y-63309523D02*
X94916000Y-63285714D01*
X94916000Y-63285714D02*
X94939809Y-63238095D01*
X94939809Y-63238095D02*
X94939809Y-63119047D01*
X94939809Y-63119047D02*
X94916000Y-63071428D01*
X94916000Y-63071428D02*
X94892190Y-63047619D01*
X135469046Y-68376809D02*
X135183332Y-68376809D01*
X135326189Y-68876809D02*
X135326189Y-68376809D01*
X135016666Y-68876809D02*
X135016666Y-68376809D01*
X135016666Y-68376809D02*
X134826190Y-68376809D01*
X134826190Y-68376809D02*
X134778571Y-68400619D01*
X134778571Y-68400619D02*
X134754761Y-68424428D01*
X134754761Y-68424428D02*
X134730952Y-68472047D01*
X134730952Y-68472047D02*
X134730952Y-68543476D01*
X134730952Y-68543476D02*
X134754761Y-68591095D01*
X134754761Y-68591095D02*
X134778571Y-68614904D01*
X134778571Y-68614904D02*
X134826190Y-68638714D01*
X134826190Y-68638714D02*
X135016666Y-68638714D01*
X134254761Y-68876809D02*
X134540475Y-68876809D01*
X134397618Y-68876809D02*
X134397618Y-68376809D01*
X134397618Y-68376809D02*
X134445237Y-68448238D01*
X134445237Y-68448238D02*
X134492856Y-68495857D01*
X134492856Y-68495857D02*
X134540475Y-68519666D01*
X133826190Y-68543476D02*
X133826190Y-68876809D01*
X133945238Y-68353000D02*
X134064285Y-68710142D01*
X134064285Y-68710142D02*
X133754762Y-68710142D01*
X133230951Y-72976809D02*
X132945237Y-72976809D01*
X133088094Y-73476809D02*
X133088094Y-72976809D01*
X132778571Y-73476809D02*
X132778571Y-72976809D01*
X132778571Y-72976809D02*
X132588095Y-72976809D01*
X132588095Y-72976809D02*
X132540476Y-73000619D01*
X132540476Y-73000619D02*
X132516666Y-73024428D01*
X132516666Y-73024428D02*
X132492857Y-73072047D01*
X132492857Y-73072047D02*
X132492857Y-73143476D01*
X132492857Y-73143476D02*
X132516666Y-73191095D01*
X132516666Y-73191095D02*
X132540476Y-73214904D01*
X132540476Y-73214904D02*
X132588095Y-73238714D01*
X132588095Y-73238714D02*
X132778571Y-73238714D01*
X132064285Y-73143476D02*
X132064285Y-73476809D01*
X132183333Y-72953000D02*
X132302380Y-73310142D01*
X132302380Y-73310142D02*
X131992857Y-73310142D01*
X101637309Y-60619047D02*
X102042071Y-60619047D01*
X102042071Y-60619047D02*
X102089690Y-60642857D01*
X102089690Y-60642857D02*
X102113500Y-60666666D01*
X102113500Y-60666666D02*
X102137309Y-60714285D01*
X102137309Y-60714285D02*
X102137309Y-60809523D01*
X102137309Y-60809523D02*
X102113500Y-60857142D01*
X102113500Y-60857142D02*
X102089690Y-60880952D01*
X102089690Y-60880952D02*
X102042071Y-60904761D01*
X102042071Y-60904761D02*
X101637309Y-60904761D01*
X101684928Y-61119048D02*
X101661119Y-61142857D01*
X101661119Y-61142857D02*
X101637309Y-61190476D01*
X101637309Y-61190476D02*
X101637309Y-61309524D01*
X101637309Y-61309524D02*
X101661119Y-61357143D01*
X101661119Y-61357143D02*
X101684928Y-61380952D01*
X101684928Y-61380952D02*
X101732547Y-61404762D01*
X101732547Y-61404762D02*
X101780166Y-61404762D01*
X101780166Y-61404762D02*
X101851595Y-61380952D01*
X101851595Y-61380952D02*
X102137309Y-61095238D01*
X102137309Y-61095238D02*
X102137309Y-61404762D01*
X105633928Y-54574809D02*
X105800594Y-54336714D01*
X105919642Y-54574809D02*
X105919642Y-54074809D01*
X105919642Y-54074809D02*
X105729166Y-54074809D01*
X105729166Y-54074809D02*
X105681547Y-54098619D01*
X105681547Y-54098619D02*
X105657737Y-54122428D01*
X105657737Y-54122428D02*
X105633928Y-54170047D01*
X105633928Y-54170047D02*
X105633928Y-54241476D01*
X105633928Y-54241476D02*
X105657737Y-54289095D01*
X105657737Y-54289095D02*
X105681547Y-54312904D01*
X105681547Y-54312904D02*
X105729166Y-54336714D01*
X105729166Y-54336714D02*
X105919642Y-54336714D01*
X105157737Y-54574809D02*
X105443451Y-54574809D01*
X105300594Y-54574809D02*
X105300594Y-54074809D01*
X105300594Y-54074809D02*
X105348213Y-54146238D01*
X105348213Y-54146238D02*
X105395832Y-54193857D01*
X105395832Y-54193857D02*
X105443451Y-54217666D01*
X104919642Y-54574809D02*
X104824404Y-54574809D01*
X104824404Y-54574809D02*
X104776785Y-54551000D01*
X104776785Y-54551000D02*
X104752976Y-54527190D01*
X104752976Y-54527190D02*
X104705357Y-54455761D01*
X104705357Y-54455761D02*
X104681547Y-54360523D01*
X104681547Y-54360523D02*
X104681547Y-54170047D01*
X104681547Y-54170047D02*
X104705357Y-54122428D01*
X104705357Y-54122428D02*
X104729166Y-54098619D01*
X104729166Y-54098619D02*
X104776785Y-54074809D01*
X104776785Y-54074809D02*
X104872023Y-54074809D01*
X104872023Y-54074809D02*
X104919642Y-54098619D01*
X104919642Y-54098619D02*
X104943452Y-54122428D01*
X104943452Y-54122428D02*
X104967261Y-54170047D01*
X104967261Y-54170047D02*
X104967261Y-54289095D01*
X104967261Y-54289095D02*
X104943452Y-54336714D01*
X104943452Y-54336714D02*
X104919642Y-54360523D01*
X104919642Y-54360523D02*
X104872023Y-54384333D01*
X104872023Y-54384333D02*
X104776785Y-54384333D01*
X104776785Y-54384333D02*
X104729166Y-54360523D01*
X104729166Y-54360523D02*
X104705357Y-54336714D01*
X104705357Y-54336714D02*
X104681547Y-54289095D01*
X126430951Y-77176809D02*
X126145237Y-77176809D01*
X126288094Y-77676809D02*
X126288094Y-77176809D01*
X125978571Y-77676809D02*
X125978571Y-77176809D01*
X125978571Y-77176809D02*
X125788095Y-77176809D01*
X125788095Y-77176809D02*
X125740476Y-77200619D01*
X125740476Y-77200619D02*
X125716666Y-77224428D01*
X125716666Y-77224428D02*
X125692857Y-77272047D01*
X125692857Y-77272047D02*
X125692857Y-77343476D01*
X125692857Y-77343476D02*
X125716666Y-77391095D01*
X125716666Y-77391095D02*
X125740476Y-77414904D01*
X125740476Y-77414904D02*
X125788095Y-77438714D01*
X125788095Y-77438714D02*
X125978571Y-77438714D01*
X125240476Y-77176809D02*
X125478571Y-77176809D01*
X125478571Y-77176809D02*
X125502380Y-77414904D01*
X125502380Y-77414904D02*
X125478571Y-77391095D01*
X125478571Y-77391095D02*
X125430952Y-77367285D01*
X125430952Y-77367285D02*
X125311904Y-77367285D01*
X125311904Y-77367285D02*
X125264285Y-77391095D01*
X125264285Y-77391095D02*
X125240476Y-77414904D01*
X125240476Y-77414904D02*
X125216666Y-77462523D01*
X125216666Y-77462523D02*
X125216666Y-77581571D01*
X125216666Y-77581571D02*
X125240476Y-77629190D01*
X125240476Y-77629190D02*
X125264285Y-77653000D01*
X125264285Y-77653000D02*
X125311904Y-77676809D01*
X125311904Y-77676809D02*
X125430952Y-77676809D01*
X125430952Y-77676809D02*
X125478571Y-77653000D01*
X125478571Y-77653000D02*
X125502380Y-77629190D01*
X97669046Y-61376809D02*
X97383332Y-61376809D01*
X97526189Y-61876809D02*
X97526189Y-61376809D01*
X97216666Y-61876809D02*
X97216666Y-61376809D01*
X97216666Y-61376809D02*
X97026190Y-61376809D01*
X97026190Y-61376809D02*
X96978571Y-61400619D01*
X96978571Y-61400619D02*
X96954761Y-61424428D01*
X96954761Y-61424428D02*
X96930952Y-61472047D01*
X96930952Y-61472047D02*
X96930952Y-61543476D01*
X96930952Y-61543476D02*
X96954761Y-61591095D01*
X96954761Y-61591095D02*
X96978571Y-61614904D01*
X96978571Y-61614904D02*
X97026190Y-61638714D01*
X97026190Y-61638714D02*
X97216666Y-61638714D01*
X96740475Y-61424428D02*
X96716666Y-61400619D01*
X96716666Y-61400619D02*
X96669047Y-61376809D01*
X96669047Y-61376809D02*
X96549999Y-61376809D01*
X96549999Y-61376809D02*
X96502380Y-61400619D01*
X96502380Y-61400619D02*
X96478571Y-61424428D01*
X96478571Y-61424428D02*
X96454761Y-61472047D01*
X96454761Y-61472047D02*
X96454761Y-61519666D01*
X96454761Y-61519666D02*
X96478571Y-61591095D01*
X96478571Y-61591095D02*
X96764285Y-61876809D01*
X96764285Y-61876809D02*
X96454761Y-61876809D01*
X96002381Y-61376809D02*
X96240476Y-61376809D01*
X96240476Y-61376809D02*
X96264285Y-61614904D01*
X96264285Y-61614904D02*
X96240476Y-61591095D01*
X96240476Y-61591095D02*
X96192857Y-61567285D01*
X96192857Y-61567285D02*
X96073809Y-61567285D01*
X96073809Y-61567285D02*
X96026190Y-61591095D01*
X96026190Y-61591095D02*
X96002381Y-61614904D01*
X96002381Y-61614904D02*
X95978571Y-61662523D01*
X95978571Y-61662523D02*
X95978571Y-61781571D01*
X95978571Y-61781571D02*
X96002381Y-61829190D01*
X96002381Y-61829190D02*
X96026190Y-61853000D01*
X96026190Y-61853000D02*
X96073809Y-61876809D01*
X96073809Y-61876809D02*
X96192857Y-61876809D01*
X96192857Y-61876809D02*
X96240476Y-61853000D01*
X96240476Y-61853000D02*
X96264285Y-61829190D01*
X101887309Y-70678571D02*
X101649214Y-70511905D01*
X101887309Y-70392857D02*
X101387309Y-70392857D01*
X101387309Y-70392857D02*
X101387309Y-70583333D01*
X101387309Y-70583333D02*
X101411119Y-70630952D01*
X101411119Y-70630952D02*
X101434928Y-70654762D01*
X101434928Y-70654762D02*
X101482547Y-70678571D01*
X101482547Y-70678571D02*
X101553976Y-70678571D01*
X101553976Y-70678571D02*
X101601595Y-70654762D01*
X101601595Y-70654762D02*
X101625404Y-70630952D01*
X101625404Y-70630952D02*
X101649214Y-70583333D01*
X101649214Y-70583333D02*
X101649214Y-70392857D01*
X101887309Y-71154762D02*
X101887309Y-70869048D01*
X101887309Y-71011905D02*
X101387309Y-71011905D01*
X101387309Y-71011905D02*
X101458738Y-70964286D01*
X101458738Y-70964286D02*
X101506357Y-70916667D01*
X101506357Y-70916667D02*
X101530166Y-70869048D01*
X101887309Y-71630952D02*
X101887309Y-71345238D01*
X101887309Y-71488095D02*
X101387309Y-71488095D01*
X101387309Y-71488095D02*
X101458738Y-71440476D01*
X101458738Y-71440476D02*
X101506357Y-71392857D01*
X101506357Y-71392857D02*
X101530166Y-71345238D01*
X132530951Y-81476809D02*
X132245237Y-81476809D01*
X132388094Y-81976809D02*
X132388094Y-81476809D01*
X132078571Y-81976809D02*
X132078571Y-81476809D01*
X132078571Y-81476809D02*
X131888095Y-81476809D01*
X131888095Y-81476809D02*
X131840476Y-81500619D01*
X131840476Y-81500619D02*
X131816666Y-81524428D01*
X131816666Y-81524428D02*
X131792857Y-81572047D01*
X131792857Y-81572047D02*
X131792857Y-81643476D01*
X131792857Y-81643476D02*
X131816666Y-81691095D01*
X131816666Y-81691095D02*
X131840476Y-81714904D01*
X131840476Y-81714904D02*
X131888095Y-81738714D01*
X131888095Y-81738714D02*
X132078571Y-81738714D01*
X131364285Y-81476809D02*
X131459523Y-81476809D01*
X131459523Y-81476809D02*
X131507142Y-81500619D01*
X131507142Y-81500619D02*
X131530952Y-81524428D01*
X131530952Y-81524428D02*
X131578571Y-81595857D01*
X131578571Y-81595857D02*
X131602380Y-81691095D01*
X131602380Y-81691095D02*
X131602380Y-81881571D01*
X131602380Y-81881571D02*
X131578571Y-81929190D01*
X131578571Y-81929190D02*
X131554761Y-81953000D01*
X131554761Y-81953000D02*
X131507142Y-81976809D01*
X131507142Y-81976809D02*
X131411904Y-81976809D01*
X131411904Y-81976809D02*
X131364285Y-81953000D01*
X131364285Y-81953000D02*
X131340476Y-81929190D01*
X131340476Y-81929190D02*
X131316666Y-81881571D01*
X131316666Y-81881571D02*
X131316666Y-81762523D01*
X131316666Y-81762523D02*
X131340476Y-81714904D01*
X131340476Y-81714904D02*
X131364285Y-81691095D01*
X131364285Y-81691095D02*
X131411904Y-81667285D01*
X131411904Y-81667285D02*
X131507142Y-81667285D01*
X131507142Y-81667285D02*
X131554761Y-81691095D01*
X131554761Y-81691095D02*
X131578571Y-81714904D01*
X131578571Y-81714904D02*
X131602380Y-81762523D01*
X110069046Y-59476809D02*
X109783332Y-59476809D01*
X109926189Y-59976809D02*
X109926189Y-59476809D01*
X109616666Y-59976809D02*
X109616666Y-59476809D01*
X109616666Y-59476809D02*
X109426190Y-59476809D01*
X109426190Y-59476809D02*
X109378571Y-59500619D01*
X109378571Y-59500619D02*
X109354761Y-59524428D01*
X109354761Y-59524428D02*
X109330952Y-59572047D01*
X109330952Y-59572047D02*
X109330952Y-59643476D01*
X109330952Y-59643476D02*
X109354761Y-59691095D01*
X109354761Y-59691095D02*
X109378571Y-59714904D01*
X109378571Y-59714904D02*
X109426190Y-59738714D01*
X109426190Y-59738714D02*
X109616666Y-59738714D01*
X109140475Y-59524428D02*
X109116666Y-59500619D01*
X109116666Y-59500619D02*
X109069047Y-59476809D01*
X109069047Y-59476809D02*
X108949999Y-59476809D01*
X108949999Y-59476809D02*
X108902380Y-59500619D01*
X108902380Y-59500619D02*
X108878571Y-59524428D01*
X108878571Y-59524428D02*
X108854761Y-59572047D01*
X108854761Y-59572047D02*
X108854761Y-59619666D01*
X108854761Y-59619666D02*
X108878571Y-59691095D01*
X108878571Y-59691095D02*
X109164285Y-59976809D01*
X109164285Y-59976809D02*
X108854761Y-59976809D01*
X108688095Y-59476809D02*
X108354762Y-59476809D01*
X108354762Y-59476809D02*
X108569047Y-59976809D01*
D12*
%TO.C,Q1*%
X102752500Y-67000000D02*
X102752500Y-67650000D01*
X102752500Y-67000000D02*
X102752500Y-66350000D01*
X105872500Y-67000000D02*
X105872500Y-67650000D01*
X105872500Y-67000000D02*
X105872500Y-66350000D01*
X106152500Y-68402500D02*
X105822500Y-68162500D01*
X106152500Y-67922500D01*
X106152500Y-68402500D01*
G36*
X106152500Y-68402500D02*
G01*
X105822500Y-68162500D01*
X106152500Y-67922500D01*
X106152500Y-68402500D01*
G37*
%TO.C,C15*%
X106047500Y-70738748D02*
X106047500Y-71261252D01*
X104577500Y-70738748D02*
X104577500Y-71261252D01*
%TO.C,TP3*%
X120200000Y-85500000D02*
G75*
G03*
X118800000Y-85500000I-700000J0D01*
G01*
X118800000Y-85500000D02*
G75*
G03*
X120200000Y-85500000I700000J0D01*
G01*
%TO.C,J5*%
X85215000Y-67580000D02*
X86920000Y-67580000D01*
X90850000Y-67580000D02*
X88930000Y-67580000D01*
X85215000Y-58420000D02*
X85215000Y-67580000D01*
X86920000Y-58420000D02*
X85215000Y-58420000D01*
X88930000Y-58420000D02*
X90850000Y-58420000D01*
%TO.C,TP14*%
X135300000Y-70100000D02*
G75*
G03*
X133900000Y-70100000I-700000J0D01*
G01*
X133900000Y-70100000D02*
G75*
G03*
X135300000Y-70100000I700000J0D01*
G01*
%TO.C,TP4*%
X133300000Y-74700000D02*
G75*
G03*
X131900000Y-74700000I-700000J0D01*
G01*
X131900000Y-74700000D02*
G75*
G03*
X133300000Y-74700000I700000J0D01*
G01*
%TO.C,U2*%
X107872500Y-61000000D02*
X107872500Y-59050000D01*
X107872500Y-61000000D02*
X107872500Y-62950000D01*
X102752500Y-61000000D02*
X102752500Y-59050000D01*
X102752500Y-61000000D02*
X102752500Y-62950000D01*
X102847500Y-58300000D02*
X102517500Y-58540000D01*
X102517500Y-58060000D01*
X102847500Y-58300000D01*
G36*
X102847500Y-58300000D02*
G01*
X102517500Y-58540000D01*
X102517500Y-58060000D01*
X102847500Y-58300000D01*
G37*
%TO.C,R19*%
X105539564Y-56735000D02*
X105085436Y-56735000D01*
X105539564Y-55265000D02*
X105085436Y-55265000D01*
%TO.C,TP5*%
X126500000Y-78900000D02*
G75*
G03*
X125100000Y-78900000I-700000J0D01*
G01*
X125100000Y-78900000D02*
G75*
G03*
X126500000Y-78900000I700000J0D01*
G01*
%TO.C,TP25*%
X97500000Y-63100000D02*
G75*
G03*
X96100000Y-63100000I-700000J0D01*
G01*
X96100000Y-63100000D02*
G75*
G03*
X97500000Y-63100000I700000J0D01*
G01*
%TO.C,R11*%
X104047500Y-70772936D02*
X104047500Y-71227064D01*
X102577500Y-70772936D02*
X102577500Y-71227064D01*
%TO.C,TP6*%
X132600000Y-83200000D02*
G75*
G03*
X131200000Y-83200000I-700000J0D01*
G01*
X131200000Y-83200000D02*
G75*
G03*
X132600000Y-83200000I700000J0D01*
G01*
%TO.C,TP27*%
X109900000Y-61200000D02*
G75*
G03*
X108500000Y-61200000I-700000J0D01*
G01*
X108500000Y-61200000D02*
G75*
G03*
X109900000Y-61200000I700000J0D01*
G01*
%TD*%
M02*
