%TF.GenerationSoftware,KiCad,Pcbnew,7.0.11-7.0.11~ubuntu22.04.1*%
%TF.CreationDate,2024-07-12T12:17:06+05:30*%
%TF.ProjectId,goodtorch,676f6f64-746f-4726-9368-2e6b69636164,rev?*%
%TF.SameCoordinates,Original*%
%TF.FileFunction,Soldermask,Bot*%
%TF.FilePolarity,Negative*%
%FSLAX46Y46*%
G04 Gerber Fmt 4.6, Leading zero omitted, Abs format (unit mm)*
G04 Created by KiCad (PCBNEW 7.0.11-7.0.11~ubuntu22.04.1) date 2024-07-12 12:17:06*
%MOMM*%
%LPD*%
G01*
G04 APERTURE LIST*
G04 Aperture macros list*
%AMRoundRect*
0 Rectangle with rounded corners*
0 $1 Rounding radius*
0 $2 $3 $4 $5 $6 $7 $8 $9 X,Y pos of 4 corners*
0 Add a 4 corners polygon primitive as box body*
4,1,4,$2,$3,$4,$5,$6,$7,$8,$9,$2,$3,0*
0 Add four circle primitives for the rounded corners*
1,1,$1+$1,$2,$3*
1,1,$1+$1,$4,$5*
1,1,$1+$1,$6,$7*
1,1,$1+$1,$8,$9*
0 Add four rect primitives between the rounded corners*
20,1,$1+$1,$2,$3,$4,$5,0*
20,1,$1+$1,$4,$5,$6,$7,0*
20,1,$1+$1,$6,$7,$8,$9,0*
20,1,$1+$1,$8,$9,$2,$3,0*%
G04 Aperture macros list end*
%ADD10C,3.200000*%
%ADD11R,1.600000X1.600000*%
%ADD12C,1.600000*%
%ADD13C,3.800000*%
%ADD14C,1.100000*%
%ADD15R,2.200000X2.200000*%
%ADD16C,2.200000*%
%ADD17R,1.700000X1.700000*%
%ADD18O,1.700000X1.700000*%
%ADD19RoundRect,0.150000X0.150000X-0.587500X0.150000X0.587500X-0.150000X0.587500X-0.150000X-0.587500X0*%
%ADD20RoundRect,0.250000X-0.475000X0.250000X-0.475000X-0.250000X0.475000X-0.250000X0.475000X0.250000X0*%
%ADD21C,1.000000*%
%ADD22C,0.650000*%
%ADD23R,1.150000X0.300000*%
%ADD24O,1.600000X1.000000*%
%ADD25O,2.100000X1.000000*%
%ADD26RoundRect,0.150000X-0.150000X0.675000X-0.150000X-0.675000X0.150000X-0.675000X0.150000X0.675000X0*%
%ADD27RoundRect,0.250000X0.262500X0.450000X-0.262500X0.450000X-0.262500X-0.450000X0.262500X-0.450000X0*%
%ADD28RoundRect,0.250000X-0.450000X0.262500X-0.450000X-0.262500X0.450000X-0.262500X0.450000X0.262500X0*%
G04 APERTURE END LIST*
D10*
%TO.C,H1*%
X89000000Y-47000000D03*
%TD*%
D11*
%TO.C,C22*%
X140955113Y-55400000D03*
D12*
X142955113Y-55400000D03*
%TD*%
D11*
%TO.C,C12*%
X97000000Y-54000000D03*
D12*
X99000000Y-54000000D03*
%TD*%
D13*
%TO.C,H5*%
X88000000Y-78000000D03*
%TD*%
D14*
%TO.C,J4*%
X152260000Y-67270000D03*
X152260000Y-64730000D03*
D15*
X149720000Y-67270000D03*
D16*
X149720000Y-64730000D03*
%TD*%
D14*
%TO.C,J3*%
X86460000Y-70460000D03*
X86460000Y-73000000D03*
D15*
X89000000Y-70460000D03*
D16*
X89000000Y-73000000D03*
%TD*%
D10*
%TO.C,H2*%
X89000000Y-85000000D03*
%TD*%
D11*
%TO.C,C4*%
X97000000Y-60000000D03*
D12*
X99000000Y-60000000D03*
%TD*%
D13*
%TO.C,H8*%
X149700000Y-78000000D03*
%TD*%
D10*
%TO.C,H3*%
X149700000Y-85000000D03*
%TD*%
D11*
%TO.C,C6*%
X103050000Y-83500000D03*
D12*
X103050000Y-85500000D03*
%TD*%
D11*
%TO.C,C8*%
X97000000Y-72000000D03*
D12*
X99000000Y-72000000D03*
%TD*%
D17*
%TO.C,J2*%
X127700000Y-82500000D03*
D18*
X127700000Y-85040000D03*
%TD*%
D17*
%TO.C,J1*%
X122800000Y-79060000D03*
D18*
X122800000Y-81600000D03*
X122800000Y-84140000D03*
X122800000Y-86680000D03*
%TD*%
D11*
%TO.C,C23*%
X140955113Y-61000000D03*
D12*
X142955113Y-61000000D03*
%TD*%
D10*
%TO.C,H4*%
X149700000Y-47000000D03*
%TD*%
D11*
%TO.C,C3*%
X97000000Y-66000000D03*
D12*
X99000000Y-66000000D03*
%TD*%
D11*
%TO.C,C10*%
X97000000Y-78000000D03*
D12*
X99000000Y-78000000D03*
%TD*%
D13*
%TO.C,H6*%
X88000000Y-54000000D03*
%TD*%
%TO.C,H7*%
X150000000Y-54000000D03*
%TD*%
D11*
%TO.C,C21*%
X140955113Y-49800000D03*
D12*
X142955113Y-49800000D03*
%TD*%
D11*
%TO.C,C5*%
X97000000Y-48000000D03*
D12*
X99000000Y-48000000D03*
%TD*%
D17*
%TO.C,J6*%
X104000000Y-77000000D03*
D18*
X104000000Y-79540000D03*
%TD*%
D19*
%TO.C,Q1*%
X105262500Y-67937500D03*
X103362500Y-67937500D03*
X104312500Y-66062500D03*
%TD*%
D20*
%TO.C,C15*%
X105312500Y-70050000D03*
X105312500Y-71950000D03*
%TD*%
D21*
%TO.C,TP3*%
X119500000Y-85500000D03*
%TD*%
D22*
%TO.C,J5*%
X91605000Y-65890000D03*
X91605000Y-60110000D03*
D23*
X92670000Y-66350000D03*
X92670000Y-65550000D03*
X92670000Y-64250000D03*
X92670000Y-63250000D03*
X92670000Y-62750000D03*
X92670000Y-61750000D03*
X92670000Y-60450000D03*
X92670000Y-59650000D03*
X92670000Y-59950000D03*
X92670000Y-60750000D03*
X92670000Y-61250000D03*
X92670000Y-62250000D03*
X92670000Y-63750000D03*
X92670000Y-64750000D03*
X92670000Y-65250000D03*
X92670000Y-66050000D03*
D24*
X87925000Y-67320000D03*
D25*
X92105000Y-67320000D03*
D24*
X87925000Y-58680000D03*
D25*
X92105000Y-58680000D03*
%TD*%
D21*
%TO.C,TP14*%
X134600000Y-70100000D03*
%TD*%
%TO.C,TP4*%
X132600000Y-74700000D03*
%TD*%
D26*
%TO.C,U2*%
X103407500Y-58375000D03*
X104677500Y-58375000D03*
X105947500Y-58375000D03*
X107217500Y-58375000D03*
X107217500Y-63625000D03*
X105947500Y-63625000D03*
X104677500Y-63625000D03*
X103407500Y-63625000D03*
%TD*%
D27*
%TO.C,R19*%
X106225000Y-56000000D03*
X104400000Y-56000000D03*
%TD*%
D21*
%TO.C,TP5*%
X125800000Y-78900000D03*
%TD*%
%TO.C,TP25*%
X96800000Y-63100000D03*
%TD*%
D28*
%TO.C,R11*%
X103312500Y-70087500D03*
X103312500Y-71912500D03*
%TD*%
D21*
%TO.C,TP6*%
X131900000Y-83200000D03*
%TD*%
%TO.C,TP27*%
X109200000Y-61200000D03*
%TD*%
M02*
